STARTFONT 2.3
FONT -FontForge-Rajdhani-Book-R-Normal--32-320-72-72-P-196-ISO10646-1
SIZE 32 72 72  2
FONTBOUNDINGBOX 79 38 -14 -10
COMMENT "Generated by fontforge, http://fontforge.sourceforge.net"
COMMENT "Copyright (c) 2014 Indian Type Foundry (info@indiantypefoundry.com)"
STARTPROPERTIES 41
FOUNDRY "FontForge"
FAMILY_NAME "Rajdhani"
WEIGHT_NAME "Book"
SLANT "R"
SETWIDTH_NAME "Normal"
ADD_STYLE_NAME ""
PIXEL_SIZE 32
POINT_SIZE 320
RESOLUTION_X 72
RESOLUTION_Y 72
SPACING "P"
AVERAGE_WIDTH 196
CHARSET_REGISTRY "ISO10646"
CHARSET_ENCODING "1"
FONTNAME_REGISTRY ""
CHARSET_COLLECTIONS "ISO8859-2 ISO8859-9 ISO8859-4 ISO10646-1"
BITS_PER_PIXEL 2
FONT_NAME "Rajdhani-Regular"
FACE_NAME "Rajdhani Regular"
COPYRIGHT "Copyright (c) 2014 Indian Type Foundry (info@indiantypefoundry.com)"
FONT_VERSION "1.201;PS 1.0;hotconv 1.0.78;makeotf.lib2.5.61930; ttfautohint (v1.1) -l 7 -r 28 -G 50 -x 13 -D latn -f deva -w G"
FONT_ASCENT 26
FONT_DESCENT 6
UNDERLINE_POSITION -3
UNDERLINE_THICKNESS 2
X_HEIGHT 15
CAP_HEIGHT 19
DEFAULT_CHAR 3
RAW_ASCENT 800
RAW_DESCENT 200
NORM_SPACE 9
RELATIVE_WEIGHT 40
RELATIVE_SETWIDTH 50
SUPERSCRIPT_X 0
SUPERSCRIPT_Y 11
SUPERSCRIPT_SIZE 19
SUBSCRIPT_X 0
SUBSCRIPT_Y 2
SUBSCRIPT_SIZE 19
AVG_LOWERCASE_WIDTH 145
AVG_UPPERCASE_WIDTH 166
ENDPROPERTIES
CHARS 1043
STARTCHAR NULL.dup1
ENCODING 0
SWIDTH 0 0
DWIDTH 0 0
BBX 1 1 0 0
BITMAP
00
ENDCHAR
STARTCHAR CR
ENCODING 13
SWIDTH 0 0
DWIDTH 0 0
BBX 1 1 0 0
BITMAP
00
ENDCHAR
STARTCHAR space
ENCODING 32
SWIDTH 267 0
DWIDTH 9 0
BBX 1 1 0 0
BITMAP
00
ENDCHAR
STARTCHAR exclam
ENCODING 33
SWIDTH 237 0
DWIDTH 8 0
BBX 2 20 3 0
BITMAP
E0
E0
E0
E0
E0
E0
E0
E0
E0
E0
E0
D0
D0
90
00
00
E0
E0
E0
E0
ENDCHAR
STARTCHAR quotedbl
ENCODING 34
SWIDTH 330 0
DWIDTH 11 0
BBX 7 7 2 13
BITMAP
E034
E034
E034
9034
9034
9024
9020
ENDCHAR
STARTCHAR numbersign
ENCODING 35
SWIDTH 677 0
DWIDTH 22 0
BBX 19 20 1 0
BITMAP
0000D001C0
0001D00280
0001C00340
0002800700
0007400B00
03FFFFFFFC
015A555D54
000D001C00
001C002800
002C003400
0038007000
007400A000
00B000E000
7FFFFFFF80
15E556D540
01C0028000
02C0034000
0280070000
03400A0000
07000A0000
ENDCHAR
STARTCHAR dollar
ENCODING 36
SWIDTH 504 0
DWIDTH 16 0
BBX 12 27 2 -3
BITMAP
000400
001C00
001C00
001C00
0BFFE0
2E55BC
74001E
B0000E
A0000B
A00005
B00000
B00000
7D4000
1FFFE4
0055BD
00000E
00000B
00000B
A0000B
B0000B
B0000E
74001E
2E55BC
0BFFE0
001C00
001C00
001C00
ENDCHAR
STARTCHAR percent
ENCODING 37
SWIDTH 717 0
DWIDTH 23 0
BBX 21 20 1 0
BITMAP
0BF9000D0000
2E5B401C0000
740380340000
700280700000
700280A00000
700281C00000
700282800000
391743400000
1FFE0A000000
01500D000000
00001C000000
0000341BF800
000070755A00
0000A0A00340
0001C0A00340
000280A00340
000340A00340
000A00A00740
000D00796E00
001C001BF800
ENDCHAR
STARTCHAR ampersand
ENCODING 38
SWIDTH 597 0
DWIDTH 19 0
BBX 16 20 2 0
BITMAP
00BFE000
03E5BC00
07400E00
0B000B00
0B000B00
0B000B00
0B000000
07400000
02C00000
1FF00000
3D780000
B41FFFFD
B0079554
B002E000
B000B400
B0002D00
B0000F40
74001FC0
2E55B8F0
0BFFE038
ENDCHAR
STARTCHAR quotesingle
ENCODING 39
SWIDTH 186 0
DWIDTH 6 0
BBX 2 6 2 14
BITMAP
A0
A0
A0
A0
A0
50
ENDCHAR
STARTCHAR parenleft
ENCODING 40
SWIDTH 283 0
DWIDTH 9 0
BBX 6 24 1 -4
BITMAP
02F0
1F90
2C00
3400
7400
7400
7400
7400
7400
7400
7400
7400
7400
7400
7400
7400
7400
7400
7400
3400
3800
1E40
07F0
0050
ENDCHAR
STARTCHAR parenright
ENCODING 41
SWIDTH 283 0
DWIDTH 9 0
BBX 6 24 1 -4
BITMAP
7E00
1B80
01D0
00A0
00B0
00B0
00B0
00B0
00B0
00B0
00B0
00B0
00B0
00B0
00B0
00B0
00B0
00B0
00B0
00A0
00E0
07C0
7E40
1000
ENDCHAR
STARTCHAR asterisk
ENCODING 42
SWIDTH 406 0
DWIDTH 13 0
BBX 9 8 2 12
BITMAP
01D000
00C000
A4C680
6EAE40
015000
073400
1D1D00
180900
ENDCHAR
STARTCHAR plus
ENCODING 43
SWIDTH 523 0
DWIDTH 17 0
BBX 13 12 2 4
BITMAP
001C0000
001C0000
001C0000
001C0000
001D0000
BFFFFF40
556D5500
001C0000
001C0000
001C0000
001C0000
001C0000
ENDCHAR
STARTCHAR comma
ENCODING 44
SWIDTH 191 0
DWIDTH 6 0
BBX 2 8 2 -4
BITMAP
B0
F0
F0
F0
E0
D0
80
40
ENDCHAR
STARTCHAR hyphen
ENCODING 45
SWIDTH 312 0
DWIDTH 10 0
BBX 8 2 1 9
BITMAP
BFFE
5555
ENDCHAR
STARTCHAR period
ENCODING 46
SWIDTH 191 0
DWIDTH 6 0
BBX 2 4 2 0
BITMAP
B0
F0
F0
B0
ENDCHAR
STARTCHAR slash
ENCODING 47
SWIDTH 396 0
DWIDTH 13 0
BBX 9 20 2 0
BITMAP
000380
000740
000B00
000E00
001D00
003C00
007400
00B000
00E000
01D000
02C000
038000
074000
0B0000
0E0000
1D0000
380000
740000
B00000
E00000
ENDCHAR
STARTCHAR zero
ENCODING 48
SWIDTH 514 0
DWIDTH 16 0
BBX 13 20 2 0
BITMAP
0BFFE400
3E55BD00
B4000F00
B0000740
E0000740
E0000740
E0000740
E0000740
E0000740
E0000740
E0000740
E0000740
E0000740
E0000740
E0000740
E0000740
B0000740
B4000F00
3E55BD00
0BFFE400
ENDCHAR
STARTCHAR one
ENCODING 49
SWIDTH 317 0
DWIDTH 10 0
BBX 7 20 1 0
BITMAP
00B4
0BF4
7E74
E074
0074
0074
0074
0074
0074
0074
0074
0074
0074
0074
0074
0074
0074
0074
0074
0034
ENDCHAR
STARTCHAR two
ENCODING 50
SWIDTH 478 0
DWIDTH 15 0
BBX 13 20 1 0
BITMAP
06FFE400
1F95BD00
3C000B00
38000740
74000740
74000740
10000740
00000B00
00002D00
0000B400
0007D000
002E0000
00B40000
07D00000
1E000000
2C000000
38000000
38000000
39555540
3FFFFF40
ENDCHAR
STARTCHAR three
ENCODING 51
SWIDTH 496 0
DWIDTH 16 0
BBX 12 20 2 0
BITMAP
0BFFE0
3E55B8
B4001D
E0000E
E0000E
90000E
00000E
00001E
000178
003FE0
0015B8
00001D
00000E
40000E
E0000E
E0000E
E0000E
B4001D
3E55B8
0BFFE0
ENDCHAR
STARTCHAR four
ENCODING 52
SWIDTH 520 0
DWIDTH 17 0
BBX 15 20 1 0
BITMAP
00002E00
0000BE00
0000EA00
0002CA00
00074A00
000E0A00
002D0A00
00380A00
00B00A00
01D00A00
03800A00
07400A00
0E000A00
2C000A00
78000A00
BFFFFFF8
15555F50
00000A00
00000A00
00000A00
ENDCHAR
STARTCHAR five
ENCODING 53
SWIDTH 482 0
DWIDTH 15 0
BBX 12 20 2 0
BITMAP
BFFFFD
F55554
E00000
E00000
E00000
E00000
E00000
EBFFE0
F955B8
B0002D
00000E
00000E
00000E
00000E
E0000E
E0000E
B0000E
B4002D
3E56B8
0BFF90
ENDCHAR
STARTCHAR six
ENCODING 54
SWIDTH 497 0
DWIDTH 16 0
BBX 12 20 2 0
BITMAP
1BFFF8
7E5554
B00000
E00000
D00000
D00000
D00000
E00000
FFFFE0
E555BC
D0001E
D0000E
D0000B
D0000B
D0000B
E0000B
E0000E
B0001D
7E55B8
1BFFE0
ENDCHAR
STARTCHAR seven
ENCODING 55
SWIDTH 380 0
DWIDTH 12 0
BBX 12 20 0 0
BITMAP
7FFFFD
55556D
00002C
000038
000074
0000B0
0001E0
0002D0
000380
000740
000B00
000E00
001D00
003C00
007400
00B000
00E000
01D000
02C000
038000
ENDCHAR
STARTCHAR eight
ENCODING 56
SWIDTH 519 0
DWIDTH 17 0
BBX 13 20 2 0
BITMAP
0BFFE400
3E55AE00
B4000B40
F0000740
E0000340
E0000340
E0000740
B0000740
3D006E00
0FFFF800
2E556D00
B4000B00
B0000740
E0000340
E0000340
E0000340
B0000740
B4000B00
3E55AE00
0BFFE400
ENDCHAR
STARTCHAR nine
ENCODING 57
SWIDTH 497 0
DWIDTH 16 0
BBX 13 20 1 0
BITMAP
06FFF800
1F956E00
2C000740
38000380
74000380
74000280
74000280
74000280
38000280
3C000280
1E400380
07FFFF80
00555780
00000380
00000380
00000380
00000380
00000740
05556E00
1FFFF800
ENDCHAR
STARTCHAR colon
ENCODING 58
SWIDTH 191 0
DWIDTH 6 0
BBX 2 16 2 0
BITMAP
B0
F0
F0
B0
00
00
00
00
00
00
00
00
B0
F0
F0
B0
ENDCHAR
STARTCHAR semicolon
ENCODING 59
SWIDTH 191 0
DWIDTH 6 0
BBX 2 19 2 -3
BITMAP
B0
F0
F0
B0
00
00
00
00
00
00
00
F0
F0
F0
F0
E0
D0
80
40
ENDCHAR
STARTCHAR less
ENCODING 60
SWIDTH 513 0
DWIDTH 16 0
BBX 13 11 2 5
BITMAP
00000140
00006F40
001BE400
01BE0000
6F900000
F4000000
BE400000
06F40000
006F9000
0001BE00
00000740
ENDCHAR
STARTCHAR equal
ENCODING 61
SWIDTH 531 0
DWIDTH 17 0
BBX 13 8 2 6
BITMAP
BFFFFF80
15555500
00000000
00000000
00000000
00000000
BFFFFF80
15555500
ENDCHAR
STARTCHAR greater
ENCODING 62
SWIDTH 531 0
DWIDTH 17 0
BBX 13 11 2 5
BITMAP
50000000
BE400000
0BF40000
006F9000
0001BE00
00000B80
00006F40
001BE400
02FD0000
6F900000
A4000000
ENDCHAR
STARTCHAR question
ENCODING 63
SWIDTH 473 0
DWIDTH 15 0
BBX 11 20 2 0
BITMAP
07FF80
2E56E0
740074
B00038
B0002C
B0002C
000038
0000B4
0002D0
000B40
002C00
003800
003800
003400
000000
000000
003800
003800
003800
003800
ENDCHAR
STARTCHAR at
ENCODING 64
SWIDTH 753 0
DWIDTH 24 0
BBX 20 21 2 -3
BITMAP
002FFFFFD0
01F95555B4
078000002C
1D0000000D
2802FFF809
340B95780A
701D00380A
702C00380A
702800380A
702800380A
702800380A
702800380A
702C00380D
701D00781D
340F56B978
2806FF6FE0
1D00540500
0B40000000
02E5000000
006FFFF800
0001555400
ENDCHAR
STARTCHAR A
ENCODING 65
SWIDTH 533 0
DWIDTH 17 0
BBX 15 20 1 0
BITMAP
000B8000
000FC000
001DD000
002CE000
0038B000
00747400
00B03800
00E02C00
01D01D00
02C00E00
03800B00
07400740
0B000380
0FFFFFC0
1D5555D0
2C0000E0
380000B0
74000074
B0000038
E000002C
ENDCHAR
STARTCHAR B
ENCODING 66
SWIDTH 546 0
DWIDTH 17 0
BBX 14 20 2 0
BITMAP
7FFFF800
79556F00
74000380
740002C0
740002C0
740002C0
740002C0
74000380
74001B40
7FFFFD00
79555F40
74000380
740002C0
740001D0
740001D0
740001D0
740002C0
740003C0
79556F40
7FFFF900
ENDCHAR
STARTCHAR C
ENCODING 67
SWIDTH 542 0
DWIDTH 17 0
BBX 14 20 2 0
BITMAP
06FFF900
2E956F40
780002C0
B00001D0
B00001D0
B00001D0
B0000040
B0000000
B0000000
B0000000
B0000000
B0000000
B0000000
B0000040
B00001D0
B00001D0
B00001D0
780002C0
2E556F40
06FFF900
ENDCHAR
STARTCHAR D
ENCODING 68
SWIDTH 557 0
DWIDTH 18 0
BBX 14 20 2 0
BITMAP
7FFFF900
79556F40
740002C0
740001D0
740001D0
740001D0
740001D0
740001D0
740001D0
740001D0
740001D0
740001D0
740001D0
740001D0
740001D0
740001D0
740001D0
740002C0
79556F40
7FFFF900
ENDCHAR
STARTCHAR E
ENCODING 69
SWIDTH 481 0
DWIDTH 15 0
BBX 12 20 2 0
BITMAP
7FFFFD
795554
740000
740000
740000
740000
740000
740000
740000
7FFFF4
795550
740000
740000
740000
740000
740000
740000
740000
795554
7FFFFD
ENDCHAR
STARTCHAR F
ENCODING 70
SWIDTH 459 0
DWIDTH 15 0
BBX 12 20 2 0
BITMAP
7FFFFD
795554
740000
740000
740000
740000
740000
740000
740000
740000
7FFFF4
795550
740000
740000
740000
740000
740000
740000
740000
740000
ENDCHAR
STARTCHAR G
ENCODING 71
SWIDTH 539 0
DWIDTH 17 0
BBX 13 20 2 0
BITMAP
06FFF800
2E956E00
78000740
B0000380
B00002C0
B00002C0
B0000140
B0000000
B0000000
B0000000
B003FFC0
B00157C0
B00002C0
B00002C0
B00002C0
B00002C0
B0000380
78000780
2E556F00
06FFF800
ENDCHAR
STARTCHAR H
ENCODING 72
SWIDTH 570 0
DWIDTH 18 0
BBX 14 20 2 0
BITMAP
740000D0
740000E0
740000E0
740000E0
740000E0
740000E0
740000E0
740000E0
740001E0
7FFFFFE0
795555E0
740000E0
740000E0
740000E0
740000E0
740000E0
740000E0
740000E0
740000E0
740000D0
ENDCHAR
STARTCHAR I
ENCODING 73
SWIDTH 230 0
DWIDTH 7 0
BBX 2 20 3 0
BITMAP
D0
D0
D0
D0
D0
D0
D0
D0
D0
D0
D0
D0
D0
D0
D0
D0
D0
D0
D0
D0
ENDCHAR
STARTCHAR J
ENCODING 74
SWIDTH 499 0
DWIDTH 16 0
BBX 13 20 1 0
BITMAP
00000340
00000740
00000740
00000740
00000740
00000740
00000740
00000740
00000740
00000740
00000740
00000740
50000740
B0000740
B0000740
B0000740
B0000740
74000B00
2E55BD00
0BFFE400
ENDCHAR
STARTCHAR K
ENCODING 75
SWIDTH 530 0
DWIDTH 17 0
BBX 14 20 2 0
BITMAP
740003C0
74000B40
74001D00
74007800
7400F000
7402D000
740B4000
741E0000
747C0000
74FC0000
76DE0000
7B474000
7D02D000
7800E000
74007800
74002D00
74000F00
74000780
740002D0
740000B0
ENDCHAR
STARTCHAR L
ENCODING 76
SWIDTH 451 0
DWIDTH 14 0
BBX 12 20 2 0
BITMAP
740000
740000
740000
740000
740000
740000
740000
740000
740000
740000
740000
740000
740000
740000
740000
740000
740000
740000
795555
7FFFFE
ENDCHAR
STARTCHAR M
ENCODING 77
SWIDTH 696 0
DWIDTH 22 0
BBX 18 20 2 0
BITMAP
7D000003E0
7E000007E0
7F00000BE0
7780001DE0
76C0002CE0
75D00034E0
74B000B0E0
747400E0E0
743801C0E0
741D0380E0
740E0740E0
740B0A00E0
74035D00E0
7402EC00E0
7401F800E0
74006000E0
74000000E0
74000000E0
74000000E0
74000000E0
ENDCHAR
STARTCHAR N
ENCODING 78
SWIDTH 579 0
DWIDTH 19 0
BBX 14 20 2 0
BITMAP
740000A0
7C0000B0
7E0000B0
7F4000B0
77C000B0
75D000B0
74B000B0
743800B0
742D00B0
740E00B0
740740B0
7402C0B0
7400E0B0
740074B0
740038B0
74001DB0
74000BF0
740003F0
740001F0
740000A0
ENDCHAR
STARTCHAR O
ENCODING 79
SWIDTH 553 0
DWIDTH 18 0
BBX 14 20 2 0
BITMAP
06FFF900
2E956F40
780003C0
B00001D0
B00001D0
B00001D0
B00001D0
B00001D0
B00001D0
B00001D0
B00001D0
B00001D0
B00001D0
B00001D0
B00001D0
B00001D0
B00001D0
780003C0
2E556F40
06FFF900
ENDCHAR
STARTCHAR P
ENCODING 80
SWIDTH 524 0
DWIDTH 17 0
BBX 13 20 2 0
BITMAP
7FFFF800
79556F00
74000780
74000380
740002C0
740002C0
740002C0
740002C0
740002C0
74000380
74001F40
7FFFFD00
79555000
74000000
74000000
74000000
74000000
74000000
74000000
74000000
ENDCHAR
STARTCHAR Q
ENCODING 81
SWIDTH 556 0
DWIDTH 18 0
BBX 14 24 2 -4
BITMAP
06FFF900
2E956F40
780003C0
740001D0
B00001D0
B00001D0
B00001D0
B00001D0
B00001D0
B00001D0
B00001D0
B00001D0
B00001D0
B00001D0
B00001D0
B00001D0
740001D0
780002C0
2E956F40
06FFF900
0001D000
0000B000
00003800
00001D00
ENDCHAR
STARTCHAR R
ENCODING 82
SWIDTH 534 0
DWIDTH 17 0
BBX 14 20 2 0
BITMAP
7FFFF800
79556F00
74000780
74000380
740002C0
740002C0
740002C0
74000280
74000380
74005F00
7FFFF900
7955E000
7400B000
74007400
74003C00
74001D00
74000F00
74000740
74000380
740002D0
ENDCHAR
STARTCHAR S
ENCODING 83
SWIDTH 562 0
DWIDTH 18 0
BBX 14 20 2 0
BITMAP
06FFF900
1F956F40
380003C0
740001D0
740001D0
74000090
74000000
38000000
2F400000
06FE5000
001AFD00
00001F40
000002C0
000001D0
700001D0
740001D0
740001D0
380002C0
1F956F40
06FFF900
ENDCHAR
STARTCHAR T
ENCODING 84
SWIDTH 420 0
DWIDTH 13 0
BBX 13 20 0 0
BITMAP
7FFFFF80
155E5540
000E0000
000E0000
000E0000
000E0000
000E0000
000E0000
000E0000
000E0000
000E0000
000E0000
000E0000
000E0000
000E0000
000E0000
000E0000
000E0000
000E0000
000D0000
ENDCHAR
STARTCHAR U
ENCODING 85
SWIDTH 552 0
DWIDTH 18 0
BBX 13 20 2 0
BITMAP
700001C0
700002C0
700002C0
700002C0
700002C0
700002C0
700002C0
700002C0
700002C0
700002C0
700002C0
700002C0
700002C0
700002C0
700002C0
740002C0
740002C0
38000380
2F956F40
06FFF900
ENDCHAR
STARTCHAR V
ENCODING 86
SWIDTH 500 0
DWIDTH 16 0
BBX 14 20 1 0
BITMAP
E00000B0
B00000E0
740001D0
380002C0
3C0003C0
2C000380
1D000740
0E000B00
0B000E00
07401D00
03802C00
02C03800
01D07400
00E0B000
00B0E000
0070D000
0035C000
002A8000
002F8000
001F4000
ENDCHAR
STARTCHAR W
ENCODING 87
SWIDTH 794 0
DWIDTH 25 0
BBX 24 20 1 0
BITMAP
E0000780001D
B0000BC0002C
74000ED0003C
74001DE00038
38001CB00074
2C00287000B4
2C00343400B0
1D00742800E0
0E00B02C00E0
0E00E01D01D0
0B00D00E02C0
0741C00A02C0
074280070380
038380034740
028740038740
02C70002CB00
01DA0001CE00
00ED0000DD00
00FD0000BD00
00BC0000BC00
ENDCHAR
STARTCHAR X
ENCODING 88
SWIDTH 504 0
DWIDTH 16 0
BBX 14 20 1 0
BITMAP
740001E0
3C0002C0
1D000740
0B000E00
03802D00
01D03800
00F0B000
0075D000
002F8000
001F4000
002F8000
0079D000
00B0F000
01D07400
03802C00
07400E00
0E000B40
2C000380
780001D0
B00000B0
ENDCHAR
STARTCHAR Y
ENCODING 89
SWIDTH 493 0
DWIDTH 16 0
BBX 14 20 1 0
BITMAP
E00000E0
B40002D0
38000380
2D000740
0E000E00
0B401D00
03803800
01D07400
00E0E000
0075D000
003B8000
001F4000
000E0000
000E0000
000E0000
000E0000
000E0000
000E0000
000E0000
000E0000
ENDCHAR
STARTCHAR Z
ENCODING 90
SWIDTH 482 0
DWIDTH 15 0
BBX 13 20 1 0
BITMAP
7FFFFF80
15555B80
00000B40
00001E00
00003C00
0000B400
0001E000
0002C000
00078000
000F0000
002D0000
00780000
00F00000
02D00000
07800000
0B400000
1E000000
3C000000
B9555540
BFFFFFC0
ENDCHAR
STARTCHAR bracketleft
ENCODING 91
SWIDTH 287 0
DWIDTH 9 0
BBX 5 24 2 -4
BITMAP
FFC0
E540
D000
D000
D000
D000
D000
D000
D000
D000
D000
D000
D000
D000
D000
D000
D000
D000
D000
D000
D000
E000
FFC0
5540
ENDCHAR
STARTCHAR backslash
ENCODING 92
SWIDTH 396 0
DWIDTH 13 0
BBX 9 20 2 0
BITMAP
E00000
B00000
740000
380000
2D0000
0E0000
0B0000
074000
038000
02C000
01D000
00E000
00B000
007400
003C00
001D00
000E00
000B00
000740
000380
ENDCHAR
STARTCHAR bracketright
ENCODING 93
SWIDTH 287 0
DWIDTH 9 0
BBX 5 24 2 -4
BITMAP
FFC0
56C0
02C0
02C0
02C0
02C0
02C0
02C0
02C0
02C0
02C0
02C0
02C0
02C0
02C0
02C0
02C0
02C0
02C0
02C0
02C0
02C0
FFC0
5540
ENDCHAR
STARTCHAR asciicircum
ENCODING 94
SWIDTH 465 0
DWIDTH 15 0
BBX 11 9 2 11
BITMAP
00B800
01ED00
038B00
070740
0E02C0
2C01D0
3800B0
B00074
D0002C
ENDCHAR
STARTCHAR underscore
ENCODING 95
SWIDTH 372 0
DWIDTH 12 0
BBX 12 2 0 -4
BITMAP
FFFFFF
555555
ENDCHAR
STARTCHAR grave
ENCODING 96
SWIDTH 269 0
DWIDTH 9 0
BBX 5 4 2 18
BITMAP
B400
2C00
0E00
0340
ENDCHAR
STARTCHAR a
ENCODING 97
SWIDTH 502 0
DWIDTH 16 0
BBX 12 16 2 0
BITMAP
0BFFFE
3E555E
B4000E
B0000E
E0000E
E0000E
E0000E
E0000E
E0000E
E0000E
E0000E
E0000E
B0000E
B4002E
3E56AE
0BFF8E
ENDCHAR
STARTCHAR b
ENCODING 98
SWIDTH 504 0
DWIDTH 16 0
BBX 12 22 2 0
BITMAP
B00000
B00000
B00000
B00000
B00000
B00000
B2FFE0
BB95BC
B8001E
B0000B
B0000B
B0000B
B0000B
B0000B
B0000B
B0000B
B0000B
B0000B
B0000B
B0001E
B555BC
BFFFE0
ENDCHAR
STARTCHAR c
ENCODING 99
SWIDTH 394 0
DWIDTH 13 0
BBX 10 16 2 0
BITMAP
0BFFD0
3E5550
B40000
B00000
E00000
E00000
E00000
E00000
E00000
E00000
E00000
E00000
B00000
B40000
3E5550
0BFFD0
ENDCHAR
STARTCHAR d
ENCODING 100
SWIDTH 504 0
DWIDTH 16 0
BBX 12 22 2 0
BITMAP
00000E
00000E
00000E
00000E
00000E
00000E
0BFF8E
3E56AE
B4002E
B0000E
E0000E
E0000E
E0000E
E0000E
E0000E
E0000E
E0000E
E0000E
B0000E
B4002E
3E56BE
0BFF8E
ENDCHAR
STARTCHAR e
ENCODING 101
SWIDTH 492 0
DWIDTH 16 0
BBX 12 16 2 0
BITMAP
0BFFE0
3E55B8
B4001D
B0000E
E0000A
E0000A
E0000A
E0000A
FFFFFE
E55555
E00000
E00000
A00000
B40000
3E5555
0BFFFE
ENDCHAR
STARTCHAR f
ENCODING 102
SWIDTH 303 0
DWIDTH 10 0
BBX 8 22 1 0
BITMAP
006F
01E9
03C0
0380
0340
0740
BFFF
5B95
0340
0340
0340
0340
0340
0340
0340
0340
0340
0340
0340
0340
0340
0340
ENDCHAR
STARTCHAR g
ENCODING 103
SWIDTH 506 0
DWIDTH 16 0
BBX 12 20 2 -4
BITMAP
0BFFFE
3E555E
74000A
B0000A
A0000A
A0000A
A0000A
A0000A
A0000A
A0000A
B0000E
B4001E
3D417E
1FFFDA
01550A
00000E
00000E
00001D
1555B8
2FFFE0
ENDCHAR
STARTCHAR h
ENCODING 104
SWIDTH 507 0
DWIDTH 16 0
BBX 12 22 2 0
BITMAP
B00000
B00000
B00000
B00000
B00000
B00000
B2FFE0
BB95BC
B8001E
B4000B
B0000B
B0000B
B0000B
B0000B
B0000B
B0000B
B0000B
B0000B
B0000B
B0000B
B0000B
B0000B
ENDCHAR
STARTCHAR i
ENCODING 105
SWIDTH 210 0
DWIDTH 7 0
BBX 2 22 2 0
BITMAP
70
70
70
70
00
00
70
70
70
70
70
70
70
70
70
70
70
70
70
70
70
70
ENDCHAR
STARTCHAR j
ENCODING 106
SWIDTH 210 0
DWIDTH 7 0
BBX 6 26 -2 -4
BITMAP
0070
0070
0070
0070
0000
0000
0070
0070
0070
0070
0070
0070
0070
0070
0070
0070
0070
0070
0070
0070
0070
0070
00B0
00E0
5BD0
BE40
ENDCHAR
STARTCHAR k
ENCODING 107
SWIDTH 431 0
DWIDTH 14 0
BBX 12 22 2 0
BITMAP
B00000
B00000
B00000
B00000
B00000
B00000
B00078
B000B0
B002D0
B00780
B00B00
B02D00
B07800
B0B000
B0B400
B02C00
B00E00
B00740
B002C0
B000E0
B00078
B0002D
ENDCHAR
STARTCHAR l
ENCODING 108
SWIDTH 210 0
DWIDTH 7 0
BBX 2 22 2 0
BITMAP
70
70
70
70
70
70
70
70
70
70
70
70
70
70
70
70
70
70
70
70
70
70
ENDCHAR
STARTCHAR m
ENCODING 109
SWIDTH 769 0
DWIDTH 25 0
BBX 21 16 2 0
BITMAP
B2FF906FE400
BB96F6E5BD00
B8003F000F00
B4002D000740
B0001D000740
B0001D000740
B0001D000740
B0001D000740
B0001D000740
B0001D000740
B0001D000740
B0001D000740
B0001D000740
B0001D000740
B0001D000740
B0001D000740
ENDCHAR
STARTCHAR n
ENCODING 110
SWIDTH 507 0
DWIDTH 16 0
BBX 12 16 2 0
BITMAP
B2FFE0
BB95BC
B8001E
B4000B
B0000B
B0000B
B0000B
B0000B
B0000B
B0000B
B0000B
B0000B
B0000B
B0000B
B0000B
B0000B
ENDCHAR
STARTCHAR o
ENCODING 111
SWIDTH 496 0
DWIDTH 16 0
BBX 12 16 2 0
BITMAP
0BFFE0
3E55B8
B4001D
B0000E
E0000A
E0000A
E0000A
E0000A
E0000A
E0000A
E0000A
E0000A
B0000E
B4001D
3E55B8
0BFFE0
ENDCHAR
STARTCHAR p
ENCODING 112
SWIDTH 504 0
DWIDTH 16 0
BBX 12 20 2 -4
BITMAP
B2FFE0
BB95BC
B8001E
B4000B
B0000B
B0000B
B0000B
B0000B
B0000B
B0000B
B0000B
B0000B
B4000B
B8001E
BB95BC
B2FFE0
B00000
B00000
B00000
B00000
ENDCHAR
STARTCHAR q
ENCODING 113
SWIDTH 502 0
DWIDTH 16 0
BBX 12 20 2 -4
BITMAP
0BFFFE
3E555E
B4000E
B0000E
E0000E
E0000E
E0000E
E0000E
E0000E
E0000E
E0000E
E0000E
B0000E
B4002E
3E56EE
0BFF8E
00000E
00000E
00000E
00000E
ENDCHAR
STARTCHAR r
ENCODING 114
SWIDTH 313 0
DWIDTH 10 0
BBX 7 16 2 0
BITMAP
B1FC
BB94
B800
B400
B000
B000
B000
B000
B000
B000
B000
B000
B000
B000
B000
B000
ENDCHAR
STARTCHAR s
ENCODING 115
SWIDTH 431 0
DWIDTH 14 0
BBX 11 16 1 0
BITMAP
0BFFF4
2E5550
780000
740000
740000
3C0000
1F9000
01BE00
001BE0
0000B8
00002C
00002C
00002C
00003C
1556F4
7FFF90
ENDCHAR
STARTCHAR t
ENCODING 116
SWIDTH 347 0
DWIDTH 11 0
BBX 10 19 0 0
BITMAP
02C000
02C000
02C000
7FFFD0
16D550
02C000
02C000
02C000
02C000
02C000
02C000
02C000
02C000
02C000
02C000
02D000
01E000
00BA50
001BE0
ENDCHAR
STARTCHAR u
ENCODING 117
SWIDTH 507 0
DWIDTH 16 0
BBX 12 16 2 0
BITMAP
A0000A
B0000A
B0000A
B0000A
B0000A
B0000A
B0000A
B0000A
B0000A
B0000A
B0000A
B0000A
B0000E
74001E
2E56BE
0BFF8A
ENDCHAR
STARTCHAR v
ENCODING 118
SWIDTH 416 0
DWIDTH 13 0
BBX 13 16 0 0
BITMAP
74000380
38000740
2C000B00
1D000E00
0E001D00
0B002C00
07403800
03407400
0280B000
01C0A000
00D0D000
00E1C000
00B28000
00774000
003F0000
002E0000
ENDCHAR
STARTCHAR w
ENCODING 119
SWIDTH 683 0
DWIDTH 22 0
BBX 21 16 0 0
BITMAP
74000F0002C0
38001F000380
2C002F400380
1D003A800740
0E0036C00B00
0A0071D00E00
0B00A0D01D00
0740D0A02C00
0381D0702800
02C1C0343400
01C280387400
00D34028B000
00A7001CE000
007B000ED000
007E000BC000
003D00078000
ENDCHAR
STARTCHAR x
ENCODING 120
SWIDTH 413 0
DWIDTH 13 0
BBX 12 16 1 0
BITMAP
B0003C
780074
2C00E0
0E02D0
0B4380
038B00
01DD00
00BC00
00BC00
01DE00
038740
0B03C0
1E01D0
3C00B0
740038
E0002D
ENDCHAR
STARTCHAR y
ENCODING 121
SWIDTH 459 0
DWIDTH 15 0
BBX 13 20 1 -4
BITMAP
E0000380
B0000740
74000B00
38000E00
2C001D00
1D002C00
0A003800
07407400
0380F000
02C1D000
01D2C000
00E38000
00B74000
007F0000
002E0000
001D0000
002C0000
00740000
16E00000
7F400000
ENDCHAR
STARTCHAR z
ENCODING 122
SWIDTH 405 0
DWIDTH 13 0
BBX 11 16 1 0
BITMAP
BFFFF8
5555B4
0000F0
0002D0
000780
000F00
002D00
007800
00B000
01D000
038000
0B4000
1E0000
3C0000
B95554
FFFFFC
ENDCHAR
STARTCHAR braceleft
ENCODING 123
SWIDTH 298 0
DWIDTH 10 0
BBX 7 24 1 -4
BITMAP
00B8
02E4
0740
0700
0700
0700
0700
0700
0700
0A00
1D00
F800
6D00
0A00
0B00
0700
0700
0700
0700
0700
0740
0390
01F8
0010
ENDCHAR
STARTCHAR bar
ENCODING 124
SWIDTH 207 0
DWIDTH 7 0
BBX 2 20 2 0
BITMAP
70
70
70
70
70
70
70
70
70
70
70
70
70
70
70
70
70
70
70
70
ENDCHAR
STARTCHAR braceright
ENCODING 125
SWIDTH 298 0
DWIDTH 10 0
BBX 7 24 1 -4
BITMAP
B800
6E00
0B00
0740
0340
0340
0340
0340
0340
0340
02D0
00B8
02D4
0380
0340
0340
0340
0340
0340
0740
0700
1E00
FC00
5000
ENDCHAR
STARTCHAR asciitilde
ENCODING 126
SWIDTH 523 0
DWIDTH 17 0
BBX 13 3 2 8
BITMAP
6FE94640
A56FFF40
00005400
ENDCHAR
STARTCHAR uni00A0
ENCODING 160
SWIDTH 267 0
DWIDTH 9 0
BBX 1 1 0 0
BITMAP
00
ENDCHAR
STARTCHAR exclamdown
ENCODING 161
SWIDTH 237 0
DWIDTH 8 0
BBX 2 20 3 0
BITMAP
E0
E0
E0
E0
00
00
90
D0
D0
E0
E0
E0
E0
E0
E0
E0
E0
E0
E0
E0
ENDCHAR
STARTCHAR cent
ENCODING 162
SWIDTH 414 0
DWIDTH 13 0
BBX 10 22 2 -3
BITMAP
001C00
001C00
001C00
0BFFF0
3E5550
B40000
B00000
E00000
E00000
E00000
E00000
E00000
E00000
E00000
E00000
B00000
B40000
3E5550
0BFFF0
001C00
001C00
001C00
ENDCHAR
STARTCHAR sterling
ENCODING 163
SWIDTH 528 0
DWIDTH 17 0
BBX 14 20 1 0
BITMAP
006FF900
02E96B80
078002D0
074001D0
0B0000E0
0B000050
0B000000
0B000000
0B000000
0B400000
FFFFE000
5B554000
0B000000
0B000000
0B000000
0B000000
0B000000
0B000000
6E555550
BFFFFFE0
ENDCHAR
STARTCHAR yen
ENCODING 165
SWIDTH 499 0
DWIDTH 16 0
BBX 14 20 1 0
BITMAP
E00000F0
740001D0
3C0003C0
1D000740
0F000E00
07401D00
03C03800
01D07400
00B0E000
BFF5FFE0
156F9540
001F0000
000E0000
BFFFFFE0
555F5550
000A0000
000A0000
000A0000
000A0000
000A0000
ENDCHAR
STARTCHAR brokenbar
ENCODING 166
SWIDTH 201 0
DWIDTH 6 0
BBX 2 20 2 0
BITMAP
70
B0
B0
B0
B0
B0
B0
70
00
00
00
00
70
B0
B0
B0
B0
B0
B0
70
ENDCHAR
STARTCHAR section
ENCODING 167
SWIDTH 454 0
DWIDTH 15 0
BBX 11 20 2 0
BITMAP
1BFFE0
7E5550
F00000
E00000
E00000
F00000
FE9000
D6FF80
D006F0
D00074
E00038
790038
1BFA78
005AF8
0000B8
000038
000038
000074
5556E0
BFFF80
ENDCHAR
STARTCHAR dieresis
ENCODING 168
SWIDTH 345 0
DWIDTH 11 0
BBX 7 4 2 18
BITMAP
E02C
E02C
E02C
E02C
ENDCHAR
STARTCHAR copyright
ENCODING 169
SWIDTH 723 0
DWIDTH 23 0
BBX 19 20 2 0
BITMAP
0BFFFFFF80
2E555556F0
7400000038
A000000028
A006FE4028
A01E56D018
A02800A018
A02800A018
A024005018
A024000018
A024000018
A024001018
A02400A018
A02800A018
A01D01D018
A007FF4028
A000000028
7400000038
2E555556F0
0BFFFFFF80
ENDCHAR
STARTCHAR guillemotleft
ENCODING 171
SWIDTH 431 0
DWIDTH 14 0
BBX 10 11 2 3
BITMAP
004010
01D0A0
0742C0
1D0B00
742C00
D07000
A07400
281D00
0A0740
0281D0
009060
ENDCHAR
STARTCHAR registered
ENCODING 174
SWIDTH 439 0
DWIDTH 14 0
BBX 10 11 2 11
BITMAP
1BFE40
7956D0
92F860
829C30
824C30
82F830
826430
920860
7401D0
2FFF80
015400
ENDCHAR
STARTCHAR macron
ENCODING 175
SWIDTH 358 0
DWIDTH 11 0
BBX 8 2 2 18
BITMAP
FFFD
5554
ENDCHAR
STARTCHAR degree
ENCODING 176
SWIDTH 298 0
DWIDTH 10 0
BBX 5 7 2 15
BITMAP
7F80
76C0
A0C0
A0C0
61C0
7F80
1500
ENDCHAR
STARTCHAR plusminus
ENCODING 177
SWIDTH 523 0
DWIDTH 17 0
BBX 13 13 2 3
BITMAP
001C0000
001C0000
001C0000
001D0000
BFFFFF40
556D5500
001C0000
001C0000
001C0000
00000000
00000000
BFFFFF40
55555500
ENDCHAR
STARTCHAR acute
ENCODING 180
SWIDTH 269 0
DWIDTH 9 0
BBX 5 4 2 18
BITMAP
0B40
1D00
3800
A000
ENDCHAR
STARTCHAR paragraph
ENCODING 182
SWIDTH 513 0
DWIDTH 16 0
BBX 13 20 1 0
BITMAP
0BFFFF80
2FF55780
7FF00280
7FF00280
7FF00280
7FF00280
7FF00280
7FF00280
2FF00280
0BF00280
00B00280
00B00280
00B00280
00B00280
00B00280
00B00280
00B00280
00B00280
00B00280
00700280
ENDCHAR
STARTCHAR periodcentered
ENCODING 183
SWIDTH 207 0
DWIDTH 7 0
BBX 3 4 2 8
BITMAP
B0
B4
B4
B0
ENDCHAR
STARTCHAR cedilla
ENCODING 184
SWIDTH 257 0
DWIDTH 8 0
BBX 4 8 2 -7
BITMAP
04
1C
70
B9
07
07
BE
50
ENDCHAR
STARTCHAR guillemotright
ENCODING 187
SWIDTH 431 0
DWIDTH 14 0
BBX 10 11 2 3
BITMAP
404000
D07000
782C00
1E0B00
0782C0
01D0A0
01C0E0
0B4380
2D0E00
B43800
D06000
ENDCHAR
STARTCHAR questiondown
ENCODING 191
SWIDTH 473 0
DWIDTH 15 0
BBX 11 20 2 0
BITMAP
00B400
00B400
00B400
00B400
000000
000000
007000
007000
00B000
00E000
02C000
1F0000
380000
B40000
B0002C
B0002C
B00038
740074
2E56F0
0BFF80
ENDCHAR
STARTCHAR Agrave
ENCODING 192
SWIDTH 532 0
DWIDTH 17 0
BBX 15 27 1 0
BITMAP
00900000
00B40000
00380000
001D0000
000A0000
00000000
00000000
000B8000
000FC000
001DD000
002CE000
0038B000
00747400
00B03800
00E02C00
01D01D00
02C00E00
03800B00
07400740
0B000380
0FFFFFC0
1D5555D0
2C0000E0
380000B0
74000074
B0000038
E000002C
ENDCHAR
STARTCHAR Aacute
ENCODING 193
SWIDTH 532 0
DWIDTH 17 0
BBX 15 27 1 0
BITMAP
00001900
00007C00
0000B400
0001D000
00028000
00000000
00000000
000B8000
000FC000
001DD000
002CE000
0038B000
00747400
00B03800
00E02C00
01D01D00
02C00E00
03800B00
07400740
0B000380
0FFFFFC0
1D5555D0
2C0000E0
380000B0
74000074
B0000038
E000002C
ENDCHAR
STARTCHAR Acircumflex
ENCODING 194
SWIDTH 532 0
DWIDTH 17 0
BBX 15 27 1 0
BITMAP
00054000
000AC000
001CD000
00347000
00703400
00000000
00000000
000B8000
000FC000
001DD000
002CE000
0038B000
00747400
00B03800
00E02C00
01D01D00
02C00E00
03800B00
07400740
0B000380
0FFFFFC0
1D5555D0
2C0000E0
380000B0
74000074
B0000038
E000002C
ENDCHAR
STARTCHAR Atilde
ENCODING 195
SWIDTH 532 0
DWIDTH 17 0
BBX 15 26 1 0
BITMAP
00C1F400
00C2AC00
00970C00
007D0C00
00000000
00000000
000B8000
000FC000
001DD000
002CE000
0038B000
00747400
00B03800
00E02C00
01D01D00
02C00E00
03800B00
07400740
0B000380
0FFFFFC0
1D5555D0
2C0000E0
380000B0
74000074
B0000038
E000002C
ENDCHAR
STARTCHAR Adieresis
ENCODING 196
SWIDTH 532 0
DWIDTH 17 0
BBX 15 26 1 0
BITMAP
00E02C00
00E02C00
00E02C00
00E02C00
00000000
00000000
000B8000
000FC000
001DD000
002CE000
0038B000
00747400
00B03800
00E02C00
01D01D00
02C00E00
03800B00
07400740
0B000380
0FFFFFC0
1D5555D0
2C0000E0
380000B0
74000074
B0000038
E000002C
ENDCHAR
STARTCHAR Aring
ENCODING 197
SWIDTH 532 0
DWIDTH 17 0
BBX 15 28 1 0
BITMAP
001FD000
0039B000
00303000
00303000
00347000
002FE000
00050000
00000000
000B8000
000FC000
001DD000
002CE000
0038B000
00747400
00B03800
00E02C00
01D01D00
02C00E00
03800B00
07400740
0B000380
0FFFFFC0
1D5555D0
2C0000E0
380000B0
74000074
B0000038
E000002C
ENDCHAR
STARTCHAR AE
ENCODING 198
SWIDTH 773 0
DWIDTH 25 0
BBX 23 20 0 0
BITMAP
000007FFFFF8
00000BF55554
00001DE00000
00003CE00000
000074E00000
0000E0E00000
0002D0E00000
000380E00000
000B00E00000
001D00FFFFE0
002800E55550
007400E00000
00E000E00000
01FFFFE00000
039555E00000
0B0000E00000
1E0000E00000
2C0000E00000
740000F55554
B00000FFFFF8
ENDCHAR
STARTCHAR Ccedilla
ENCODING 199
SWIDTH 542 0
DWIDTH 17 0
BBX 14 27 2 -7
BITMAP
06FFF900
2E956F40
780002C0
B00001D0
B00001D0
B00001D0
B0000040
B0000000
B0000000
B0000000
B0000000
B0000000
B0000000
B0000040
B00001D0
B00001D0
B00001D0
780002C0
2E556F40
06FFF900
000A0000
001D0000
001BC000
0000D000
0001D000
001F8000
00050000
ENDCHAR
STARTCHAR Egrave
ENCODING 200
SWIDTH 481 0
DWIDTH 15 0
BBX 12 27 2 0
BITMAP
064000
03C000
01E000
007400
002800
000000
000000
7FFFFD
795554
740000
740000
740000
740000
740000
740000
740000
7FFFF4
795550
740000
740000
740000
740000
740000
740000
740000
795554
7FFFFD
ENDCHAR
STARTCHAR Eacute
ENCODING 201
SWIDTH 481 0
DWIDTH 15 0
BBX 12 27 2 0
BITMAP
000190
0003C0
000B40
000D00
002800
000000
000000
7FFFFD
795554
740000
740000
740000
740000
740000
740000
740000
7FFFF4
795550
740000
740000
740000
740000
740000
740000
740000
795554
7FFFFD
ENDCHAR
STARTCHAR Ecircumflex
ENCODING 202
SWIDTH 481 0
DWIDTH 15 0
BBX 12 27 2 0
BITMAP
001400
007D00
00D700
01C340
0341C0
000000
000000
7FFFFD
795554
740000
740000
740000
740000
740000
740000
740000
7FFFF4
795550
740000
740000
740000
740000
740000
740000
740000
795554
7FFFFD
ENDCHAR
STARTCHAR Edieresis
ENCODING 203
SWIDTH 481 0
DWIDTH 15 0
BBX 12 26 2 0
BITMAP
0700D0
0741D0
0741D0
0700D0
000000
000000
7FFFFD
795554
740000
740000
740000
740000
740000
740000
740000
7FFFF4
795550
740000
740000
740000
740000
740000
740000
740000
795554
7FFFFD
ENDCHAR
STARTCHAR Igrave
ENCODING 204
SWIDTH 230 0
DWIDTH 7 0
BBX 5 27 0 0
BITMAP
5000
B400
2C00
0E00
0700
0000
0000
0340
0340
0340
0340
0340
0340
0340
0340
0340
0340
0340
0340
0340
0340
0340
0340
0340
0340
0340
0340
ENDCHAR
STARTCHAR Iacute
ENCODING 205
SWIDTH 231 0
DWIDTH 7 0
BBX 5 27 3 0
BITMAP
0640
0F00
2D00
7400
A000
0000
0000
D000
D000
D000
D000
D000
D000
D000
D000
D000
D000
D000
D000
D000
D000
D000
D000
D000
D000
D000
D000
ENDCHAR
STARTCHAR Icircumflex
ENCODING 206
SWIDTH 229 0
DWIDTH 7 0
BBX 7 27 0 0
BITMAP
0140
0AC0
1CA0
2870
7028
0000
0000
0340
0340
0340
0340
0340
0340
0340
0340
0340
0340
0340
0340
0340
0340
0340
0340
0340
0340
0340
0340
ENDCHAR
STARTCHAR Idieresis
ENCODING 207
SWIDTH 230 0
DWIDTH 7 0
BBX 7 26 0 0
BITMAP
A01C
B02C
B02C
A01C
0000
0000
0340
0340
0340
0340
0340
0340
0340
0340
0340
0340
0340
0340
0340
0340
0340
0340
0340
0340
0340
0340
ENDCHAR
STARTCHAR Eth
ENCODING 208
SWIDTH 514 0
DWIDTH 16 0
BBX 16 20 0 0
BITMAP
03FFFF90
079556B8
0740002C
0740001D
0740000E
0740000E
0740000E
0740000E
0780000E
7FFFE00E
1795500E
0740000E
0740000E
0740000E
0740000E
0740000E
0740001D
0740002C
079556B8
03FFFF90
ENDCHAR
STARTCHAR Ntilde
ENCODING 209
SWIDTH 579 0
DWIDTH 19 0
BBX 14 26 2 0
BITMAP
00C2F400
00C36800
00DA1800
00BD1800
00100400
00000000
740000A0
7C0000B0
7E0000B0
7F4000B0
77C000B0
75D000B0
74B000B0
743800B0
742D00B0
740E00B0
740740B0
7402C0B0
7400E0B0
740074B0
740038B0
74001DB0
74000BF0
740003F0
740001F0
740000A0
ENDCHAR
STARTCHAR Ograve
ENCODING 210
SWIDTH 553 0
DWIDTH 18 0
BBX 14 27 2 0
BITMAP
01400000
01E00000
00B40000
002C0000
000D0000
00000000
00000000
06FFF900
2E956F40
780003C0
B00001D0
B00001D0
B00001D0
B00001D0
B00001D0
B00001D0
B00001D0
B00001D0
B00001D0
B00001D0
B00001D0
B00001D0
B00001D0
B00001D0
780003C0
2E556F40
06FFF900
ENDCHAR
STARTCHAR Oacute
ENCODING 211
SWIDTH 553 0
DWIDTH 18 0
BBX 14 27 2 0
BITMAP
00006000
0001E000
0002C000
00074000
000A0000
00000000
00000000
06FFF900
2E956F40
780003C0
B00001D0
B00001D0
B00001D0
B00001D0
B00001D0
B00001D0
B00001D0
B00001D0
B00001D0
B00001D0
B00001D0
B00001D0
B00001D0
B00001D0
780003C0
2E556F40
06FFF900
ENDCHAR
STARTCHAR Ocircumflex
ENCODING 212
SWIDTH 553 0
DWIDTH 18 0
BBX 14 27 2 0
BITMAP
00050000
001F4000
00368000
00A0D000
00D0A000
00000000
00000000
06FFF900
2E956F40
780003C0
B00001D0
B00001D0
B00001D0
B00001D0
B00001D0
B00001D0
B00001D0
B00001D0
B00001D0
B00001D0
B00001D0
B00001D0
B00001D0
B00001D0
780003C0
2E556F40
06FFF900
ENDCHAR
STARTCHAR Otilde
ENCODING 213
SWIDTH 553 0
DWIDTH 18 0
BBX 14 26 2 0
BITMAP
0243E000
024A7000
029D2400
01F82400
00101000
00000000
06FFF900
2E956F40
780003C0
B00001D0
B00001D0
B00001D0
B00001D0
B00001D0
B00001D0
B00001D0
B00001D0
B00001D0
B00001D0
B00001D0
B00001D0
B00001D0
B00001D0
780003C0
2E556F40
06FFF900
ENDCHAR
STARTCHAR Odieresis
ENCODING 214
SWIDTH 553 0
DWIDTH 18 0
BBX 14 26 2 0
BITMAP
02C07400
02C07400
02C07400
02C07400
00000000
00000000
06FFF900
2E956F40
780003C0
B00001D0
B00001D0
B00001D0
B00001D0
B00001D0
B00001D0
B00001D0
B00001D0
B00001D0
B00001D0
B00001D0
B00001D0
B00001D0
B00001D0
780003C0
2E556F40
06FFF900
ENDCHAR
STARTCHAR multiply
ENCODING 215
SWIDTH 493 0
DWIDTH 16 0
BBX 10 10 3 5
BITMAP
A000D0
7803D0
1E0F40
07BD00
02F400
03F800
0F5E00
3D0780
B401E0
500040
ENDCHAR
STARTCHAR Oslash
ENCODING 216
SWIDTH 559 0
DWIDTH 18 0
BBX 15 20 1 0
BITMAP
01BFFE48
0BA55AEC
1E0000B4
1D0000F4
2C0002F4
2C000774
2C001D74
2C003874
2C00A074
2C01C074
2C074074
2C0E0074
2C280074
2C700074
2DD00074
2F800074
1E000074
1E0000B0
3B955BD0
61BFFE40
ENDCHAR
STARTCHAR Ugrave
ENCODING 217
SWIDTH 552 0
DWIDTH 18 0
BBX 13 27 2 0
BITMAP
01900000
00F00000
00740000
002C0000
000A0000
00000000
00000000
700001C0
700002C0
700002C0
700002C0
700002C0
700002C0
700002C0
700002C0
700002C0
700002C0
700002C0
700002C0
700002C0
700002C0
700002C0
740002C0
740002C0
38000380
2F956F40
06FFF900
ENDCHAR
STARTCHAR Uacute
ENCODING 218
SWIDTH 552 0
DWIDTH 18 0
BBX 13 27 2 0
BITMAP
00006400
0001F000
0002D000
00074000
000A0000
00000000
00000000
700001C0
700002C0
700002C0
700002C0
700002C0
700002C0
700002C0
700002C0
700002C0
700002C0
700002C0
700002C0
700002C0
700002C0
700002C0
740002C0
740002C0
38000380
2F956F40
06FFF900
ENDCHAR
STARTCHAR Ucircumflex
ENCODING 219
SWIDTH 552 0
DWIDTH 18 0
BBX 13 27 2 0
BITMAP
00050000
001F4000
00368000
00A0D000
00D0A000
00000000
00000000
700001C0
700002C0
700002C0
700002C0
700002C0
700002C0
700002C0
700002C0
700002C0
700002C0
700002C0
700002C0
700002C0
700002C0
700002C0
740002C0
740002C0
38000380
2F956F40
06FFF900
ENDCHAR
STARTCHAR Udieresis
ENCODING 220
SWIDTH 552 0
DWIDTH 18 0
BBX 13 26 2 0
BITMAP
02C07400
02C07400
02C07400
02C07400
00000000
00000000
700001C0
700002C0
700002C0
700002C0
700002C0
700002C0
700002C0
700002C0
700002C0
700002C0
700002C0
700002C0
700002C0
700002C0
700002C0
740002C0
740002C0
38000380
2F956F40
06FFF900
ENDCHAR
STARTCHAR Yacute
ENCODING 221
SWIDTH 493 0
DWIDTH 16 0
BBX 14 27 1 0
BITMAP
00006400
0000F000
0002D000
00034000
000A0000
00000000
00000000
E00000E0
B40002D0
38000380
2D000740
0E000E00
0B401D00
03803800
01D07400
00E0E000
0075D000
003B8000
001F4000
000E0000
000E0000
000E0000
000E0000
000E0000
000E0000
000E0000
000E0000
ENDCHAR
STARTCHAR Thorn
ENCODING 222
SWIDTH 501 0
DWIDTH 16 0
BBX 11 20 3 0
BITMAP
740000
740000
740000
740000
7FFF80
7956E0
740074
740038
740038
740028
740028
740028
740038
740078
7405F0
7FFF90
795400
740000
740000
740000
ENDCHAR
STARTCHAR germandbls
ENCODING 223
SWIDTH 540 0
DWIDTH 17 0
BBX 13 20 2 0
BITMAP
06FFF800
2F956E00
38000740
74000380
70000380
70000380
70000380
70000740
70005E00
701FF800
70056E00
70000780
700002C0
700002C0
700002C0
700002C0
700002C0
70000780
70156F00
702FF800
ENDCHAR
STARTCHAR agrave
ENCODING 224
SWIDTH 502 0
DWIDTH 16 0
BBX 12 22 2 0
BITMAP
01E000
00B400
002800
000D00
000000
000000
0BFFFE
3E555E
B4000E
B0000E
E0000E
E0000E
E0000E
E0000E
E0000E
E0000E
E0000E
E0000E
B0000E
B4002E
3E56AE
0BFF8E
ENDCHAR
STARTCHAR aacute
ENCODING 225
SWIDTH 502 0
DWIDTH 16 0
BBX 12 22 2 0
BITMAP
0001E0
0003C0
000B00
001D00
000000
000000
0BFFFE
3E555E
B4000E
B0000E
E0000E
E0000E
E0000E
E0000E
E0000E
E0000E
E0000E
E0000E
B0000E
B4002E
3E56AE
0BFF8E
ENDCHAR
STARTCHAR acircumflex
ENCODING 226
SWIDTH 502 0
DWIDTH 16 0
BBX 12 22 2 0
BITMAP
002D00
007700
00D280
01C0D0
000000
000000
0BFFFE
3E555E
B4000E
B0000E
E0000E
E0000E
E0000E
E0000E
E0000E
E0000E
E0000E
E0000E
B0000E
B4002E
3E56AE
0BFF8E
ENDCHAR
STARTCHAR atilde
ENCODING 227
SWIDTH 504 0
DWIDTH 16 0
BBX 12 22 2 0
BITMAP
0243E0
024AB0
024C30
01F430
000000
000000
0BFFFE
3E555E
B4000E
B0000E
E0000E
E0000E
E0000E
E0000E
E0000E
E0000E
E0000E
E0000E
B0000E
B4002E
3E56AE
0BFF8E
ENDCHAR
STARTCHAR adieresis
ENCODING 228
SWIDTH 502 0
DWIDTH 16 0
BBX 12 22 2 0
BITMAP
0280B0
0380B0
0380B0
0280B0
000000
000000
0BFFFE
3E555E
B4000E
B0000E
E0000E
E0000E
E0000E
E0000E
E0000E
E0000E
E0000E
E0000E
B0000E
B4002E
3E56AE
0BFF8E
ENDCHAR
STARTCHAR aring
ENCODING 229
SWIDTH 502 0
DWIDTH 16 0
BBX 12 23 2 0
BITMAP
00BF40
01D680
014180
014180
019280
00FF40
001400
0BFFFE
3E555E
B4000E
B0000E
E0000E
E0000E
E0000E
E0000E
E0000E
E0000E
E0000E
E0000E
B0000E
B4002E
3E56AE
0BFF8E
ENDCHAR
STARTCHAR ae
ENCODING 230
SWIDTH 795 0
DWIDTH 25 0
BBX 22 16 2 0
BITMAP
1FFF90BFF900
0556B6E56B40
00002F4002C0
00000E0001D0
00000E0000D0
00001E0000D0
0BFFFE0000D0
3E555E0001D0
B4000FFFFFD0
E0000E555540
E0000E000000
E0000E000000
E0001E000000
B4002F400000
3E56F7E55540
0BFF90BFFFD0
ENDCHAR
STARTCHAR ccedilla
ENCODING 231
SWIDTH 394 0
DWIDTH 13 0
BBX 10 23 2 -7
BITMAP
0BFFD0
3E5550
B40000
B00000
E00000
E00000
E00000
E00000
E00000
E00000
E00000
E00000
B00000
B40000
3E5550
0BFFD0
002400
00A400
00AE00
000300
000700
00BE00
005000
ENDCHAR
STARTCHAR egrave
ENCODING 232
SWIDTH 492 0
DWIDTH 16 0
BBX 12 22 2 0
BITMAP
078000
01D000
00B000
002800
000000
000000
0BFFE0
3E55B8
B4001D
B0000E
E0000A
E0000A
E0000A
E0000A
FFFFFE
E55555
E00000
E00000
A00000
B40000
3E5555
0BFFFE
ENDCHAR
STARTCHAR eacute
ENCODING 233
SWIDTH 492 0
DWIDTH 16 0
BBX 12 22 2 0
BITMAP
0003C0
000B40
001D00
003400
000000
000000
0BFFE0
3E55B8
B4001D
B0000E
E0000A
E0000A
E0000A
E0000A
FFFFFE
E55555
E00000
E00000
A00000
B40000
3E5555
0BFFFE
ENDCHAR
STARTCHAR ecircumflex
ENCODING 234
SWIDTH 492 0
DWIDTH 16 0
BBX 12 22 2 0
BITMAP
003C00
00AA00
01C340
0341C0
000000
000000
0BFFE0
3E55B8
B4001D
B0000E
E0000A
E0000A
E0000A
E0000A
FFFFFE
E55555
E00000
E00000
A00000
B40000
3E5555
0BFFFE
ENDCHAR
STARTCHAR edieresis
ENCODING 235
SWIDTH 492 0
DWIDTH 16 0
BBX 12 22 2 0
BITMAP
0700D0
0701D0
0701D0
0700D0
000000
000000
0BFFE0
3E55B8
B4001D
B0000E
E0000A
E0000A
E0000A
E0000A
FFFFFE
E55555
E00000
E00000
A00000
B40000
3E5555
0BFFFE
ENDCHAR
STARTCHAR igrave
ENCODING 236
SWIDTH 210 0
DWIDTH 7 0
BBX 5 22 -1 0
BITMAP
7800
1E00
0B00
0280
0000
0000
01C0
01C0
01C0
01C0
01C0
01C0
01C0
01C0
01C0
01C0
01C0
01C0
01C0
01C0
01C0
01C0
ENDCHAR
STARTCHAR iacute
ENCODING 237
SWIDTH 208 0
DWIDTH 7 0
BBX 5 22 2 0
BITMAP
07C0
0B00
1D00
3400
0000
0000
7000
7000
7000
7000
7000
7000
7000
7000
7000
7000
7000
7000
7000
7000
7000
7000
ENDCHAR
STARTCHAR icircumflex
ENCODING 238
SWIDTH 210 0
DWIDTH 7 0
BBX 7 22 0 0
BITMAP
0B40
1DC0
34A0
A034
0000
0000
0700
0700
0700
0700
0700
0700
0700
0700
0700
0700
0700
0700
0700
0700
0700
0700
ENDCHAR
STARTCHAR idieresis
ENCODING 239
SWIDTH 210 0
DWIDTH 7 0
BBX 7 22 0 0
BITMAP
E028
E028
E028
D028
0000
0000
0700
0700
0700
0700
0700
0700
0700
0700
0700
0700
0700
0700
0700
0700
0700
0700
ENDCHAR
STARTCHAR eth
ENCODING 240
SWIDTH 488 0
DWIDTH 16 0
BBX 12 22 2 0
BITMAP
074074
02C1D0
00FB40
007D00
00EE00
078780
0E01E0
000074
00002C
0BFF9D
3E55BE
B4002E
F0000E
E0000E
E0000E
E0000E
E0000E
E0000E
B0001E
B4002D
3E56B8
0BFF90
ENDCHAR
STARTCHAR ntilde
ENCODING 241
SWIDTH 507 0
DWIDTH 16 0
BBX 12 22 2 0
BITMAP
060B80
061DD0
076860
03F060
004000
000000
B2FFE0
BB95BC
B8001E
B4000B
B0000B
B0000B
B0000B
B0000B
B0000B
B0000B
B0000B
B0000B
B0000B
B0000B
B0000B
B0000B
ENDCHAR
STARTCHAR ograve
ENCODING 242
SWIDTH 496 0
DWIDTH 16 0
BBX 12 22 2 0
BITMAP
0B8000
02D000
00A000
003400
000000
000000
0BFFE0
3E55B8
B4001D
B0000E
E0000A
E0000A
E0000A
E0000A
E0000A
E0000A
E0000A
E0000A
B0000E
B4001D
3E55B8
0BFFE0
ENDCHAR
STARTCHAR oacute
ENCODING 243
SWIDTH 496 0
DWIDTH 16 0
BBX 12 22 2 0
BITMAP
0002D0
000780
000E00
001C00
000000
000000
0BFFE0
3E55B8
B4001D
B0000E
E0000A
E0000A
E0000A
E0000A
E0000A
E0000A
E0000A
E0000A
B0000E
B4001D
3E55B8
0BFFE0
ENDCHAR
STARTCHAR ocircumflex
ENCODING 244
SWIDTH 496 0
DWIDTH 16 0
BBX 12 22 2 0
BITMAP
007C00
00AA00
01C340
034280
000000
000000
0BFFE0
3E55B8
B4001D
B0000E
E0000A
E0000A
E0000A
E0000A
E0000A
E0000A
E0000A
E0000A
B0000E
B4001D
3E55B8
0BFFE0
ENDCHAR
STARTCHAR otilde
ENCODING 245
SWIDTH 496 0
DWIDTH 16 0
BBX 12 22 2 0
BITMAP
090B80
091DD0
067490
07E090
004040
000000
0BFFE0
3E55B8
B4001D
B0000E
E0000A
E0000A
E0000A
E0000A
E0000A
E0000A
E0000A
E0000A
B0000E
B4001D
3E55B8
0BFFE0
ENDCHAR
STARTCHAR odieresis
ENCODING 246
SWIDTH 496 0
DWIDTH 16 0
BBX 12 22 2 0
BITMAP
0701D0
0701D0
0701D0
0701D0
000000
000000
0BFFE0
3E55B8
B4001D
B0000E
E0000A
E0000A
E0000A
E0000A
E0000A
E0000A
E0000A
E0000A
B0000E
B4001D
3E55B8
0BFFE0
ENDCHAR
STARTCHAR divide
ENCODING 247
SWIDTH 510 0
DWIDTH 16 0
BBX 12 12 2 4
BITMAP
001800
002800
001800
000000
000000
BFFFFF
155555
000000
000000
001800
002800
001800
ENDCHAR
STARTCHAR oslash
ENCODING 248
SWIDTH 521 0
DWIDTH 17 0
BBX 15 16 1 0
BITMAP
01BFF800
0BA56F68
0E0003F0
1D0002C0
2C000BD0
2C0029D0
2C00A1D0
2C0381D0
2C0E01D0
2C3801D0
2DE001D0
2F8001D0
1E0002C0
7E0003C0
EB956F40
41BFF900
ENDCHAR
STARTCHAR ugrave
ENCODING 249
SWIDTH 507 0
DWIDTH 16 0
BBX 12 22 2 0
BITMAP
078000
02D000
00B000
002800
000000
000000
A0000A
B0000A
B0000A
B0000A
B0000A
B0000A
B0000A
B0000A
B0000A
B0000A
B0000A
B0000A
B0000E
74001E
2E56BE
0BFF8A
ENDCHAR
STARTCHAR uacute
ENCODING 250
SWIDTH 507 0
DWIDTH 16 0
BBX 12 22 2 0
BITMAP
0002E0
000780
000A00
001C00
000000
000000
A0000A
B0000A
B0000A
B0000A
B0000A
B0000A
B0000A
B0000A
B0000A
B0000A
B0000A
B0000A
B0000E
74001E
2E56BE
0BFF8A
ENDCHAR
STARTCHAR ucircumflex
ENCODING 251
SWIDTH 507 0
DWIDTH 16 0
BBX 12 22 2 0
BITMAP
003D00
00AA00
01C340
0341C0
000000
000000
A0000A
B0000A
B0000A
B0000A
B0000A
B0000A
B0000A
B0000A
B0000A
B0000A
B0000A
B0000A
B0000E
74001E
2E56BE
0BFF8A
ENDCHAR
STARTCHAR udieresis
ENCODING 252
SWIDTH 507 0
DWIDTH 16 0
BBX 12 22 2 0
BITMAP
0740D0
0740D0
0740D0
0740D0
000000
000000
A0000A
B0000A
B0000A
B0000A
B0000A
B0000A
B0000A
B0000A
B0000A
B0000A
B0000A
B0000A
B0000E
74001E
2E56BE
0BFF8A
ENDCHAR
STARTCHAR yacute
ENCODING 253
SWIDTH 459 0
DWIDTH 15 0
BBX 13 26 1 -4
BITMAP
0001F000
0002C000
00074000
000D0000
00000000
00000000
E0000380
B0000740
74000B00
38000E00
2C001D00
1D002C00
0A003800
07407400
0380F000
02C1D000
01D2C000
00E38000
00B74000
007F0000
002E0000
001D0000
002C0000
00740000
16E00000
7F400000
ENDCHAR
STARTCHAR thorn
ENCODING 254
SWIDTH 508 0
DWIDTH 16 0
BBX 13 26 2 -4
BITMAP
70000000
70000000
70000000
70000000
70000000
70000000
71FFE400
7B95BD00
78000E00
74000B00
70000700
70000740
70000740
70000740
70000740
70000740
70000740
70000700
74000B00
78000E00
7B95BD00
72FFE400
70000000
70000000
70000000
70000000
ENDCHAR
STARTCHAR ydieresis
ENCODING 255
SWIDTH 459 0
DWIDTH 15 0
BBX 13 26 1 -4
BITMAP
0380A000
0380A000
0380A000
0340A000
00000000
00000000
E0000380
B0000740
74000B00
38000E00
2C001D00
1D002C00
0A003800
07407400
0380F000
02C1D000
01D2C000
00E38000
00B74000
007F0000
002E0000
001D0000
002C0000
00740000
16E00000
7F400000
ENDCHAR
STARTCHAR Amacron
ENCODING 256
SWIDTH 532 0
DWIDTH 17 0
BBX 15 25 1 0
BITMAP
00FFFC00
00555400
00000000
00000000
00000000
000B8000
000FC000
001DD000
002CE000
0038B000
00747400
00B03800
00E02C00
01D01D00
02C00E00
03800B00
07400740
0B000380
0FFFFFC0
1D5555D0
2C0000E0
380000B0
74000074
B0000038
E000002C
ENDCHAR
STARTCHAR amacron
ENCODING 257
SWIDTH 502 0
DWIDTH 16 0
BBX 12 20 2 0
BITMAP
02FFF4
015550
000000
000000
0BFFFE
3E555E
B4000E
B0000E
E0000E
E0000E
E0000E
E0000E
E0000E
E0000E
E0000E
E0000E
B0000E
B4002E
3E56AE
0BFF8E
ENDCHAR
STARTCHAR Abreve
ENCODING 258
SWIDTH 532 0
DWIDTH 17 0
BBX 15 27 1 0
BITMAP
00501400
00A01800
00A02800
00747400
001FD000
00000000
00000000
000B8000
000FC000
001DD000
002CE000
0038B000
00747400
00B03800
00E02C00
01D01D00
02C00E00
03800B00
07400740
0B000380
0FFFFFC0
1D5555D0
2C0000E0
380000B0
74000074
B0000038
E000002C
ENDCHAR
STARTCHAR abreve
ENCODING 259
SWIDTH 502 0
DWIDTH 16 0
BBX 12 22 2 0
BITMAP
028060
018060
01D090
006F80
000000
000000
0BFFFE
3E555E
B4000E
B0000E
E0000E
E0000E
E0000E
E0000E
E0000E
E0000E
E0000E
E0000E
B0000E
B4002E
3E56AE
0BFF8E
ENDCHAR
STARTCHAR Aogonek
ENCODING 260
SWIDTH 532 0
DWIDTH 17 0
BBX 15 24 1 -4
BITMAP
000B8000
000FC000
001DD000
002CE000
0038B000
00747400
00B03800
00E02C00
01D01D00
02C00E00
03800B00
07400740
0B000380
0FFFFFC0
1D5555D0
2C0000E0
380000B0
74000074
B0000038
E000002C
00000060
00000180
000003F4
00000040
ENDCHAR
STARTCHAR aogonek
ENCODING 261
SWIDTH 502 0
DWIDTH 16 0
BBX 12 20 2 -4
BITMAP
0BFFFE
3E555E
B4000E
B0000E
E0000E
E0000E
E0000E
E0000E
E0000E
E0000E
E0000E
E0000E
B0000E
B4002E
3E56AE
0BFF9E
000024
0000A0
0000FC
000050
ENDCHAR
STARTCHAR Cacute
ENCODING 262
SWIDTH 542 0
DWIDTH 17 0
BBX 14 27 2 0
BITMAP
00006400
0001F000
0002D000
00074000
000A0000
00000000
00000000
06FFF900
2E956F40
780002C0
B00001D0
B00001D0
B00001D0
B0000040
B0000000
B0000000
B0000000
B0000000
B0000000
B0000000
B0000040
B00001D0
B00001D0
B00001D0
780002C0
2E556F40
06FFF900
ENDCHAR
STARTCHAR cacute
ENCODING 263
SWIDTH 394 0
DWIDTH 13 0
BBX 10 22 2 0
BITMAP
000780
000E00
002C00
007000
000000
000000
0BFFD0
3E5550
B40000
B00000
E00000
E00000
E00000
E00000
E00000
E00000
E00000
E00000
B00000
B40000
3E5550
0BFFD0
ENDCHAR
STARTCHAR Cdotaccent
ENCODING 266
SWIDTH 542 0
DWIDTH 17 0
BBX 14 26 2 0
BITMAP
000E0000
000E0000
000E0000
000E0000
00000000
00000000
06FFF900
2E956F40
780002C0
B00001D0
B00001D0
B00001D0
B0000040
B0000000
B0000000
B0000000
B0000000
B0000000
B0000000
B0000040
B00001D0
B00001D0
B00001D0
780002C0
2E556F40
06FFF900
ENDCHAR
STARTCHAR cdotaccent
ENCODING 267
SWIDTH 394 0
DWIDTH 13 0
BBX 10 22 2 0
BITMAP
007000
007000
007000
007000
000000
000000
0BFFD0
3E5550
B40000
B00000
E00000
E00000
E00000
E00000
E00000
E00000
E00000
E00000
B00000
B40000
3E5550
0BFFD0
ENDCHAR
STARTCHAR Ccaron
ENCODING 268
SWIDTH 542 0
DWIDTH 17 0
BBX 14 27 2 0
BITMAP
00401000
00A0A000
0071C000
002A8000
001F0000
00000000
00000000
06FFF900
2E956F40
780002C0
B00001D0
B00001D0
B00001D0
B0000040
B0000000
B0000000
B0000000
B0000000
B0000000
B0000000
B0000040
B00001D0
B00001D0
B00001D0
780002C0
2E556F40
06FFF900
ENDCHAR
STARTCHAR ccaron
ENCODING 269
SWIDTH 394 0
DWIDTH 13 0
BBX 10 22 2 0
BITMAP
070340
028B00
01DD00
00B800
000000
000000
0BFFD0
3E5550
B40000
B00000
E00000
E00000
E00000
E00000
E00000
E00000
E00000
E00000
B00000
B40000
3E5550
0BFFD0
ENDCHAR
STARTCHAR Dcaron
ENCODING 270
SWIDTH 557 0
DWIDTH 18 0
BBX 14 27 2 0
BITMAP
00405000
00D0D000
0071C000
002B4000
001E0000
00000000
00000000
7FFFF900
79556F40
740002C0
740001D0
740001D0
740001D0
740001D0
740001D0
740001D0
740001D0
740001D0
740001D0
740001D0
740001D0
740001D0
740001D0
740001D0
740002C0
79556F40
7FFFF900
ENDCHAR
STARTCHAR dcaron
ENCODING 271
SWIDTH 534 0
DWIDTH 17 0
BBX 16 22 2 0
BITMAP
00000E1D
00000E1D
00000E1D
00000E1C
00000E18
00000E18
0BFF9E14
39007E00
B0001E00
A0000E00
E0000E00
E0000E00
E0000E00
E0000E00
E0000E00
E0000E00
E0000E00
E0000E00
B0000E00
B4002E00
3E56BE00
0BFF8E00
ENDCHAR
STARTCHAR Dcroat
ENCODING 272
SWIDTH 514 0
DWIDTH 16 0
BBX 16 20 0 0
BITMAP
03FFFF90
079556B8
0740002C
0740001D
0740000E
0740000E
0740000E
0780000E
7FFFE00E
1795500E
0740000E
0740000E
0740000E
0740000E
0740000E
0740000E
0740001D
0740002C
079556B8
03FFFF90
ENDCHAR
STARTCHAR dcroat
ENCODING 273
SWIDTH 539 0
DWIDTH 17 0
BBX 15 22 2 0
BITMAP
00000E00
00000E00
00000E00
00BFFFF4
00555F50
00000E00
00000E00
00000E00
0BFF9E00
3E55BE00
B4001E00
E0000E00
E0000E00
E0000E00
E0000E00
E0000E00
E0000E00
E0000E00
B0000E00
B4002E00
3E56BE00
0BFF8E00
ENDCHAR
STARTCHAR Emacron
ENCODING 274
SWIDTH 481 0
DWIDTH 15 0
BBX 12 25 2 0
BITMAP
0BFFE0
015540
000000
000000
000000
7FFFFD
795554
740000
740000
740000
740000
740000
740000
740000
7FFFF4
795550
740000
740000
740000
740000
740000
740000
740000
795554
7FFFFD
ENDCHAR
STARTCHAR emacron
ENCODING 275
SWIDTH 492 0
DWIDTH 16 0
BBX 12 20 2 0
BITMAP
0BFFE0
055550
000000
000000
0BFFE0
3E55B8
B4001D
B0000E
E0000A
E0000A
E0000A
E0000A
FFFFFE
E55555
E00000
E00000
A00000
B40000
3E5555
0BFFFE
ENDCHAR
STARTCHAR Ebreve
ENCODING 276
SWIDTH 481 0
DWIDTH 15 0
BBX 12 27 2 0
BITMAP
010040
0700C0
0701C0
034280
01BE00
000000
000000
7FFFFD
795554
740000
740000
740000
740000
740000
740000
740000
7FFFF4
795550
740000
740000
740000
740000
740000
740000
740000
795554
7FFFFD
ENDCHAR
STARTCHAR ebreve
ENCODING 277
SWIDTH 492 0
DWIDTH 16 0
BBX 12 22 2 0
BITMAP
0700C0
0701C0
034280
01BE00
000000
000000
0BFFE0
3E55B8
B4001D
B0000E
E0000A
E0000A
E0000A
E0000A
FFFFFE
E55555
E00000
E00000
A00000
B40000
3E5555
0BFFFE
ENDCHAR
STARTCHAR Edotaccent
ENCODING 278
SWIDTH 496 0
DWIDTH 16 0
BBX 12 26 2 0
BITMAP
002800
002800
002800
002800
000000
000000
7FFFFD
795554
740000
740000
740000
740000
740000
740000
740000
7FFFF4
795550
740000
740000
740000
740000
740000
740000
740000
795554
7FFFFD
ENDCHAR
STARTCHAR edotaccent
ENCODING 279
SWIDTH 492 0
DWIDTH 16 0
BBX 12 22 2 0
BITMAP
002800
002800
002800
002800
000000
000000
0BFFE0
3E55B8
B4001D
B0000E
E0000A
E0000A
E0000A
E0000A
FFFFFE
E55555
E00000
E00000
A00000
B40000
3E5555
0BFFFE
ENDCHAR
STARTCHAR Eogonek
ENCODING 280
SWIDTH 481 0
DWIDTH 15 0
BBX 12 24 2 -4
BITMAP
7FFFFD
795554
740000
740000
740000
740000
740000
740000
740000
7FFFF4
795550
740000
740000
740000
740000
740000
740000
740000
795554
7FFFFD
000180
000240
000BE0
000100
ENDCHAR
STARTCHAR eogonek
ENCODING 281
SWIDTH 492 0
DWIDTH 16 0
BBX 12 20 2 -4
BITMAP
0BFFE0
3E55B8
B4001D
B0000E
E0000A
E0000A
E0000A
E0000A
FFFFFE
E55555
E00000
E00000
A00000
B40000
3E5555
0BFFFE
000180
000240
0007E0
000100
ENDCHAR
STARTCHAR Ecaron
ENCODING 282
SWIDTH 481 0
DWIDTH 15 0
BBX 12 27 2 0
BITMAP
010040
028280
00D340
00AA00
003C00
000000
000000
7FFFFD
795554
740000
740000
740000
740000
740000
740000
740000
7FFFF4
795550
740000
740000
740000
740000
740000
740000
740000
795554
7FFFFD
ENDCHAR
STARTCHAR ecaron
ENCODING 283
SWIDTH 492 0
DWIDTH 16 0
BBX 12 22 2 0
BITMAP
0341C0
01C340
00AA00
003C00
000000
000000
0BFFE0
3E55B8
B4001D
B0000E
E0000A
E0000A
E0000A
E0000A
FFFFFE
E55555
E00000
E00000
A00000
B40000
3E5555
0BFFFE
ENDCHAR
STARTCHAR Gcircumflex
ENCODING 284
SWIDTH 539 0
DWIDTH 17 0
BBX 13 27 2 0
BITMAP
00050000
002B0000
00728000
00A1C000
01C0A000
00000000
00000000
06FFF800
2E956E00
78000740
B0000380
B00002C0
B00002C0
B0000140
B0000000
B0000000
B0000000
B003FFC0
B00157C0
B00002C0
B00002C0
B00002C0
B00002C0
B0000380
78000780
2E556F00
06FFF800
ENDCHAR
STARTCHAR gcircumflex
ENCODING 285
SWIDTH 506 0
DWIDTH 16 0
BBX 12 26 2 -4
BITMAP
001E00
003740
00A1C0
01C090
000000
000000
0BFFFE
3E555E
74000A
B0000A
A0000A
A0000A
A0000A
A0000A
A0000A
A0000A
B0000E
B4001E
3D417E
1FFFDA
01550A
00000E
00000E
00001D
1555B8
2FFFE0
ENDCHAR
STARTCHAR Gbreve
ENCODING 286
SWIDTH 539 0
DWIDTH 17 0
BBX 13 27 2 0
BITMAP
01401000
02806000
01806000
00D0D000
006F4000
00000000
00000000
06FFF800
2E956E00
78000740
B0000380
B00002C0
B00002C0
B0000140
B0000000
B0000000
B0000000
B003FFC0
B00157C0
B00002C0
B00002C0
B00002C0
B00002C0
B0000380
78000780
2E556F00
06FFF800
ENDCHAR
STARTCHAR gbreve
ENCODING 287
SWIDTH 506 0
DWIDTH 16 0
BBX 12 26 2 -4
BITMAP
01C030
01C030
00D0A0
006F80
000000
000000
0BFFFE
3E555E
74000A
B0000A
A0000A
A0000A
A0000A
A0000A
A0000A
A0000A
B0000E
B4001E
3D417E
1FFFDA
01550A
00000E
00000E
00001D
1555B8
2FFFE0
ENDCHAR
STARTCHAR Gdotaccent
ENCODING 288
SWIDTH 539 0
DWIDTH 17 0
BBX 13 26 2 0
BITMAP
000D0000
001D0000
001D0000
000D0000
00000000
00000000
06FFF800
2E956E00
78000740
B0000380
B00002C0
B00002C0
B0000140
B0000000
B0000000
B0000000
B003FFC0
B00157C0
B00002C0
B00002C0
B00002C0
B00002C0
B0000380
78000780
2E556F00
06FFF800
ENDCHAR
STARTCHAR gdotaccent
ENCODING 289
SWIDTH 506 0
DWIDTH 16 0
BBX 12 26 2 -4
BITMAP
000E00
000E00
000E00
000E00
000000
000000
0BFFFE
3E555E
74000A
B0000A
A0000A
A0000A
A0000A
A0000A
A0000A
A0000A
B0000E
B4001E
3D417E
1FFFDA
01550A
00000E
00000E
00001D
1555B8
2FFFE0
ENDCHAR
STARTCHAR uni0122
ENCODING 290
SWIDTH 539 0
DWIDTH 17 0
BBX 13 27 2 -7
BITMAP
06FFF800
2E956E00
78000740
B0000380
B00002C0
B00002C0
B0000140
B0000000
B0000000
B0000000
B003FFC0
B00157C0
B00002C0
B00002C0
B00002C0
B00002C0
B0000380
78000780
2E556F00
06FFF800
00000000
000B0000
000B0000
000B0000
000A0000
00090000
00080000
ENDCHAR
STARTCHAR uni0123
ENCODING 291
SWIDTH 506 0
DWIDTH 16 0
BBX 12 29 2 -4
BITMAP
000100
000600
000A00
000E00
000E00
000E00
000000
000000
000000
0BFFFE
3E555E
74000A
B0000A
A0000A
A0000A
A0000A
A0000A
A0000A
A0000A
B0000E
B4001E
3D417E
1FFFDA
01550A
00000E
00000E
00001D
1555B8
2FFFE0
ENDCHAR
STARTCHAR hcircumflex
ENCODING 293
SWIDTH 507 0
DWIDTH 16 0
BBX 12 24 2 0
BITMAP
001E00
003640
B0A1C0
B0D0A0
B00000
B00000
B00000
B00000
B2FFE0
BB95BC
B8001E
B4000B
B0000B
B0000B
B0000B
B0000B
B0000B
B0000B
B0000B
B0000B
B0000B
B0000B
B0000B
B0000B
ENDCHAR
STARTCHAR Hbar
ENCODING 294
SWIDTH 523 0
DWIDTH 17 0
BBX 18 20 0 0
BITMAP
0340000E00
0340000E00
0340000E00
0780000E00
7FFFFFFFE0
1B95555F50
0340000E00
0340000E00
0380000E00
03FFFFFE00
0395555E00
0340000E00
0340000E00
0340000E00
0340000E00
0340000E00
0340000E00
0340000E00
0340000E00
0340000E00
ENDCHAR
STARTCHAR hbar
ENCODING 295
SWIDTH 544 0
DWIDTH 17 0
BBX 16 22 0 0
BITMAP
01C00000
02C00000
02D00000
7FFFFC00
16D55400
02C00000
02C00000
02C00000
02DBFF90
02E955F4
02E0003C
02D0002C
02C0001C
02C0001D
02C0001D
02C0001D
02C0001D
02C0001D
02C0001D
02C0001D
02C0001D
01C0001C
ENDCHAR
STARTCHAR Itilde
ENCODING 296
SWIDTH 230 0
DWIDTH 7 0
BBX 7 26 0 0
BITMAP
91F8
929C
A70C
7E0C
1404
0000
0340
0340
0340
0340
0340
0340
0340
0340
0340
0340
0340
0340
0340
0340
0340
0340
0340
0340
0340
0340
ENDCHAR
STARTCHAR itilde
ENCODING 297
SWIDTH 210 0
DWIDTH 7 0
BBX 7 22 0 0
BITMAP
C1F4
C3A8
DA18
BD18
1004
0000
0700
0700
0700
0700
0700
0700
0700
0700
0700
0700
0700
0700
0700
0700
0700
0700
ENDCHAR
STARTCHAR Imacron
ENCODING 298
SWIDTH 230 0
DWIDTH 7 0
BBX 8 25 0 0
BITMAP
FFFD
5554
0000
0000
0000
0340
0340
0340
0340
0340
0340
0340
0340
0340
0340
0340
0340
0340
0340
0340
0340
0340
0340
0340
0340
ENDCHAR
STARTCHAR imacron
ENCODING 299
SWIDTH 208 0
DWIDTH 7 0
BBX 8 20 -1 0
BITMAP
7FFF
1555
0000
0000
01C0
01C0
01C0
01C0
01C0
01C0
01C0
01C0
01C0
01C0
01C0
01C0
01C0
01C0
01C0
01C0
ENDCHAR
STARTCHAR Ibreve
ENCODING 300
SWIDTH 231 0
DWIDTH 7 0
BBX 7 27 0 0
BITMAP
5004
601C
6018
3424
1BD0
0000
0000
0340
0340
0340
0340
0340
0340
0340
0340
0340
0340
0340
0340
0340
0340
0340
0340
0340
0340
0340
0340
ENDCHAR
STARTCHAR ibreve
ENCODING 301
SWIDTH 211 0
DWIDTH 7 0
BBX 7 22 0 0
BITMAP
9028
9024
6074
2F90
0000
0000
0700
0700
0700
0700
0700
0700
0700
0700
0700
0700
0700
0700
0700
0700
0700
0700
ENDCHAR
STARTCHAR Iogonek
ENCODING 302
SWIDTH 230 0
DWIDTH 7 0
BBX 4 24 1 -4
BITMAP
0D
0D
0D
0D
0D
0D
0D
0D
0D
0D
0D
0D
0D
0D
0D
0D
0D
0D
0D
0D
24
60
FD
50
ENDCHAR
STARTCHAR iogonek
ENCODING 303
SWIDTH 210 0
DWIDTH 7 0
BBX 4 26 0 -4
BITMAP
07
07
07
07
00
00
07
07
07
07
07
07
07
07
07
07
07
07
07
07
07
07
08
24
7E
14
ENDCHAR
STARTCHAR Idotaccent
ENCODING 304
SWIDTH 230 0
DWIDTH 7 0
BBX 2 25 3 0
BITMAP
D0
D0
D0
D0
00
D0
D0
D0
D0
D0
D0
D0
D0
D0
D0
D0
D0
D0
D0
D0
D0
D0
D0
D0
D0
ENDCHAR
STARTCHAR dotlessi
ENCODING 305
SWIDTH 212 0
DWIDTH 7 0
BBX 3 16 2 0
BITMAP
70
74
74
74
74
74
74
74
74
74
74
74
74
74
74
70
ENDCHAR
STARTCHAR IJ
ENCODING 306
SWIDTH 721 0
DWIDTH 23 0
BBX 18 20 3 0
BITMAP
D0000000E0
E0000000E0
E0000000E0
E0000000E0
E0000000E0
E0000000E0
E0000000E0
E0000000E0
E0000000E0
E0000000E0
E0000000E0
E0000000E0
E0140000E0
E02C0000E0
E02C0000E0
E02C0000E0
E01D0000E0
E01E0002D0
E00BA56B80
D001BFF900
ENDCHAR
STARTCHAR ij
ENCODING 307
SWIDTH 419 0
DWIDTH 13 0
BBX 9 26 2 -4
BITMAP
700280
7002C0
7002C0
700280
000000
000000
700280
7002C0
7002C0
7002C0
7002C0
7002C0
7002C0
7002C0
7002C0
7002C0
7002C0
7002C0
7002C0
7002C0
7002C0
7002C0
000380
000740
016F00
03F800
ENDCHAR
STARTCHAR Jcircumflex
ENCODING 308
SWIDTH 494 0
DWIDTH 16 0
BBX 15 27 1 0
BITMAP
00000540
00000E80
00001CD0
00003470
00007034
00000000
00000000
00000340
00000740
00000740
00000740
00000740
00000740
00000740
00000740
00000740
00000740
00000740
00000740
50000740
B0000740
B0000740
B0000740
B0000740
74000B00
2E55BD00
0BFFE400
ENDCHAR
STARTCHAR jcircumflex
ENCODING 309
SWIDTH 209 0
DWIDTH 7 0
BBX 9 26 -2 -4
BITMAP
00B400
01DC00
034A00
0A0340
000000
000000
007000
007000
007000
007000
007000
007000
007000
007000
007000
007000
007000
007000
007000
007000
007000
007000
00B000
00E000
5BD000
BE4000
ENDCHAR
STARTCHAR uni0136
ENCODING 310
SWIDTH 530 0
DWIDTH 17 0
BBX 14 28 2 -8
BITMAP
740003C0
74000B40
74001D00
74007800
7400F000
7402D000
740B4000
741E0000
747C0000
74FC0000
76DE0000
7B474000
7D02D000
7800E000
74007800
74002D00
74000F00
74000780
740002D0
740000B0
00000000
00074000
00074000
00070000
00070000
00060000
00050000
00040000
ENDCHAR
STARTCHAR uni0137
ENCODING 311
SWIDTH 431 0
DWIDTH 14 0
BBX 12 29 2 -7
BITMAP
B00000
B00000
B00000
B00000
B00000
B00000
B00078
B000B0
B002D0
B00780
B00B00
B02D00
B07800
B0B000
B0B400
B02C00
B00E00
B00740
B002C0
B000E0
B00078
B0002D
000000
007400
007400
007400
007000
006000
005000
ENDCHAR
STARTCHAR Lacute
ENCODING 313
SWIDTH 451 0
DWIDTH 14 0
BBX 12 27 2 0
BITMAP
018000
078000
0B0000
1D0000
340000
000000
000000
740000
740000
740000
740000
740000
740000
740000
740000
740000
740000
740000
740000
740000
740000
740000
740000
740000
740000
795555
7FFFFE
ENDCHAR
STARTCHAR lacute
ENCODING 314
SWIDTH 207 0
DWIDTH 7 0
BBX 5 28 2 0
BITMAP
0140
0B40
1E00
2800
1000
0000
7000
7000
7000
7000
7000
7000
7000
7000
7000
7000
7000
7000
7000
7000
7000
7000
7000
7000
7000
7000
7000
7000
ENDCHAR
STARTCHAR uni013B
ENCODING 315
SWIDTH 451 0
DWIDTH 14 0
BBX 12 27 2 -7
BITMAP
740000
740000
740000
740000
740000
740000
740000
740000
740000
740000
740000
740000
740000
740000
740000
740000
740000
740000
795555
7FFFFE
000000
002C00
002C00
002C00
002800
002400
002000
ENDCHAR
STARTCHAR uni013C
ENCODING 316
SWIDTH 211 0
DWIDTH 7 0
BBX 3 29 2 -7
BITMAP
70
70
70
70
70
70
70
70
70
70
70
70
70
70
70
70
70
70
70
70
70
70
00
74
74
70
60
50
40
ENDCHAR
STARTCHAR Lcaron
ENCODING 317
SWIDTH 451 0
DWIDTH 14 0
BBX 12 20 2 0
BITMAP
7400E0
7400E0
7400E0
7400D0
7400C0
740080
740040
740000
740000
740000
740000
740000
740000
740000
740000
740000
740000
740000
795555
7FFFFE
ENDCHAR
STARTCHAR lcaron
ENCODING 318
SWIDTH 274 0
DWIDTH 9 0
BBX 7 22 2 0
BITMAP
7074
7074
7074
7070
7060
7050
7040
7000
7000
7000
7000
7000
7000
7000
7000
7000
7000
7000
7000
7000
7000
7000
ENDCHAR
STARTCHAR Ldot
ENCODING 319
SWIDTH 500 0
DWIDTH 16 0
BBX 12 20 2 0
BITMAP
740000
740000
740000
740000
740000
740000
740000
740000
740380
740380
740380
740380
740000
740000
740000
740000
740000
740000
795555
7FFFFE
ENDCHAR
STARTCHAR ldot
ENCODING 320
SWIDTH 314 0
DWIDTH 10 0
BBX 7 22 2 0
BITMAP
7400
7400
7400
7400
7400
7400
7400
7400
7400
7400
7438
7438
7438
7438
7400
7400
7400
7400
7400
7400
7400
7400
ENDCHAR
STARTCHAR Lslash
ENCODING 321
SWIDTH 504 0
DWIDTH 16 0
BBX 14 20 0 0
BITMAP
03800000
03800000
03800000
03800000
03820000
039F0000
03F40000
1B800000
BB800000
53800000
03800000
03800000
03800000
03800000
03800000
03800000
03800000
03800000
03955550
03FFFFE0
ENDCHAR
STARTCHAR lslash
ENCODING 322
SWIDTH 296 0
DWIDTH 9 0
BBX 8 22 1 0
BITMAP
0340
0380
0380
0380
0380
0380
0385
03AD
07E4
2F80
F780
8380
0380
0380
0380
0380
0380
0380
0380
0380
0380
0340
ENDCHAR
STARTCHAR Nacute
ENCODING 323
SWIDTH 579 0
DWIDTH 19 0
BBX 14 27 2 0
BITMAP
00001800
00007800
0000B000
0001D000
00034000
00000000
00000000
740000A0
7C0000B0
7E0000B0
7F4000B0
77C000B0
75D000B0
74B000B0
743800B0
742D00B0
740E00B0
740740B0
7402C0B0
7400E0B0
740074B0
740038B0
74001DB0
74000BF0
740003F0
740001F0
740000A0
ENDCHAR
STARTCHAR nacute
ENCODING 324
SWIDTH 507 0
DWIDTH 16 0
BBX 12 22 2 0
BITMAP
0001E0
000380
000B00
001D00
000000
000000
B2FFE0
BB95BC
B8001E
B4000B
B0000B
B0000B
B0000B
B0000B
B0000B
B0000B
B0000B
B0000B
B0000B
B0000B
B0000B
B0000B
ENDCHAR
STARTCHAR uni0145
ENCODING 325
SWIDTH 579 0
DWIDTH 19 0
BBX 14 27 2 -7
BITMAP
740000A0
7C0000B0
7E0000B0
7F4000B0
77C000B0
75D000B0
74B000B0
743800B0
742D00B0
740E00B0
740740B0
7402C0B0
7400E0B0
740074B0
740038B0
74001DB0
74000BF0
740003F0
740001F0
740000A0
00000000
00070000
00070000
00070000
00060000
00050000
00040000
ENDCHAR
STARTCHAR uni0146
ENCODING 326
SWIDTH 505 0
DWIDTH 16 0
BBX 12 23 2 -7
BITMAP
B2FFE0
BB95BC
B8001E
B4000B
B0000B
B0000B
B0000B
B0000B
B0000B
B0000B
B0000B
B0000B
B0000B
B0000B
B0000B
B0000B
000000
002C00
002C00
002C00
002800
002400
002000
ENDCHAR
STARTCHAR Ncaron
ENCODING 327
SWIDTH 579 0
DWIDTH 19 0
BBX 14 27 2 0
BITMAP
00501400
00707000
0028D000
001DC000
000B4000
00000000
00000000
740000A0
7C0000B0
7E0000B0
7F4000B0
77C000B0
75D000B0
74B000B0
743800B0
742D00B0
740E00B0
740740B0
7402C0B0
7400E0B0
740074B0
740038B0
74001DB0
74000BF0
740003F0
740001F0
740000A0
ENDCHAR
STARTCHAR ncaron
ENCODING 328
SWIDTH 507 0
DWIDTH 16 0
BBX 12 22 2 0
BITMAP
0281C0
00D380
00A700
003D00
000000
000000
B2FFE0
BB95BC
B8001E
B4000B
B0000B
B0000B
B0000B
B0000B
B0000B
B0000B
B0000B
B0000B
B0000B
B0000B
B0000B
B0000B
ENDCHAR
STARTCHAR Eng
ENCODING 330
SWIDTH 519 0
DWIDTH 17 0
BBX 14 24 2 -4
BITMAP
780000B0
7C0000B0
7E0000B0
7F4000B0
77C000B0
75E000B0
74B000B0
743800B0
741D00B0
740B00B0
740740B0
7402C0B0
7400E0B0
740074B0
74002CB0
74001DB0
74000BF0
740003F0
740001F0
740000F0
000000E0
000001E0
00005BC0
0000FE00
ENDCHAR
STARTCHAR eng
ENCODING 331
SWIDTH 507 0
DWIDTH 16 0
BBX 12 20 2 -4
BITMAP
B2FFE0
BB95BC
B8001E
B4000B
B0000B
B0000B
B0000B
B0000B
B0000B
B0000B
B0000B
B0000B
B0000B
B0000B
B0000B
B0000B
00000B
00001E
0005BC
000BE0
ENDCHAR
STARTCHAR Omacron
ENCODING 332
SWIDTH 553 0
DWIDTH 18 0
BBX 14 25 2 0
BITMAP
02FFF400
01555000
00000000
00000000
00000000
06FFF900
2E956F40
780003C0
B00001D0
B00001D0
B00001D0
B00001D0
B00001D0
B00001D0
B00001D0
B00001D0
B00001D0
B00001D0
B00001D0
B00001D0
B00001D0
B00001D0
780003C0
2E556F40
06FFF900
ENDCHAR
STARTCHAR omacron
ENCODING 333
SWIDTH 496 0
DWIDTH 16 0
BBX 12 20 2 0
BITMAP
0BFFE0
055550
000000
000000
0BFFE0
3E55B8
B4001D
B0000E
E0000A
E0000A
E0000A
E0000A
E0000A
E0000A
E0000A
E0000A
B0000E
B4001D
3E55B8
0BFFE0
ENDCHAR
STARTCHAR Obreve
ENCODING 334
SWIDTH 553 0
DWIDTH 18 0
BBX 14 27 2 0
BITMAP
00401000
01C03000
01C07000
00D0A000
002F8000
00000000
00000000
06FFF900
2E956F40
780003C0
B00001D0
B00001D0
B00001D0
B00001D0
B00001D0
B00001D0
B00001D0
B00001D0
B00001D0
B00001D0
B00001D0
B00001D0
B00001D0
B00001D0
780003C0
2E556F40
06FFF900
ENDCHAR
STARTCHAR obreve
ENCODING 335
SWIDTH 496 0
DWIDTH 16 0
BBX 12 22 2 0
BITMAP
0700C0
0300C0
034280
01BE00
000000
000000
0BFFE0
3E55B8
B4001D
B0000E
E0000A
E0000A
E0000A
E0000A
E0000A
E0000A
E0000A
E0000A
B0000E
B4001D
3E55B8
0BFFE0
ENDCHAR
STARTCHAR Ohungarumlaut
ENCODING 336
SWIDTH 553 0
DWIDTH 18 0
BBX 14 26 2 0
BITMAP
000B0A00
001D1C00
00343400
00A0A000
00000000
00000000
06FFF900
2E956F40
780003C0
B00001D0
B00001D0
B00001D0
B00001D0
B00001D0
B00001D0
B00001D0
B00001D0
B00001D0
B00001D0
B00001D0
B00001D0
B00001D0
B00001D0
780003C0
2E556F40
06FFF900
ENDCHAR
STARTCHAR ohungarumlaut
ENCODING 337
SWIDTH 496 0
DWIDTH 16 0
BBX 12 22 2 0
BITMAP
002C2C
007474
00A0A0
018180
000000
000000
0BFFE0
3E55B8
B4001D
B0000E
E0000A
E0000A
E0000A
E0000A
E0000A
E0000A
E0000A
E0000A
B0000E
B4001D
3E55B8
0BFFE0
ENDCHAR
STARTCHAR OE
ENCODING 338
SWIDTH 775 0
DWIDTH 25 0
BBX 21 20 2 0
BITMAP
06FFFFFFFF40
2E956E555500
78000D000000
74000D000000
B0000D000000
B0000D000000
B0000D000000
B0000D000000
B0000E000000
B0000FFFFD00
B0000E555400
B0000D000000
B0000D000000
B0000D000000
B0000D000000
B0000D000000
74000D000000
78000D000000
2E956E555500
06FFFFFFFF40
ENDCHAR
STARTCHAR oe
ENCODING 339
SWIDTH 812 0
DWIDTH 26 0
BBX 22 16 2 0
BITMAP
0BFF906FFE00
3E55B9E55BC0
B4001F4001E0
B0000F0000E0
E0000F0000B0
E0000A0000B0
E0000A0000B0
E0000B0000B0
E0000BFFFFF0
E0000B555550
E0000A000000
E0000F000000
B0000F000000
B4001F400000
3E55BAE55550
0BFFD06FFFE0
ENDCHAR
STARTCHAR Racute
ENCODING 340
SWIDTH 534 0
DWIDTH 17 0
BBX 14 27 2 0
BITMAP
00019000
0003C000
000B4000
000E0000
00280000
00000000
00000000
7FFFF800
79556F00
74000780
74000380
740002C0
740002C0
740002C0
74000280
74000380
74005F00
7FFFF900
7955E000
7400B000
74007400
74003C00
74001D00
74000F00
74000740
74000380
740002D0
ENDCHAR
STARTCHAR racute
ENCODING 341
SWIDTH 313 0
DWIDTH 10 0
BBX 7 22 2 0
BITMAP
00B4
01D0
0380
0A00
0000
0000
B1FC
BB94
B800
B400
B000
B000
B000
B000
B000
B000
B000
B000
B000
B000
B000
B000
ENDCHAR
STARTCHAR uni0156
ENCODING 342
SWIDTH 534 0
DWIDTH 17 0
BBX 14 27 2 -7
BITMAP
7FFFF800
79556F00
74000780
74000380
740002C0
740002C0
740002C0
74000280
74000380
74005F00
7FFFF900
7955E000
7400B000
74007400
74003C00
74001D00
74000F00
74000740
74000380
740002D0
00000000
001D0000
001D0000
001D0000
001C0000
00180000
00140000
ENDCHAR
STARTCHAR uni0157
ENCODING 343
SWIDTH 313 0
DWIDTH 10 0
BBX 7 23 2 -7
BITMAP
B1FC
BB94
B800
B400
B000
B000
B000
B000
B000
B000
B000
B000
B000
B000
B000
B000
0000
B000
B000
B000
A000
9000
8000
ENDCHAR
STARTCHAR Rcaron
ENCODING 344
SWIDTH 534 0
DWIDTH 17 0
BBX 14 27 2 0
BITMAP
01404000
02828000
00D34000
00AA0000
003D0000
00000000
00000000
7FFFF800
79556F00
74000780
74000380
740002C0
740002C0
740002C0
74000280
74000380
74005F00
7FFFF900
7955E000
7400B000
74007400
74003C00
74001D00
74000F00
74000740
74000380
740002D0
ENDCHAR
STARTCHAR rcaron
ENCODING 345
SWIDTH 313 0
DWIDTH 10 0
BBX 7 22 2 0
BITMAP
7034
2870
0DD0
0780
0000
0000
B1FC
BB94
B800
B400
B000
B000
B000
B000
B000
B000
B000
B000
B000
B000
B000
B000
ENDCHAR
STARTCHAR Sacute
ENCODING 346
SWIDTH 562 0
DWIDTH 18 0
BBX 14 27 2 0
BITMAP
00006400
0001F000
0002D000
00074000
000A0000
00000000
00000000
06FFF900
1F956F40
380003C0
740001D0
740001D0
74000090
74000000
38000000
2F400000
06FE5000
001AFD00
00001F40
000002C0
000001D0
700001D0
740001D0
740001D0
380002C0
1F956F40
06FFF900
ENDCHAR
STARTCHAR sacute
ENCODING 347
SWIDTH 427 0
DWIDTH 14 0
BBX 11 22 1 0
BITMAP
000780
000E00
002C00
007400
000000
000000
0BFFF4
2E5550
780000
740000
740000
3C0000
1F9000
01BE00
001BE0
0000B8
00002C
00002C
00002C
00003C
1556F4
7FFF90
ENDCHAR
STARTCHAR Scircumflex
ENCODING 348
SWIDTH 562 0
DWIDTH 18 0
BBX 14 27 2 0
BITMAP
00050000
001F4000
0035C000
0070D000
00D07000
00000000
00000000
06FFF900
1F956F40
380003C0
740001D0
740001D0
74000090
74000000
38000000
2F400000
06FE5000
001AFD00
00001F40
000002C0
000001D0
700001D0
740001D0
740001D0
380002C0
1F956F40
06FFF900
ENDCHAR
STARTCHAR scircumflex
ENCODING 349
SWIDTH 427 0
DWIDTH 14 0
BBX 11 22 1 0
BITMAP
007800
00DD00
028700
034280
000000
000000
0BFFF4
2E5550
780000
740000
740000
3C0000
1F9000
01BE00
001BE0
0000B8
00002C
00002C
00002C
00003C
1556F4
7FFF90
ENDCHAR
STARTCHAR uni015E
ENCODING 350
SWIDTH 562 0
DWIDTH 18 0
BBX 14 27 2 -7
BITMAP
06FFF900
1F956F40
380003C0
740001D0
740001D0
74000090
74000000
38000000
2F400000
06FE5000
001AFD00
00001F40
000002C0
000001D0
700001D0
740001D0
740001D0
380002C0
1F956F40
06FFF900
00060000
001F8000
0005D000
0000A000
0001D000
001FC000
00050000
ENDCHAR
STARTCHAR uni015F
ENCODING 351
SWIDTH 427 0
DWIDTH 14 0
BBX 11 23 1 -7
BITMAP
0BFFF4
2E5550
780000
740000
740000
380000
1F9000
01BD00
001BE0
0000B4
00002C
00002C
00002C
00003C
1556F4
7FFFD0
002400
00BE00
001700
000340
000700
00BE00
001400
ENDCHAR
STARTCHAR Scaron
ENCODING 352
SWIDTH 562 0
DWIDTH 18 0
BBX 14 27 2 0
BITMAP
00405000
00A0A000
0071C000
002A8000
000F0000
00000000
00000000
06FFF900
1F956F40
380003C0
740001D0
740001D0
74000090
74000000
38000000
2F400000
06FE5000
001AFD00
00001F40
000002C0
000001D0
700001D0
740001D0
740001D0
380002C0
1F956F40
06FFF900
ENDCHAR
STARTCHAR scaron
ENCODING 353
SWIDTH 427 0
DWIDTH 14 0
BBX 11 22 1 0
BITMAP
034280
028700
00DD00
007800
000000
000000
0BFFF4
2E5550
780000
740000
740000
3C0000
1F9000
01BE00
001BE0
0000B8
00002C
00002C
00002C
00003C
1556F4
7FFF90
ENDCHAR
STARTCHAR uni0162
ENCODING 354
SWIDTH 420 0
DWIDTH 13 0
BBX 13 28 0 -8
BITMAP
7FFFFF80
155E5540
000E0000
000E0000
000E0000
000E0000
000E0000
000E0000
000E0000
000E0000
000E0000
000E0000
000E0000
000E0000
000E0000
000E0000
000E0000
000E0000
000E0000
000D0000
00000000
000E0000
000E0000
000D0000
000D0000
000C0000
00080000
00040000
ENDCHAR
STARTCHAR uni0163
ENCODING 355
SWIDTH 347 0
DWIDTH 11 0
BBX 10 26 0 -7
BITMAP
02C000
02C000
02C000
7FFFD0
16D550
02C000
02C000
02C000
02C000
02C000
02C000
02C000
02C000
02C000
02C000
02D000
01E000
00BA50
001BE0
000000
001D00
001D00
001D00
001D00
001C00
001800
ENDCHAR
STARTCHAR Tcaron
ENCODING 356
SWIDTH 420 0
DWIDTH 13 0
BBX 13 27 0 0
BITMAP
00405000
00D0D000
0071C000
00274000
001E0000
00000000
00000000
7FFFFF80
155E5540
000E0000
000E0000
000E0000
000E0000
000E0000
000E0000
000E0000
000E0000
000E0000
000E0000
000E0000
000E0000
000E0000
000E0000
000E0000
000E0000
000E0000
000D0000
ENDCHAR
STARTCHAR tcaron
ENCODING 357
SWIDTH 396 0
DWIDTH 13 0
BBX 13 20 0 0
BITMAP
00000740
02C00740
02C00740
02C00740
7FFFD700
16D55600
02C00500
02C00000
02C00000
02C00000
02C00000
02C00000
02C00000
02C00000
02C00000
02C00000
02D00000
01E00000
00BA5000
001BE000
ENDCHAR
STARTCHAR Tbar
ENCODING 358
SWIDTH 501 0
DWIDTH 16 0
BBX 13 20 0 0
BITMAP
7FFFFFC0
155F5540
000E0000
000E0000
000E0000
000E0000
000E0000
000E0000
000E0000
0BFFFE00
015E5500
000E0000
000E0000
000E0000
000E0000
000E0000
000E0000
000E0000
000E0000
000E0000
ENDCHAR
STARTCHAR tbar
ENCODING 359
SWIDTH 350 0
DWIDTH 11 0
BBX 10 19 0 0
BITMAP
02C000
02C000
02C000
7FFFE0
16D550
02C000
02C000
02C000
02D000
7FFFE0
16D540
02C000
02C000
02C000
02C000
01D000
01E000
00BE50
001BF0
ENDCHAR
STARTCHAR Utilde
ENCODING 360
SWIDTH 552 0
DWIDTH 18 0
BBX 13 26 2 0
BITMAP
0243E000
024A7000
029D2400
01F82400
00101000
00000000
700001C0
700002C0
700002C0
700002C0
700002C0
700002C0
700002C0
700002C0
700002C0
700002C0
700002C0
700002C0
700002C0
700002C0
700002C0
740002C0
740002C0
38000380
2F956F40
06FFF900
ENDCHAR
STARTCHAR utilde
ENCODING 361
SWIDTH 507 0
DWIDTH 16 0
BBX 12 22 2 0
BITMAP
060B80
061DD0
067490
03F090
004000
000000
A0000A
B0000A
B0000A
B0000A
B0000A
B0000A
B0000A
B0000A
B0000A
B0000A
B0000A
B0000A
B0000E
74001E
2E56BE
0BFF8A
ENDCHAR
STARTCHAR Umacron
ENCODING 362
SWIDTH 552 0
DWIDTH 18 0
BBX 13 25 2 0
BITMAP
02FFF400
01555000
00000000
00000000
00000000
700001C0
700002C0
700002C0
700002C0
700002C0
700002C0
700002C0
700002C0
700002C0
700002C0
700002C0
700002C0
700002C0
700002C0
700002C0
740002C0
740002C0
38000380
2F956F40
06FFF900
ENDCHAR
STARTCHAR umacron
ENCODING 363
SWIDTH 507 0
DWIDTH 16 0
BBX 12 20 2 0
BITMAP
0BFFE0
055550
000000
000000
A0000A
B0000A
B0000A
B0000A
B0000A
B0000A
B0000A
B0000A
B0000A
B0000A
B0000A
B0000A
B0000E
74001E
2E56BE
0BFF8A
ENDCHAR
STARTCHAR Ubreve
ENCODING 364
SWIDTH 552 0
DWIDTH 18 0
BBX 13 27 2 0
BITMAP
00401000
01C03000
01C07000
00D0A000
002F8000
00000000
00000000
700001C0
700002C0
700002C0
700002C0
700002C0
700002C0
700002C0
700002C0
700002C0
700002C0
700002C0
700002C0
700002C0
700002C0
700002C0
740002C0
740002C0
38000380
2F956F40
06FFF900
ENDCHAR
STARTCHAR ubreve
ENCODING 365
SWIDTH 507 0
DWIDTH 16 0
BBX 12 22 2 0
BITMAP
0300D0
0300C0
028180
00BE00
000000
000000
A0000A
B0000A
B0000A
B0000A
B0000A
B0000A
B0000A
B0000A
B0000A
B0000A
B0000A
B0000A
B0000E
74001E
2E56BE
0BFF8A
ENDCHAR
STARTCHAR Uring
ENCODING 366
SWIDTH 552 0
DWIDTH 18 0
BBX 13 28 2 0
BITMAP
007F8000
00A5D000
00909000
00909000
00A1D000
007F8000
00050000
00000000
700001C0
700002C0
700002C0
700002C0
700002C0
700002C0
700002C0
700002C0
700002C0
700002C0
700002C0
700002C0
700002C0
700002C0
700002C0
740002C0
740002C0
38000380
2F956F40
06FFF900
ENDCHAR
STARTCHAR uring
ENCODING 367
SWIDTH 507 0
DWIDTH 16 0
BBX 12 23 2 0
BITMAP
01FD00
035700
030300
030200
034700
02FE00
005400
A0000A
B0000A
B0000A
B0000A
B0000A
B0000A
B0000A
B0000A
B0000A
B0000A
B0000A
B0000A
B0000E
74001E
2E56BE
0BFF8A
ENDCHAR
STARTCHAR Uhungarumlaut
ENCODING 368
SWIDTH 552 0
DWIDTH 18 0
BBX 13 26 2 0
BITMAP
000E0E00
002C2C00
00747400
00909000
00000000
00000000
700001C0
700002C0
700002C0
700002C0
700002C0
700002C0
700002C0
700002C0
700002C0
700002C0
700002C0
700002C0
700002C0
700002C0
700002C0
740002C0
740002C0
38000380
2F956F40
06FFF900
ENDCHAR
STARTCHAR uhungarumlaut
ENCODING 369
SWIDTH 507 0
DWIDTH 16 0
BBX 12 22 2 0
BITMAP
002C2C
007474
00A0A0
018180
000000
000000
A0000A
B0000A
B0000A
B0000A
B0000A
B0000A
B0000A
B0000A
B0000A
B0000A
B0000A
B0000A
B0000E
74001E
2E56BE
0BFF8A
ENDCHAR
STARTCHAR Uogonek
ENCODING 370
SWIDTH 552 0
DWIDTH 18 0
BBX 13 24 2 -4
BITMAP
700001C0
700002C0
700002C0
700002C0
700002C0
700002C0
700002C0
700002C0
700002C0
700002C0
700002C0
700002C0
700002C0
700002C0
700002C0
740002C0
740002C0
38000380
2F956F40
06FFF900
000A0000
00180000
003F4000
00040000
ENDCHAR
STARTCHAR uogonek
ENCODING 371
SWIDTH 503 0
DWIDTH 16 0
BBX 12 20 2 -4
BITMAP
A0000A
B0000A
B0000A
B0000A
B0000A
B0000A
B0000A
B0000A
B0000A
B0000A
B0000A
B0000A
B0000E
74001E
2E56BE
0BFF9E
000024
000060
0000FD
000010
ENDCHAR
STARTCHAR Wcircumflex
ENCODING 372
SWIDTH 795 0
DWIDTH 25 0
BBX 24 27 1 0
BITMAP
000001400000
00000AC00000
00000DA00000
000028700000
000074280000
000000000000
000000000000
E0000780001D
B0000BC0002C
74000ED0003C
74001DE00038
38001CB00074
2C00287000B4
2C00343400B0
1D00742800E0
0E00B02C00E0
0E00E01D01D0
0B00D00E02C0
0741C00A02C0
074280070380
038380034740
028740038740
02C70002CB00
01DA0001CE00
00ED0000DD00
00FD0000BD00
00BC0000BC00
ENDCHAR
STARTCHAR wcircumflex
ENCODING 373
SWIDTH 682 0
DWIDTH 22 0
BBX 21 22 0 0
BITMAP
00001F000000
00002A800000
000070D00000
0000D0A00000
000000000000
000000000000
74000F0002C0
38001F000380
2C002F400380
1D003A800740
0E0036C00B00
0A0071D00E00
0B00A0D01D00
0740D0A02C00
0381D0702800
02C1C0343400
01C280387400
00D34028B000
00A7001CE000
007B000ED000
007E000BC000
003D00078000
ENDCHAR
STARTCHAR Ycircumflex
ENCODING 374
SWIDTH 493 0
DWIDTH 16 0
BBX 14 27 1 0
BITMAP
00050000
001F4000
00368000
00A0D000
00D0A000
00000000
00000000
E00000E0
B40002D0
38000380
2D000740
0E000E00
0B401D00
03803800
01D07400
00E0E000
0075D000
003B8000
001F4000
000E0000
000E0000
000E0000
000E0000
000E0000
000E0000
000E0000
000E0000
ENDCHAR
STARTCHAR ycircumflex
ENCODING 375
SWIDTH 459 0
DWIDTH 15 0
BBX 13 26 1 -4
BITMAP
001E0000
00374000
00A1C000
01C0D000
00000000
00000000
E0000380
B0000740
74000B00
38000E00
2C001D00
1D002C00
0A003800
07407400
0380F000
02C1D000
01D2C000
00E38000
00B74000
007F0000
002E0000
001D0000
002C0000
00740000
16E00000
7F400000
ENDCHAR
STARTCHAR Ydieresis
ENCODING 376
SWIDTH 493 0
DWIDTH 16 0
BBX 14 26 1 0
BITMAP
01C07400
02C07400
02C07400
01C07400
00000000
00000000
E00000E0
B40002D0
38000380
2D000740
0E000E00
0B401D00
03803800
01D07400
00E0E000
0075D000
003B8000
001F4000
000E0000
000E0000
000E0000
000E0000
000E0000
000E0000
000E0000
000E0000
ENDCHAR
STARTCHAR Zacute
ENCODING 377
SWIDTH 482 0
DWIDTH 15 0
BBX 13 27 1 0
BITMAP
00001400
0000B400
0001E000
00028000
00070000
00000000
00000000
7FFFFF80
15555B80
00000B40
00001E00
00003C00
0000B400
0001E000
0002C000
00078000
000F0000
002D0000
00780000
00F00000
02D00000
07800000
0B400000
1E000000
3C000000
B9555540
BFFFFFC0
ENDCHAR
STARTCHAR zacute
ENCODING 378
SWIDTH 405 0
DWIDTH 13 0
BBX 11 22 1 0
BITMAP
0002E0
000780
000A00
001C00
000000
000000
BFFFF8
5555B4
0000F0
0002D0
000780
000F00
002D00
007800
00B000
01D000
038000
0B4000
1E0000
3C0000
B95554
FFFFFC
ENDCHAR
STARTCHAR Zdotaccent
ENCODING 379
SWIDTH 482 0
DWIDTH 15 0
BBX 13 26 1 0
BITMAP
00070000
00070000
00070000
00070000
00000000
00000000
7FFFFF80
15555B80
00000B40
00001E00
00003C00
0000B400
0001E000
0002C000
00078000
000F0000
002D0000
00780000
00F00000
02D00000
07800000
0B400000
1E000000
3C000000
B9555540
BFFFFFC0
ENDCHAR
STARTCHAR zdotaccent
ENCODING 380
SWIDTH 405 0
DWIDTH 13 0
BBX 11 22 1 0
BITMAP
002C00
002C00
002C00
002C00
000000
000000
BFFFF8
5555B4
0000F0
0002D0
000780
000F00
002D00
007800
00B000
01D000
038000
0B4000
1E0000
3C0000
B95554
FFFFFC
ENDCHAR
STARTCHAR Zcaron
ENCODING 381
SWIDTH 482 0
DWIDTH 15 0
BBX 13 27 1 0
BITMAP
00501000
00707000
0034D000
001EC000
000B4000
00000000
00000000
7FFFFF80
15555B80
00000B40
00001E00
00003C00
0000B400
0001E000
0002C000
00078000
000F0000
002D0000
00780000
00F00000
02D00000
07800000
0B400000
1E000000
3C000000
B9555540
BFFFFFC0
ENDCHAR
STARTCHAR zcaron
ENCODING 382
SWIDTH 405 0
DWIDTH 13 0
BBX 11 22 1 0
BITMAP
0281C0
01D340
00A700
003D00
000000
000000
BFFFF8
5555B4
0000F0
0002D0
000780
000F00
002D00
007800
00B000
01D000
038000
0B4000
1E0000
3C0000
B95554
FFFFFC
ENDCHAR
STARTCHAR florin
ENCODING 402
SWIDTH 494 0
DWIDTH 16 0
BBX 16 26 0 -4
BITMAP
000001BD
00000B94
00001D00
00003C00
00003800
00007400
0000B000
0000A000
0001E000
00BFFFD0
0016D540
0002C000
00038000
00038000
00074000
000B0000
000B0000
000E0000
000D0000
001D0000
002C0000
00280000
00380000
00B00000
1AD00000
7E400000
ENDCHAR
STARTCHAR AEacute
ENCODING 508
SWIDTH 773 0
DWIDTH 25 0
BBX 23 27 0 0
BITMAP
000000014000
000000078000
0000000F0000
0000001D0000
000000340000
000000000000
000000000000
000007FFFFF8
00000BF55554
00001DE00000
00003CE00000
000074E00000
0000E0E00000
0002D0E00000
000380E00000
000B00E00000
001D00FFFFE0
002800E55550
007400E00000
00E000E00000
01FFFFE00000
039555E00000
0B0000E00000
1E0000E00000
2C0000E00000
740000F55554
B00000FFFFF8
ENDCHAR
STARTCHAR aeacute
ENCODING 509
SWIDTH 795 0
DWIDTH 25 0
BBX 22 22 2 0
BITMAP
000000B40000
000001E00000
000003800000
000007000000
000000000000
000000000000
1FFF90BFF900
0556B6E56B40
00002F4002C0
00000E0001D0
00000E0000D0
00001E0000D0
0BFFFE0000D0
3E555E0001D0
B4000FFFFFD0
E0000E555540
E0000E000000
E0000E000000
E0001E000000
B4002F400000
3E56F7E55540
0BFF90BFFFD0
ENDCHAR
STARTCHAR Oslashacute
ENCODING 510
SWIDTH 558 0
DWIDTH 18 0
BBX 15 27 1 0
BITMAP
00001900
00007C00
0000B400
0001D000
00028000
00000000
00000000
01BFFE48
0BA55AEC
1E0000B4
1D0000F4
2C0002F4
2C000774
2C001D74
2C003874
2C00A074
2C01C074
2C074074
2C0E0074
2C280074
2C700074
2DD00074
2F800074
1E000074
1E0000B0
3B955BD0
61BFFE40
ENDCHAR
STARTCHAR oslashacute
ENCODING 511
SWIDTH 521 0
DWIDTH 17 0
BBX 15 22 1 0
BITMAP
00003C00
0000B400
0001D000
00034000
00000000
00000000
01BFF800
0BA56F68
0E0003F0
1D0002C0
2C000BD0
2C0029D0
2C00A1D0
2C0381D0
2C0E01D0
2C3801D0
2DE001D0
2F8001D0
1E0002C0
7E0003C0
EB956F40
41BFF900
ENDCHAR
STARTCHAR uni0218
ENCODING 536
SWIDTH 562 0
DWIDTH 18 0
BBX 14 27 2 -7
BITMAP
06FFF900
1F956F40
380003C0
740001D0
740001D0
74000090
74000000
38000000
2F400000
06FE5000
001AFD00
00001F40
000002C0
000001D0
700001D0
740001D0
740001D0
380002C0
1F956F40
06FFF900
00000000
00070000
000B0000
000B0000
000A0000
00090000
00040000
ENDCHAR
STARTCHAR uni0219
ENCODING 537
SWIDTH 427 0
DWIDTH 14 0
BBX 11 24 1 -8
BITMAP
0BFFF4
2E5550
780000
740000
740000
3C0000
1F9000
01BE00
001BE0
0000B8
00002C
00002C
00002C
00003C
1556F4
7FFF90
000000
002C00
002C00
002C00
002800
002400
002000
001000
ENDCHAR
STARTCHAR circumflex
ENCODING 710
SWIDTH 326 0
DWIDTH 10 0
BBX 6 4 2 18
BITMAP
0F40
29C0
34A0
A070
ENDCHAR
STARTCHAR caron
ENCODING 711
SWIDTH 326 0
DWIDTH 10 0
BBX 6 4 2 18
BITMAP
A070
34A0
29C0
0B40
ENDCHAR
STARTCHAR uni02C9
ENCODING 713
SWIDTH 358 0
DWIDTH 11 0
BBX 8 2 2 18
BITMAP
FFFD
5554
ENDCHAR
STARTCHAR breve
ENCODING 728
SWIDTH 332 0
DWIDTH 11 0
BBX 7 4 2 18
BITMAP
D024
9024
6070
2F90
ENDCHAR
STARTCHAR dotaccent
ENCODING 729
SWIDTH 183 0
DWIDTH 6 0
BBX 2 4 2 18
BITMAP
E0
E0
E0
E0
ENDCHAR
STARTCHAR ring
ENCODING 730
SWIDTH 297 0
DWIDTH 10 0
BBX 6 6 1 16
BITMAP
2FD0
75A0
6030
6460
3FD0
0500
ENDCHAR
STARTCHAR ogonek
ENCODING 731
SWIDTH 243 0
DWIDTH 8 0
BBX 4 5 2 -4
BITMAP
08
24
60
BD
10
ENDCHAR
STARTCHAR tilde
ENCODING 732
SWIDTH 369 0
DWIDTH 12 0
BBX 7 5 2 17
BITMAP
C1F4
C2A8
970C
BE0C
1404
ENDCHAR
STARTCHAR hungarumlaut
ENCODING 733
SWIDTH 377 0
DWIDTH 12 0
BBX 8 4 2 18
BITMAP
0E0E
2C2C
3474
A090
ENDCHAR
STARTCHAR Mu
ENCODING 924
SWIDTH 527 0
DWIDTH 17 0
BBX 13 22 2 -5
BITMAP
10000100
74000740
74000740
74000740
74000740
74000740
74000740
74000740
74000740
74000740
74000740
74000740
74000740
74000740
78000F40
7E406F40
7BFFE740
74550100
74000000
74000000
74000000
10000000
ENDCHAR
STARTCHAR Pi
ENCODING 928
SWIDTH 605 0
DWIDTH 19 0
BBX 17 21 1 -1
BITMAP
BFFFFFFFC0
56E555E540
01D000E000
01D000E000
01D000E000
01D000E000
01D000E000
01D000E000
01D000E000
01D000E000
01D000E000
01D000E000
01D000E000
01D000E000
01D000E000
01D000E000
01D000E000
01D000E000
01D000E000
01D000E000
0040004000
ENDCHAR
STARTCHAR Sigma
ENCODING 931
SWIDTH 481 0
DWIDTH 15 0
BBX 12 21 2 -1
BITMAP
FFFFFE
F55554
780000
2D0000
0E0000
074000
02C000
01E000
00B400
003C00
002C00
007800
00F000
02D000
078000
0F0000
2D0000
780000
B40000
FFFFFE
555554
ENDCHAR
STARTCHAR uni0901
ENCODING 2305
SWIDTH 0 0
DWIDTH 0 0
BBX 11 7 -9 21
BITMAP
007000
501024
A00034
B00074
7901B0
1FFFD0
015500
ENDCHAR
STARTCHAR uni0902
ENCODING 2306
SWIDTH 0 0
DWIDTH 0 0
BBX 2 2 -5 23
BITMAP
B0
10
ENDCHAR
STARTCHAR uni0903
ENCODING 2307
SWIDTH 247 0
DWIDTH 8 0
BBX 2 12 3 2
BITMAP
E0
E0
00
00
00
00
00
00
00
00
E0
E0
ENDCHAR
STARTCHAR uni0905
ENCODING 2309
SWIDTH 598 0
DWIDTH 19 0
BBX 19 20 1 0
BITMAP
2FF8001FF8
156F001E54
0003801D00
0002C01D00
0001C01D00
0001C01D00
0002C01D00
0003801D00
001B401D00
0FFD001D00
055B401D00
0002FFFD00
0002D56D00
0001C01D00
0001C01D00
0002C01D00
001B401D00
BFFD001D00
5550001D00
0000001C00
ENDCHAR
STARTCHAR uni0906
ENCODING 2310
SWIDTH 828 0
DWIDTH 27 0
BBX 26 20 1 0
BITMAP
2FF8001FFFFFF0
156F001D557950
0007801C003800
0002C01C003800
0002C01C003800
0001C01C003800
0002C01C003800
0003801C003800
001B401C003800
0FFD001C003800
055B401C003800
0003FFFC003800
0002D56C003800
0001C01C003800
0002C01C003800
0002C01C003800
001B401C003800
FFFD001C003800
5550001C003800
0000001C002400
ENDCHAR
STARTCHAR uni0907
ENCODING 2311
SWIDTH 478 0
DWIDTH 15 0
BBX 17 21 -1 -1
BITMAP
7FFFFFFF80
155556E540
000001D000
000001D000
000001D000
006FFFD000
01E5554000
02C0000000
02C0000000
02C0000000
01E4000000
007FFF8000
000555E000
0000007000
0280007400
0280007400
02C0007000
02E401F000
02AFFF9000
0285540000
0280000000
ENDCHAR
STARTCHAR uni0908
ENCODING 2312
SWIDTH 478 0
DWIDTH 15 0
BBX 17 29 -1 -1
BITMAP
000002FD00
00000F9400
00002C0000
0000380000
0000380000
0000380000
0000380000
0000280000
7FFFFFFF80
155556E540
000001D000
000001D000
000001D000
006FFFD000
01E5554000
02C0000000
02C0000000
02C0000000
01E4000000
007FFF8000
000555E000
0000007000
0280007400
0280007400
02C0007000
02E401F000
02AFFF9000
0285540000
0280000000
ENDCHAR
STARTCHAR uni0909
ENCODING 2313
SWIDTH 471 0
DWIDTH 15 0
BBX 17 21 -1 -1
BITMAP
7FFFFFFF40
15555B9500
000001D000
000000E000
000000A000
000000A000
000000E000
000001D000
000007C000
0003FF0000
00015BC000
000001E000
000000A000
070000B000
070000B000
070000B000
074000A000
038000E000
02E407C000
00BFFE4000
0005500000
ENDCHAR
STARTCHAR uni090A
ENCODING 2314
SWIDTH 661 0
DWIDTH 21 0
BBX 23 21 -1 -1
BITMAP
7FFFFFFFFFF8
15555B955554
000001D00000
000000E00000
000000A00000
000000A00000
000000E00000
000001E00000
000007D00000
0003FF400000
00015BFFFD00
000001E55B40
000000A002C0
070000B001C0
070000B001C0
070000B001C0
074000A002C0
038000E01B80
02E407C1FE00
00BFFE405000
000550000000
ENDCHAR
STARTCHAR uni090B
ENCODING 2315
SWIDTH 753 0
DWIDTH 24 0
BBX 26 21 -1 -1
BITMAP
7FFFFFFFFFFFE0
155555F5555540
000000A0000000
000000A0000000
000000A0000000
000000A0000000
006FFDA001F800
01F55BE00BA800
02C001E03D2800
038000E1F42800
038000A7802800
038000BE003800
024000B407F800
000002E01E5000
00001FA0380000
000078A0380000
0002E0A0380000
000B40A0380000
007D00A02D0000
01E000A00BFC00
00400010005400
ENDCHAR
STARTCHAR uni090C
ENCODING 2316
SWIDTH 676 0
DWIDTH 22 0
BBX 23 27 -1 -7
BITMAP
7FFFFFFFFFFC
155555555F54
000000000E00
000000000E00
000000000E00
000000000E00
002FE47FDE00
00F96DE5BE00
01D00B801E00
02C007400E00
028007400E00
028007400E00
028007400E00
028001000E00
02C000000E00
02D000000E00
00F400000E00
007FF0000E00
00015001FE00
000000079400
0000000A0000
0000000E0000
0000000E0000
0000000E0004
0000000791BC
00000001FFE0
000000001500
ENDCHAR
STARTCHAR uni090D
ENCODING 2317
SWIDTH 521 0
DWIDTH 17 0
BBX 19 28 -1 0
BITMAP
0034002800
0034003800
002D00B400
000BFFD000
0000550000
0000000000
0000000000
0000000000
7FFFFFFFF4
15E5555E50
00D0000E00
00D0000E00
00D0000E00
00D0000E00
00D0000E00
00D0000E00
00D0001D00
00D0007C00
00D01FE000
00D0050000
00D0000000
00D0000000
00D0000000
00E0000000
00B0000000
007D000000
001FFFF800
0000555400
ENDCHAR
STARTCHAR uni090E
ENCODING 2318
SWIDTH 522 0
DWIDTH 17 0
BBX 19 28 -1 0
BITMAP
0002C00000
0002C00000
0001E00000
0000B90000
00001F8000
000001F400
0000002D00
0000000E00
7FFFFFFFF4
15E5555E50
00D0000E00
00D0000E00
00D0000E00
00D0000E00
00D0000E00
00D0000E00
00D0001D00
00D0007C00
00D01FE000
00D0050000
00D0000000
00D0000000
00D0000000
00E0000000
00B0000000
007D000000
001FFFF800
0000555400
ENDCHAR
STARTCHAR uni090F
ENCODING 2319
SWIDTH 526 0
DWIDTH 17 0
BBX 19 20 -1 0
BITMAP
7FFFFFFFF4
15E5555E50
00D0000E00
00D0000E00
00D0000E00
00D0000E00
00D0000E00
00D0000E00
00D0001D00
00D0007C00
00D01FE000
00D0050000
00D0000000
00D0000000
00D0000000
00E0000000
00B0000000
007D000000
001FFFF800
0000555400
ENDCHAR
STARTCHAR uni0910
ENCODING 2320
SWIDTH 526 0
DWIDTH 17 0
BBX 19 28 -1 0
BITMAP
0000380000
00002D0000
00000F0000
0000078000
000001D000
000000B000
0000003800
0000001D00
7FFFFFFFF4
15E5555E50
00D0000E00
00D0000E00
00D0000E00
00D0000E00
00D0000E00
00D0000E00
00D0001D00
00D0007C00
00D01FE000
00D0050000
00D0000000
00D0000000
00D0000000
00E0000000
00B0000000
007D000000
001FFFF800
0000555400
ENDCHAR
STARTCHAR uni0911
ENCODING 2321
SWIDTH 829 0
DWIDTH 27 0
BBX 26 27 1 0
BITMAP
00000014000800
0000002C001D00
0000002C001C00
0000001E407800
00000007FFE000
00000000550000
00000000000000
2FF8001FFFFFF0
156F001E557950
0003801D003800
0002C01D003800
0001C01D003800
0001C01D003800
0002C01D003800
0003801D003800
001B401D003800
0FFD001D003800
055B401D003800
0002FFFD003800
0002D56D003800
0001C01D003800
0001C01D003800
0002C01D003800
001B401D003800
BFFD001D003800
5550001D003800
0000001C002400
ENDCHAR
STARTCHAR uni0912
ENCODING 2322
SWIDTH 828 0
DWIDTH 27 0
BBX 26 28 1 0
BITMAP
0000000A000000
0000000B000000
00000007400000
00000002E40000
000000007E0000
0000000007D000
0000000000B400
00000000003800
2FF8001FFFFFF0
156F001E557950
0003801D003800
0002C01D003800
0001C01D003800
0001C01D003800
0002C01D003800
0003801D003800
001B401D003800
0FFD001D003800
055B401D003800
0002FFFD003800
0002D56D003800
0001C01D003800
0001C01D003800
0002C01D003800
001B401D003800
BFFD001D003800
5550001D003800
0000001C002400
ENDCHAR
STARTCHAR uni0913
ENCODING 2323
SWIDTH 829 0
DWIDTH 27 0
BBX 26 28 1 0
BITMAP
00000001E00000
00000000B40000
000000003C0000
000000001E0000
000000000B4000
0000000002C000
0000000000E000
00000000007400
2FF8001FFFFFF0
156F001E557950
0003801D003800
0002C01D003800
0001C01D003800
0001C01D003800
0002C01D003800
0003801D003800
001B401D003800
0FFD001D003800
055B401D003800
0002FFFD003800
0002D56D003800
0001C01D003800
0001C01D003800
0002C01D003800
001B401D003800
BFFD001D003800
5550001D003800
0000001C002400
ENDCHAR
STARTCHAR uni0914
ENCODING 2324
SWIDTH 829 0
DWIDTH 27 0
BBX 26 28 1 0
BITMAP
00000001D03800
00000000F03800
00000000783800
000000002D3800
000000000A2800
00000000036800
0000000001E800
00000000007800
2FF8001FFFFFF0
156F001E557950
0003801D003800
0002C01D003800
0001C01D003800
0001C01D003800
0002C01D003800
0003801D003800
001B401D003800
0FFD001D003800
055B401D003800
0002FFFD003800
0002D56D003800
0001C01D003800
0001C01D003800
0002C01D003800
001B401D003800
BFFD001D003800
5550001D003800
0000001C002400
ENDCHAR
STARTCHAR uni0915
ENCODING 2325
SWIDTH 725 0
DWIDTH 23 0
BBX 25 20 -1 0
BITMAP
7FFFFFFFFFFF80
155555E5555540
000000D0000000
000000D0000000
000000D0000000
006FD0DBFE4000
00F540F957D000
02C000E000F000
038000D0007000
034000D0007400
034000D0007400
034000D0007400
034000D0007400
038001D0007400
02C002D000B000
01E41BD006D000
007FFDD1FF4000
000550D0540000
000000D0000000
000000D0000000
ENDCHAR
STARTCHAR uni0916
ENCODING 2326
SWIDTH 696 0
DWIDTH 22 0
BBX 24 20 -1 0
BITMAP
7FFFFFFFFFFE
1556E5555B95
0001D0000740
0001D0000740
0001D0000740
0001D02F4740
0001D0F50740
0001C1D00740
0002C2C00740
000782800740
0FFE02800740
0B5002C00740
038002C00B40
01E000F46F40
00B4007FF740
002C00054740
000E00000740
000740000740
0002C0000740
0000A0000340
ENDCHAR
STARTCHAR uni0917
ENCODING 2327
SWIDTH 494 0
DWIDTH 16 0
BBX 18 20 -1 0
BITMAP
7FFFFFFFD0
157D55B540
002800B000
002800B000
002800B000
002800B000
002800B000
002800B000
002800B000
003800B000
003800B000
01B400B000
1FD000B000
050000B000
000000B000
000000B000
000000B000
000000B000
000000B000
000000A000
ENDCHAR
STARTCHAR uni0918
ENCODING 2328
SWIDTH 559 0
DWIDTH 18 0
BBX 20 20 -1 0
BITMAP
7FFFFFFFFD
15F9555B54
01D0000B00
02C0000B00
02C0000B00
02C0000B00
02C0000B00
00E4000B00
003FE00B00
00F5500B00
01D0000B00
02C0000B00
02C0000B00
02C0000B00
02C0000F00
00F4007F00
007FFFEB00
0005550B00
0000000B00
0000000600
ENDCHAR
STARTCHAR uni0919
ENCODING 2329
SWIDTH 505 0
DWIDTH 16 0
BBX 18 21 -1 -1
BITMAP
7FFFFFFFE0
155556E550
000001D000
000001D000
000001D000
006FFFD000
00E5554000
01C0000000
02C0000000
01C0000B00
01E4000100
007FFF8000
000556E000
000000B000
0000007400
0140007400
0280007400
02C000B000
01E401E000
007FFF8000
0005540000
ENDCHAR
STARTCHAR uni091A
ENCODING 2330
SWIDTH 563 0
DWIDTH 18 0
BBX 20 20 -1 0
BITMAP
7FFFFFFFFD
1555555B54
0000000700
0000000700
0000000700
0000000700
1FFFFD0700
056E540700
0074000700
00B0000700
00B0000700
00B0000700
00B0000B00
0074000F00
002D406F00
000BFFEB00
0000550700
0000000700
0000000700
0000000700
ENDCHAR
STARTCHAR uni091B
ENCODING 2331
SWIDTH 581 0
DWIDTH 19 0
BBX 20 19 -1 1
BITMAP
7FFFFFFFFF
15F9555795
01D0000340
02C0000340
02C0000340
02C0000740
02C001FF00
01D0005B80
00F40002C0
003FD001D0
00B94001D0
01D00001D0
02C00001D0
02C00001D0
02C00001D0
01D00002C0
00F4001B40
007FFFFE00
0001555000
ENDCHAR
STARTCHAR uni091C
ENCODING 2332
SWIDTH 547 0
DWIDTH 18 0
BBX 19 20 -1 0
BITMAP
7FFFFFFFFC
1555555E54
0000000E00
0000000E00
0000000E00
0000000E00
0000000E00
02FFFFFE00
0157D55E00
0000E00E00
0000B00E00
0000B00E00
0000B00E00
0000B00E00
0000E00E00
0006D00E00
0FFF400E00
0554000E00
0000000E00
0000000900
ENDCHAR
STARTCHAR uni091D
ENCODING 2333
SWIDTH 664 0
DWIDTH 21 0
BBX 23 21 -1 -1
BITMAP
7FFFFFFFFFF8
15555B956E54
000007401D00
000007401D00
000007401D00
006FFF401D00
01E555001D00
02C000001D00
02C000001D00
02C000001D00
01E400001D00
007FFFFFFD00
000557955D00
000001C01D00
028001D01D00
028001C01D00
02E407C01D00
02AFFE401D00
028550001D00
028000001D00
028000000000
ENDCHAR
STARTCHAR uni091E
ENCODING 2334
SWIDTH 592 0
DWIDTH 19 0
BBX 21 20 -1 0
BITMAP
7FFFFFFFFF40
15555556D500
00000002C000
00000002C000
00000002C000
03FF4002C000
0156E002C000
0000B002C000
00007402C000
00003402C000
00003FFFC000
00003956C000
00003402C000
00007402C000
0000B002C000
0005E002C000
0BFF8002C000
01540002C000
00000002C000
00000001C000
ENDCHAR
STARTCHAR uni091F
ENCODING 2335
SWIDTH 485 0
DWIDTH 16 0
BBX 17 19 -1 1
BITMAP
7FFFFFFFC0
155556D540
000001C000
000001C000
000001C000
000001C000
002FFFC000
00F9554000
02D0000000
0280000000
0380000000
0380000000
0380001800
0380002C00
0280002C00
02C0003800
00F401B400
007FFFD000
0001540000
ENDCHAR
STARTCHAR uni0920
ENCODING 2336
SWIDTH 512 0
DWIDTH 16 0
BBX 18 19 -1 1
BITMAP
7FFFFFFFE0
155555E550
000000E000
000000E000
000000D000
000006C000
002FFF8000
00F955F000
02D0003800
0280002C00
0380002C00
0380002C00
0380002C00
0380002C00
0380002C00
02C0003800
01F401B400
007FFFD000
0001550000
ENDCHAR
STARTCHAR uni0921
ENCODING 2337
SWIDTH 475 0
DWIDTH 15 0
BBX 17 21 -1 -1
BITMAP
7FFFFFFF80
155556E540
000001D000
000001D000
000001D000
006FFFD000
00F5554000
01D0000000
02C0000000
02C0000000
01C0000000
00E4000000
007FFF8000
000156E000
000000B000
0000007400
0280007400
02C000B000
01E401E000
007FFF8000
0005540000
ENDCHAR
STARTCHAR uni0922
ENCODING 2338
SWIDTH 485 0
DWIDTH 16 0
BBX 17 19 -1 1
BITMAP
7FFFFFFFC0
155556E540
000001D000
000001D000
000001D000
000001D000
002FFFD000
00F9554000
01D0000000
02C0000000
0280000000
02801FE000
0280397800
0280702C00
0280601C00
02C0002C00
00F4017800
006FFFE000
0001550000
ENDCHAR
STARTCHAR uni0923
ENCODING 2339
SWIDTH 681 0
DWIDTH 22 0
BBX 24 20 -1 0
BITMAP
7FFFFFFFFFFD
16D556D55B54
01C002C00B00
01C002C00B00
01C002C00B00
01C002C00B00
01C002C00B00
01C002C00B00
01C002C00B00
01C002C00B00
01D002800B00
01D003800B00
00B41B400B00
002FFD000B00
000150000B00
000000000B00
000000000B00
000000000B00
000000000B00
000000000A00
ENDCHAR
STARTCHAR uni0924
ENCODING 2340
SWIDTH 496 0
DWIDTH 16 0
BBX 18 21 -1 -1
BITMAP
7FFFFFFFD0
155555B540
000000B000
000000B000
000000B000
000000B000
000000B000
006FFFF000
00F555B000
02C000B000
028000B000
038000B000
038000B000
038000B000
038000B000
038000B000
038000B000
02C000B000
01E400B000
007F80B000
0005001000
ENDCHAR
STARTCHAR uni0925
ENCODING 2341
SWIDTH 593 0
DWIDTH 19 0
BBX 18 20 2 0
BITMAP
07F8007FD0
2E6F00B540
380740B000
740380B000
740380B000
100380B000
000740B000
001F00B000
FFFD00B000
E54000B000
D00000B000
E00000B000
E00000B000
B00001F000
3D4017F000
0BFFFEB000
005550B000
000000B000
000000B000
0000007000
ENDCHAR
STARTCHAR uni0926
ENCODING 2342
SWIDTH 489 0
DWIDTH 16 0
BBX 17 20 -1 0
BITMAP
7FFFFFFFC0
155555F540
000000A000
000000A000
000000A000
002FFFE000
00F9554000
01D0000000
02C0000000
0280000000
0280000000
0280000000
0280007400
02C0007400
02D0007400
00F401F400
006FFFB400
0001547400
0000007400
0000007400
ENDCHAR
STARTCHAR uni0927
ENCODING 2343
SWIDTH 560 0
DWIDTH 18 0
BBX 20 20 -1 0
BITMAP
7FFF42FFFD
15F9015B54
01D0000B00
02C0000B00
02C0000B00
02C0000B00
01C0000B00
00E4000B00
003FF00B00
00F5500B00
01D0000B00
02C0000B00
02C0000B00
02C0000B00
01C0000F00
00F4007F00
007FFFEB00
0001550B00
0000000B00
0000000600
ENDCHAR
STARTCHAR uni0928
ENCODING 2344
SWIDTH 473 0
DWIDTH 15 0
BBX 17 20 -1 0
BITMAP
7FFFFFFF80
155556E540
000001D000
000001D000
000001D000
000001D000
000001D000
000001D000
01FFFFD000
079556D000
070001D000
0B0001D000
074001D000
024001D000
000001D000
000001D000
000001D000
000001D000
000001D000
000001C000
ENDCHAR
STARTCHAR uni0928093C
ENCODING 2345
SWIDTH 473 0
DWIDTH 15 0
BBX 17 21 -1 -1
BITMAP
7FFFFFFF80
155556E540
000001D000
000001D000
000001D000
000001D000
000001D000
000001D000
01FFFFD000
079556D000
070001D000
0B0001D000
074001D000
024001D000
000001D000
000001D000
000001D000
000001D000
000001D000
001D018000
0004000000
ENDCHAR
STARTCHAR uni092A
ENCODING 2346
SWIDTH 503 0
DWIDTH 16 0
BBX 18 20 -1 0
BITMAP
7FFFFFFFE0
16D555B950
01C0007400
01C0007400
01C0007400
01C0007400
01C0007400
01C0007400
01C0007400
01C0007400
01D0007400
00E000B400
00B906F400
002FFE7400
0001507400
0000007400
0000007400
0000007400
0000007400
0000007000
ENDCHAR
STARTCHAR uni092B
ENCODING 2347
SWIDTH 739 0
DWIDTH 24 0
BBX 25 20 -1 0
BITMAP
7FFFFFFFFFFFC0
16D555F5555540
01C000A0000000
01C000A0000000
01C000A0000000
01C000A7FF8000
01C000BE56E000
01C000B4007400
01C000B0003800
01C000A0003800
01D000E0003800
00E001E0003800
00B907E0003800
002FFEA0003800
000150A0007400
000000A001F000
000000A0BF8000
000000A0540000
000000A0000000
000000A0000000
ENDCHAR
STARTCHAR uni092C
ENCODING 2348
SWIDTH 491 0
DWIDTH 16 0
BBX 17 20 -1 0
BITMAP
7FFFFFFFC0
155555F540
000000A000
000000A000
000000A000
002FE0A000
00F550A000
02F000A000
03AC00A000
038B00A000
0382D0A000
0380B4A000
03801DA000
038007E000
02C002E000
01E407E000
007FFDA000
000550A000
000000A000
000000A000
ENDCHAR
STARTCHAR uni092D
ENCODING 2349
SWIDTH 491 0
DWIDTH 16 0
BBX 17 20 -1 0
BITMAP
79003FFFC0
1B4015F540
02C000A000
01C000A000
01C000A000
01C000A000
01C000A000
01C000A000
01D000A000
01FFFFE000
01D555E000
01C000A000
01C000A000
01C000A000
004000A000
000000A000
000000A000
000000A000
000000A000
000000A000
ENDCHAR
STARTCHAR uni092E
ENCODING 2350
SWIDTH 490 0
DWIDTH 16 0
BBX 17 20 -1 0
BITMAP
7FFFFFFFC0
16D555F540
01C000A000
01C000A000
01C000A000
01C000A000
01C000A000
01C000A000
01D000E000
01FFFFE000
01D555E000
01C000A000
01C000A000
01C000A000
004000A000
000000A000
000000A000
000000A000
000000A000
000000A000
ENDCHAR
STARTCHAR uni092F
ENCODING 2351
SWIDTH 564 0
DWIDTH 18 0
BBX 20 20 -1 0
BITMAP
7FFFFFFFFD
155B955B54
0001D00700
0000D00700
0000D00700
0001D00700
0007C00700
02FF400700
0294000700
0280000700
0280000700
0280000700
02C0000B00
01D0000F00
00B9017F00
002FFFE700
0001550700
0000000700
0000000700
0000000700
ENDCHAR
STARTCHAR uni0930
ENCODING 2352
SWIDTH 337 0
DWIDTH 11 0
BBX 13 20 -1 0
BITMAP
7FFFFF40
1556E500
0001D000
0001D000
0001D000
0001D000
0001D000
0001C000
0002C000
00078000
0FFE0000
0B500000
03800000
01E00000
00B40000
002C0000
001E0000
00074000
0002C000
00009000
ENDCHAR
STARTCHAR uni0930093C
ENCODING 2353
SWIDTH 347 0
DWIDTH 11 0
BBX 13 22 -1 -2
BITMAP
7FFFFF80
1555E540
0000D000
0000D000
0000D000
0000D000
0000D000
0000D000
0001D000
0007C000
0BFF0000
07940000
02C00000
00E00000
00740000
002C0000
000E0000
00074000
0002C000
0000E000
1D005000
04000000
ENDCHAR
STARTCHAR uni0932
ENCODING 2354
SWIDTH 676 0
DWIDTH 22 0
BBX 23 20 -1 0
BITMAP
7FFFFFFFFFFC
155555555F54
000000000E00
000000000E00
000000000E00
000000000E00
002FE47FDE00
00F96DE5BE00
01D00B801E00
02C007400E00
028007400E00
028007400E00
028007400E00
028001000E00
02C000000E00
02D000000E00
00F400000E00
007FF0000E00
000150000E00
000000000A00
ENDCHAR
STARTCHAR uni0933
ENCODING 2355
SWIDTH 672 0
DWIDTH 22 0
BBX 23 19 -1 1
BITMAP
7FFFFFFFFFFC
155555579554
000000034000
000000034000
000000034000
000000034000
002FF42FE400
00F56DE56D00
02C00BC00B00
028007800700
038003400740
038003400740
038003400740
038003400740
028003800740
02C007800B00
01E45EE46E00
007FF87FF800
000540054000
ENDCHAR
STARTCHAR uni0933093C
ENCODING 2356
SWIDTH 672 0
DWIDTH 22 0
BBX 23 22 -1 -2
BITMAP
7FFFFFFFFFFC
155555579554
000000034000
000000034000
000000034000
000000034000
002FF42FE400
00F56DE56D00
02C00BC00B00
028007800700
038003400740
038003400740
038003400740
038003400740
028003800740
02C007800B00
01E45EE46E00
007FF87FF800
000540054000
000000000000
000740000000
000100000000
ENDCHAR
STARTCHAR uni0935
ENCODING 2357
SWIDTH 484 0
DWIDTH 15 0
BBX 17 20 -1 0
BITMAP
7FFFFFFFC0
155555E540
000000E000
000000E000
000000E000
002FE0E000
00F540E000
02C000E000
038000E000
038000E000
038000E000
038000E000
038000E000
038000E000
02C001E000
01E417E000
007FFDE000
000550E000
000000E000
0000009000
ENDCHAR
STARTCHAR uni0936
ENCODING 2358
SWIDTH 614 0
DWIDTH 20 0
BBX 19 20 1 0
BITMAP
02FE400BFC
0F9BC00B54
1D00E00A00
2C00E00A00
2C00A00A00
2C00A00A00
0000A00A00
0000E00A00
0001D00A00
0007C00A00
BFFF400A00
7950000A00
2C00000A00
0E00000A00
0740000A00
02D0000A00
00F0000A00
0078000A00
001D000A00
000A000A00
ENDCHAR
STARTCHAR uni0937
ENCODING 2359
SWIDTH 505 0
DWIDTH 16 0
BBX 18 20 -1 0
BITMAP
7FFFFFFFE0
16E555B950
01F0007400
01EC007400
01CA007400
01C2807400
01C0E07400
01C0387400
01C01D7400
01C007B400
01D001F400
00E000B400
00B906F400
002FFE7400
0001547400
0000007400
0000007400
0000007400
0000007400
0000007400
ENDCHAR
STARTCHAR uni0938
ENCODING 2360
SWIDTH 575 0
DWIDTH 18 0
BBX 20 20 -1 0
BITMAP
7FFFFFFFFF
1557955795
0003800340
0003800340
0003800340
0003800340
0003800340
0003400340
0007400340
001E000740
0FFFFFFF40
0B55555740
0380000340
01D0000340
00B0000340
0078000340
002D000340
000E000340
0007400340
0002800340
ENDCHAR
STARTCHAR uni0939
ENCODING 2361
SWIDTH 481 0
DWIDTH 15 0
BBX 17 22 -1 -2
BITMAP
7FFFFFFF80
155555E540
000000E000
000000E000
000000E000
006FFFD000
00F5554000
01D0000000
01C0000000
01D0000000
00E4000000
002FFF8000
00B956E000
01D000B000
02C0007000
02C0007000
02C0001000
02C0000000
01D0000000
00B5000000
002FFFE000
0001554000
ENDCHAR
STARTCHAR uni093C
ENCODING 2364
SWIDTH 0 0
DWIDTH 0 0
BBX 2 2 -5 -3
BITMAP
E0
40
ENDCHAR
STARTCHAR uni093D
ENCODING 2365
SWIDTH 529 0
DWIDTH 17 0
BBX 11 21 3 -1
BITMAP
0BFFE0
2E5550
380000
380000
380000
3C0000
2D0000
0F8000
02F400
007F40
000BE0
0000B4
00002C
00001C
00001C
00001C
D0002C
B4002C
2E40B8
07FFE0
005500
ENDCHAR
STARTCHAR uni093E
ENCODING 2366
SWIDTH 231 0
DWIDTH 7 0
BBX 9 20 -1 0
BITMAP
7FFFC0
15E540
00D000
00D000
00D000
00D000
00D000
00D000
00D000
00D000
00D000
00D000
00D000
00D000
00D000
00D000
00D000
00D000
00D000
00D000
ENDCHAR
STARTCHAR uni093F
ENCODING 2367
SWIDTH 231 0
DWIDTH 7 0
BBX 21 28 -1 0
BITMAP
001BFFFFF900
007D55556F40
00F000000380
00E0000002C0
00D0000002C0
00D0000001C0
00D000000000
00E000000000
7FFFC0000000
15E540000000
00D000000000
00D000000000
00D000000000
00D000000000
00D000000000
00D000000000
00D000000000
00D000000000
00D000000000
00D000000000
00D000000000
00D000000000
00D000000000
00D000000000
00D000000000
00D000000000
00D000000000
00D000000000
ENDCHAR
STARTCHAR uni0940
ENCODING 2368
SWIDTH 231 0
DWIDTH 7 0
BBX 13 28 -5 0
BITMAP
0BFE0000
2E5B8000
7401D000
7000D000
B000D000
6000D000
0000D000
0000E000
007FFFC0
0015E540
0000D000
0000D000
0000D000
0000D000
0000D000
0000D000
0000D000
0000D000
0000D000
0000D000
0000D000
0000D000
0000D000
0000D000
0000D000
0000D000
0000D000
0000D000
ENDCHAR
STARTCHAR uni0941
ENCODING 2369
SWIDTH 0 0
DWIDTH 0 0
BBX 12 8 -11 -8
BITMAP
0007F8
00016E
E0000A
B0000B
38000B
1D000A
0B956D
01BFE4
ENDCHAR
STARTCHAR uni0942
ENCODING 2370
SWIDTH 0 0
DWIDTH 0 0
BBX 13 8 -9 -8
BITMAP
0BFE4000
2D56E000
34007400
74002C00
74001D00
34000A00
2D500740
0BF00100
ENDCHAR
STARTCHAR uni0943
ENCODING 2371
SWIDTH 0 0
DWIDTH 0 0
BBX 10 8 -9 -8
BITMAP
1FF000
795000
B00000
B00000
B00000
7000A0
3D5BD0
1BFD00
ENDCHAR
STARTCHAR uni0945
ENCODING 2373
SWIDTH 0 0
DWIDTH 0 0
BBX 11 6 -9 21
BITMAP
100010
B00034
700074
3901F0
1FFF90
005400
ENDCHAR
STARTCHAR uni0946
ENCODING 2374
SWIDTH 0 0
DWIDTH 0 0
BBX 10 10 -12 18
BITMAP
740000
340000
3C0000
1F4000
02F400
006E00
000780
0002C0
0003E0
000150
ENDCHAR
STARTCHAR uni0947
ENCODING 2375
SWIDTH 0 0
DWIDTH 0 0
BBX 8 10 -10 18
BITMAP
B000
7800
2D00
0F00
0780
02D0
00F0
0078
001E
0005
ENDCHAR
STARTCHAR uni0948
ENCODING 2376
SWIDTH 0 0
DWIDTH 0 0
BBX 8 10 -10 18
BITMAP
E01C
741C
2C1C
1E1C
0B5C
03DC
01EC
007C
002E
0005
ENDCHAR
STARTCHAR uni0949
ENCODING 2377
SWIDTH 231 0
DWIDTH 7 0
BBX 11 27 -2 0
BITMAP
200014
740038
340034
2D01B0
0BFFD0
005500
000000
1FFFF0
057950
003400
003400
003400
003400
003400
003400
003400
003400
003400
003400
003400
003400
003400
003400
003400
003400
003400
003400
ENDCHAR
STARTCHAR uni094A
ENCODING 2378
SWIDTH 231 0
DWIDTH 7 0
BBX 12 28 -4 0
BITMAP
A00000
A00000
B40000
2E0000
07E000
00BD00
000B40
000340
01FFFF
005795
000340
000340
000340
000340
000340
000340
000340
000340
000340
000340
000340
000340
000340
000340
000340
000340
000340
000340
ENDCHAR
STARTCHAR uni094B
ENCODING 2379
SWIDTH 231 0
DWIDTH 7 0
BBX 11 28 -3 0
BITMAP
740000
2C0000
0E0000
074000
02C000
00E000
007400
001C00
07FFFC
015E54
000D00
000D00
000D00
000D00
000D00
000D00
000D00
000D00
000D00
000D00
000D00
000D00
000D00
000D00
000D00
000D00
000D00
000D00
ENDCHAR
STARTCHAR uni094C
ENCODING 2380
SWIDTH 231 0
DWIDTH 7 0
BBX 11 28 -3 0
BITMAP
B40D00
380D00
1D0D00
0B0D00
028D00
00D900
007900
001E00
07FFFC
015E54
000D00
000D00
000D00
000D00
000D00
000D00
000D00
000D00
000D00
000D00
000D00
000D00
000D00
000D00
000D00
000D00
000D00
000D00
ENDCHAR
STARTCHAR uni094D
ENCODING 2381
SWIDTH 0 0
DWIDTH 0 0
BBX 5 5 -5 -7
BITMAP
7400
2C00
0E00
0740
02C0
ENDCHAR
STARTCHAR uni0950
ENCODING 2384
SWIDTH 847 0
DWIDTH 27 0
BBX 24 25 1 0
BITMAP
00000002C000
000000014000
000000000000
000000000004
00000000006D
02FF9002FFF4
0156F4015540
000038000000
00002C000000
00001C000000
00002C000000
00002C02FFE0
0001B40055B8
00BFD000001D
0055E000000D
00003400000E
00002FFF000E
00001D57400E
74001C03400E
74001C03400E
34002C03400D
38003803801D
1E41B402D06C
07FFD000BFF4
005500000500
ENDCHAR
STARTCHAR uni0951
ENCODING 2385
SWIDTH 0 0
DWIDTH 0 0
BBX 2 6 -5 22
BITMAP
70
70
70
70
70
70
ENDCHAR
STARTCHAR uni0952
ENCODING 2386
SWIDTH 0 0
DWIDTH 0 0
BBX 11 2 -14 -4
BITMAP
7FFFFC
155554
ENDCHAR
STARTCHAR uni0953
ENCODING 2387
SWIDTH 0 0
DWIDTH 0 0
BBX 5 6 -8 22
BITMAP
E000
7400
2C00
1E00
0740
0280
ENDCHAR
STARTCHAR uni0954
ENCODING 2388
SWIDTH 0 0
DWIDTH 0 0
BBX 6 6 -5 22
BITMAP
01E0
02C0
0740
0E00
2C00
7400
ENDCHAR
STARTCHAR uni0915093C
ENCODING 2392
SWIDTH 725 0
DWIDTH 23 0
BBX 25 22 -1 -2
BITMAP
7FFFFFFFFFFF80
155555E5555540
000000D0000000
000000D0000000
000000D0000000
006FD0DBFE4000
00F540F957D000
02C000F000F000
038000D0007000
034000D0007400
034000D0007400
034000D0007400
034000D0007400
038001D0007400
02C002D000B000
01E41BD006D000
007FFDD1FF4000
000550D0540000
000000D0000000
000000D0000000
001D0000000000
00040000000000
ENDCHAR
STARTCHAR uni0916093C
ENCODING 2393
SWIDTH 696 0
DWIDTH 22 0
BBX 24 22 -1 -2
BITMAP
7FFFFFFFFFFE
1556E5555B95
0001D0000740
0001D0000740
0001D0000740
0001D02F4740
0001D0F50740
0001C1D00740
0002C2C00740
000782800740
0FFE02800740
0B5002C00740
038002C00B40
01D000F46F40
00B4007FF740
003800054740
001E00000740
000B40000740
0003C0000740
0001E0000340
0B0000000100
010000000000
ENDCHAR
STARTCHAR uni0917093C
ENCODING 2394
SWIDTH 494 0
DWIDTH 16 0
BBX 18 22 -1 -2
BITMAP
7FFFFFFFD0
157D55B540
002800B000
002800B000
002800B000
002800B000
002800B000
002800B000
002800B000
003800B000
003800B000
01B400B000
1FD000B000
050000B000
000000B000
000000B000
000000B000
000000B000
000000B000
000000B000
00E0005000
0050000000
ENDCHAR
STARTCHAR uni091C093C
ENCODING 2395
SWIDTH 547 0
DWIDTH 18 0
BBX 19 22 -1 -2
BITMAP
7FFFFFFFFC
1555555E54
0000000E00
0000000E00
0000000E00
0000000E00
0000000E00
02FFFFFE00
0157D55E00
0000E00E00
0000B00E00
0000B00E00
0000B00E00
0000B00E00
0000E00E00
0006D00E00
0FFF400E00
0554000E00
0000000E00
0000000E00
01D0000000
0040000000
ENDCHAR
STARTCHAR uni0921093C
ENCODING 2396
SWIDTH 475 0
DWIDTH 15 0
BBX 17 25 -1 -5
BITMAP
7FFFFFFF80
155556E540
000001D000
000001D000
000001D000
006FFFD000
00F5554000
01D0000000
02C0000000
02C0000000
01C0000000
00E4000000
007FFF8000
000156E000
000000B000
0000007400
0280007400
02C000B000
01E401E000
007FFF8000
0005540000
0000000000
0000000000
0000E00000
0000400000
ENDCHAR
STARTCHAR uni0922093C
ENCODING 2397
SWIDTH 485 0
DWIDTH 16 0
BBX 17 24 -1 -4
BITMAP
7FFFFFFFC0
155556E540
000001D000
000001D000
000001D000
000001D000
002FFFD000
00F9554000
01D0000000
02C0000000
0280000000
02801FE000
0280397800
0280702C00
0280601C00
02C0002C00
00F4017800
006FFFE000
0001550000
0000000000
0000000000
0000000000
0000B00000
0000500000
ENDCHAR
STARTCHAR uni092B093C
ENCODING 2398
SWIDTH 739 0
DWIDTH 24 0
BBX 25 22 -1 -2
BITMAP
7FFFFFFFFFFFC0
16D555F5555540
01C000A0000000
01C000A0000000
01C000A0000000
01C000A7FF8000
01C000BE56E000
01C000B4007400
01C000B0003800
01C000A0003800
01D000E0003800
00E001E0003800
00B907E0003800
002FFEA0003800
000150A0007400
000000A001F000
000000A0BF8000
000000A0540000
000000A0000000
000000A0000000
002C0050000000
00040000000000
ENDCHAR
STARTCHAR uni092F093C
ENCODING 2399
SWIDTH 564 0
DWIDTH 18 0
BBX 20 22 -1 -2
BITMAP
7FFFFFFFFD
155B955B54
0001D00700
0000D00700
0000D00700
0001D00700
0007C00700
02FF400700
0294000700
0280000700
0280000700
0280000700
02C0000B00
01D0000F00
00B9017F00
002FFFE700
0001550700
0000000700
0000000700
0000000700
00B0000000
0010000000
ENDCHAR
STARTCHAR uni0960
ENCODING 2400
SWIDTH 753 0
DWIDTH 24 0
BBX 26 25 -1 -5
BITMAP
7FFFFFFFFFFFE0
155555F5555540
000000A0000000
000000A0000000
000000A0000000
000000A0000000
006FFDA001F800
01F55BE00BA800
02C001E02D2800
038000E1F42800
038000A7803800
038000BE0BF800
024000B42E5000
000002E0380000
00001FE0380000
000078A0380000
0002E0A02D0000
000B40A00FFC00
007D00A01E5400
01F000A0380000
01400050380000
00000000380000
000000002D0000
000000000BFD00
00000000005400
ENDCHAR
STARTCHAR uni0961
ENCODING 2401
SWIDTH 676 0
DWIDTH 22 0
BBX 23 28 -1 -8
BITMAP
7FFFFFFFFFFC
155555555F54
000000000E00
000000000E00
000000000E00
000000000E00
002FE47FDE00
00F96DE57E00
01D00B801E00
02C007400E00
028007400E00
028007400E00
028007400E00
028000000E00
02C00002FE00
02D0000B9400
00F4000E0000
007FF00E0000
0001500E0000
0000000B4000
00000002FF00
000000079500
0000000E0000
0000000E0000
0000000E0000
0000000B4000
00000002FF40
000000001500
ENDCHAR
STARTCHAR uni0964
ENCODING 2404
SWIDTH 286 0
DWIDTH 9 0
BBX 2 20 4 0
BITMAP
70
70
70
70
70
70
70
70
70
70
70
70
70
70
70
70
70
70
70
70
ENDCHAR
STARTCHAR uni0965
ENCODING 2405
SWIDTH 518 0
DWIDTH 17 0
BBX 10 20 4 0
BITMAP
7000D0
7000E0
7000E0
7000E0
7000E0
7000E0
7000E0
7000E0
7000E0
7000E0
7000E0
7000E0
7000E0
7000E0
7000E0
7000E0
7000E0
7000E0
7000E0
7000D0
ENDCHAR
STARTCHAR uni0966
ENCODING 2406
SWIDTH 519 0
DWIDTH 17 0
BBX 13 21 2 -1
BITMAP
0BFFF400
3E556D00
74000B00
B0000740
A0000740
A0000740
A0000740
A0000740
A0000740
A0000740
A0000740
A0000740
A0000740
A0000740
A0000740
A0000740
B0000740
B4000B00
3D006E00
1BFFF800
00554000
ENDCHAR
STARTCHAR uni0967
ENCODING 2407
SWIDTH 288 0
DWIDTH 9 0
BBX 7 21 0 0
BITMAP
0014
01F8
1BB8
7D38
5038
0038
0038
0038
0038
0038
0038
0038
0038
0038
0038
0038
0038
0038
0038
0038
0038
ENDCHAR
STARTCHAR uni0968
ENCODING 2408
SWIDTH 453 0
DWIDTH 15 0
BBX 13 21 1 -1
BITMAP
07FFE400
2E556D00
38000F00
74000B00
74000700
70000700
00000B00
00000E00
00002D00
0001F400
0007D000
002E0000
00B40000
07D00000
1E000000
3C000000
74000000
74000000
74000000
7FFFFF40
15555500
ENDCHAR
STARTCHAR uni0969
ENCODING 2409
SWIDTH 489 0
DWIDTH 16 0
BBX 13 21 1 -1
BITMAP
07FFF400
1E556E00
38000B00
74000740
74000340
20000340
00000740
00000700
00005E00
001FF400
00056D00
00000B00
00000740
10000340
74000340
74000340
74000740
38000B00
1E406E00
0BFFF800
00554000
ENDCHAR
STARTCHAR uni096A
ENCODING 2410
SWIDTH 453 0
DWIDTH 15 0
BBX 15 22 0 -1
BITMAP
00000400
00003E00
0000BA00
0001DA00
0002CA00
00074A00
000E0A00
002C0A00
00380A00
00B00A00
01D00A00
03800A00
07400A00
0E000A00
2C000A00
74000A00
7FFFFFF8
15555B50
00000A00
00000A00
00000A00
00000100
ENDCHAR
STARTCHAR uni096B
ENCODING 2411
SWIDTH 480 0
DWIDTH 15 0
BBX 12 21 2 -1
BITMAP
BFFFFD
B55554
A00000
A00000
A00000
A00000
A00000
A7FFE0
BD55B8
B0001D
00000E
00000E
00000E
00000E
A0000E
A0000E
B0000E
B4001D
3D007C
1BFFE0
005500
ENDCHAR
STARTCHAR uni096C
ENCODING 2412
SWIDTH 495 0
DWIDTH 16 0
BBX 13 21 2 -1
BITMAP
0BFFFD00
3E555400
74000000
B0000000
A0000000
A0000000
A0000000
A0000000
A6FFE400
BE557D00
B4000E00
B0000B00
A0000700
A0000740
A0000740
A0000740
B0000B00
B4000B00
3D006D00
1BFFF400
00554000
ENDCHAR
STARTCHAR uni096D
ENCODING 2413
SWIDTH 380 0
DWIDTH 12 0
BBX 12 21 0 -1
BITMAP
7FFFFE
15556D
00002C
000038
000074
0000B0
0000E0
0002D0
000380
000740
000B00
000E00
001D00
002C00
007800
00B000
00E000
01D000
02C000
038000
010000
ENDCHAR
STARTCHAR uni096E
ENCODING 2414
SWIDTH 523 0
DWIDTH 17 0
BBX 13 21 2 -1
BITMAP
0BFFF800
3E556E00
B4000B40
B0000340
A0000340
A0000340
B0000340
B4000740
3D005E00
0BFFF800
2E556D00
74000B00
B0000740
A0000340
A0000380
A0000340
B0000340
B4000740
3D005E00
1BFFF800
00554000
ENDCHAR
STARTCHAR uni096F
ENCODING 2415
SWIDTH 493 0
DWIDTH 16 0
BBX 13 21 1 -1
BITMAP
07FFF400
1E556E00
38000B40
74000340
74000380
74000380
74000380
74000380
74000380
38000380
2E400380
0BFFFF80
00555780
00000380
00000380
00000380
00000340
00000740
00005E00
1FFFF800
05554000
ENDCHAR
STARTCHAR uni0970
ENCODING 2416
SWIDTH 391 0
DWIDTH 13 0
BBX 11 11 1 4
BITMAP
0BFE40
2E56D0
7400F0
B00070
A00074
A00074
B00070
7400B0
3D06D0
0BFF40
005400
ENDCHAR
STARTCHAR uni0972
ENCODING 2418
SWIDTH 598 0
DWIDTH 19 0
BBX 20 27 1 0
BITMAP
0000180009
00002C000D
00001C001D
00000E407C
000007FFF4
0000005540
0000000000
2FF8001FF8
156F001E54
0003801D00
0002C01D00
0001C01D00
0001C01D00
0002C01D00
0003801D00
001B401D00
0FFD001D00
055B401D00
0002FFFD00
0002D56D00
0001C01D00
0001C01D00
0002C01D00
001B401D00
BFFD001D00
5550001D00
0000001C00
ENDCHAR
STARTCHAR Wgrave
ENCODING 7808
SWIDTH 795 0
DWIDTH 25 0
BBX 24 27 1 0
BITMAP
000050000000
0000B4000000
00002C000000
00000E000000
000007000000
000000000000
000000000000
E0000780001D
B0000BC0002C
74000ED0003C
74001DE00038
38001CB00074
2C00287000B4
2C00343400B0
1D00742800E0
0E00B02C00E0
0E00E01D01D0
0B00D00E02C0
0741C00A02C0
074280070380
038380034740
028740038740
02C70002CB00
01DA0001CE00
00ED0000DD00
00FD0000BD00
00BC0000BC00
ENDCHAR
STARTCHAR wgrave
ENCODING 7809
SWIDTH 682 0
DWIDTH 22 0
BBX 21 22 0 0
BITMAP
0002D0000000
0000B0000000
000038000000
00001D000000
000000000000
000000000000
74000F0002C0
38001F000380
2C002F400380
1D003A800740
0E0036C00B00
0A0071D00E00
0B00A0D01D00
0740D0A02C00
0381D0702800
02C1C0343400
01C280387400
00D34028B000
00A7001CE000
007B000ED000
007E000BC000
003D00078000
ENDCHAR
STARTCHAR Wacute
ENCODING 7810
SWIDTH 795 0
DWIDTH 25 0
BBX 24 27 1 0
BITMAP
000000190000
0000003C0000
000000B40000
000000E00000
000002800000
000000000000
000000000000
E0000780001D
B0000BC0002C
74000ED0003C
74001DE00038
38001CB00074
2C00287000B4
2C00343400B0
1D00742800E0
0E00B02C00E0
0E00E01D01D0
0B00D00E02C0
0741C00A02C0
074280070380
038380034740
028740038740
02C70002CB00
01DA0001CE00
00ED0000DD00
00FD0000BD00
00BC0000BC00
ENDCHAR
STARTCHAR wacute
ENCODING 7811
SWIDTH 682 0
DWIDTH 22 0
BBX 21 22 0 0
BITMAP
000000B80000
000001E00000
000002800000
000007000000
000000000000
000000000000
74000F0002C0
38001F000380
2C002F400380
1D003A800740
0E0036C00B00
0A0071D00E00
0B00A0D01D00
0740D0A02C00
0381D0702800
02C1C0343400
01C280387400
00D34028B000
00A7001CE000
007B000ED000
007E000BC000
003D00078000
ENDCHAR
STARTCHAR Wdieresis
ENCODING 7812
SWIDTH 795 0
DWIDTH 25 0
BBX 24 26 1 0
BITMAP
0000B01C0000
0000B01C0000
0000B01C0000
0000B01C0000
000000000000
000000000000
E0000780001D
B0000BC0002C
74000ED0003C
74001DE00038
38001CB00074
2C00287000B4
2C00343400B0
1D00742800E0
0E00B02C00E0
0E00E01D01D0
0B00D00E02C0
0741C00A02C0
074280070380
038380034740
028740038740
02C70002CB00
01DA0001CE00
00ED0000DD00
00FD0000BD00
00BC0000BC00
ENDCHAR
STARTCHAR wdieresis
ENCODING 7813
SWIDTH 682 0
DWIDTH 22 0
BBX 21 22 0 0
BITMAP
0001C0740000
0001C0740000
0001C0740000
0001C0740000
000000000000
000000000000
74000F0002C0
38001F000380
2C002F400380
1D003A800740
0E0036C00B00
0A0071D00E00
0B00A0D01D00
0740D0A02C00
0381D0702800
02C1C0343400
01C280387400
00D34028B000
00A7001CE000
007B000ED000
007E000BC000
003D00078000
ENDCHAR
STARTCHAR uni1E9E
ENCODING 7838
SWIDTH 542 0
DWIDTH 17 0
BBX 14 20 2 0
BITMAP
06FFFFC0
1F955780
38000740
74000B00
74001D00
74002800
74007400
7400E000
7401D000
7402FE00
74005BC0
740001D0
740000D0
740000E0
740000E0
740000E0
740001D0
740002D0
74056B80
700FF900
ENDCHAR
STARTCHAR Ygrave
ENCODING 7922
SWIDTH 493 0
DWIDTH 16 0
BBX 14 27 1 0
BITMAP
01500000
01F00000
00740000
002C0000
000D0000
00000000
00000000
E00000E0
B40002D0
38000380
2D000740
0E000E00
0B401D00
03803800
01D07400
00E0E000
0075D000
003B8000
001F4000
000E0000
000E0000
000E0000
000E0000
000E0000
000E0000
000E0000
000E0000
ENDCHAR
STARTCHAR ygrave
ENCODING 7923
SWIDTH 459 0
DWIDTH 15 0
BBX 13 26 1 -4
BITMAP
02E00000
00B40000
00280000
000D0000
00000000
00000000
E0000380
B0000740
74000B00
38000E00
2C001D00
1D002C00
0A003800
07407400
0380F000
02C1D000
01D2C000
00E38000
00B74000
007F0000
002E0000
001D0000
002C0000
00740000
16E00000
7F400000
ENDCHAR
STARTCHAR uni200B
ENCODING 8203
SWIDTH 0 0
DWIDTH 0 0
BBX 1 1 0 0
BITMAP
00
ENDCHAR
STARTCHAR uni200C
ENCODING 8204
SWIDTH 0 0
DWIDTH 0 0
BBX 2 33 -1 -7
BITMAP
50
A0
A0
A0
A0
A0
A0
A0
A0
A0
A0
A0
A0
A0
A0
A0
A0
A0
A0
A0
A0
A0
A0
A0
A0
A0
A0
A0
A0
A0
A0
A0
A0
ENDCHAR
STARTCHAR uni200D
ENCODING 8205
SWIDTH 0 0
DWIDTH 0 0
BBX 8 33 -4 -7
BITMAP
5005
B41E
2D78
0BE0
07D0
1FF4
7AAD
A28A
0280
0280
0280
0280
0280
0280
0280
0280
0280
0280
0280
0280
0280
0280
0280
0280
0280
0280
0280
0280
0280
0280
0280
0280
0280
ENDCHAR
STARTCHAR endash
ENCODING 8211
SWIDTH 408 0
DWIDTH 13 0
BBX 11 2 1 9
BITMAP
BFFFF8
555554
ENDCHAR
STARTCHAR emdash
ENCODING 8212
SWIDTH 537 0
DWIDTH 17 0
BBX 15 2 1 9
BITMAP
BFFFFFFC
55555554
ENDCHAR
STARTCHAR quoteleft
ENCODING 8216
SWIDTH 179 0
DWIDTH 6 0
BBX 2 8 2 13
BITMAP
10
20
60
A0
E0
E0
E0
E0
ENDCHAR
STARTCHAR quoteright
ENCODING 8217
SWIDTH 179 0
DWIDTH 6 0
BBX 2 8 2 12
BITMAP
E0
E0
E0
E0
D0
C0
80
40
ENDCHAR
STARTCHAR quotesinglbase
ENCODING 8218
SWIDTH 187 0
DWIDTH 6 0
BBX 2 7 2 -3
BITMAP
A0
F0
E0
E0
D0
C0
80
ENDCHAR
STARTCHAR quotedblleft
ENCODING 8220
SWIDTH 329 0
DWIDTH 11 0
BBX 7 8 2 13
BITMAP
1004
2018
6028
A028
E038
E078
E078
E034
ENDCHAR
STARTCHAR quotedblright
ENCODING 8221
SWIDTH 329 0
DWIDTH 11 0
BBX 7 8 2 12
BITMAP
E034
E078
E078
E074
D070
C070
8060
4010
ENDCHAR
STARTCHAR quotedblbase
ENCODING 8222
SWIDTH 337 0
DWIDTH 11 0
BBX 7 8 2 -4
BITMAP
A038
F038
E038
E034
D030
D030
8020
4000
ENDCHAR
STARTCHAR dagger
ENCODING 8224
SWIDTH 427 0
DWIDTH 14 0
BBX 12 20 1 0
BITMAP
003800
003800
003800
003400
002400
BFFFFD
157954
003800
003800
003800
003800
003800
003800
003800
003400
003400
002400
002400
002400
002400
ENDCHAR
STARTCHAR daggerdbl
ENCODING 8225
SWIDTH 427 0
DWIDTH 14 0
BBX 12 20 1 0
BITMAP
003800
003800
003800
003400
002400
BFFFFD
157954
003800
003800
003800
003800
003800
003800
BFFFFD
157954
002400
003400
003800
003800
003800
ENDCHAR
STARTCHAR bullet
ENCODING 8226
SWIDTH 273 0
DWIDTH 9 0
BBX 3 5 3 7
BITMAP
F8
F8
F8
F8
F8
ENDCHAR
STARTCHAR ellipsis
ENCODING 8230
SWIDTH 591 0
DWIDTH 19 0
BBX 15 4 2 0
BITMAP
B0074038
F0074038
F0074038
B0074038
ENDCHAR
STARTCHAR perthousand
ENCODING 8240
SWIDTH 1027 0
DWIDTH 33 0
BBX 31 20 1 0
BITMAP
0BF9000D00000000
2E5B401C00000000
7403803800000000
7002807000000000
700280A000000000
700281D000000000
7002828000000000
3917434000000000
1FFE0A0000000000
01500D0000000000
00001C0000000000
0000341BF800BF90
000070755A029574
0000A0A003434028
0001C0A003470028
000280A003470028
000340A003470028
000A00A007434028
000D00796E02E5B4
001C001BF800BF90
ENDCHAR
STARTCHAR guilsinglleft
ENCODING 8249
SWIDTH 290 0
DWIDTH 9 0
BBX 6 11 2 3
BITMAP
0040
01D0
0780
1E00
7800
E000
A000
2800
0A00
0280
0090
ENDCHAR
STARTCHAR guilsinglright
ENCODING 8250
SWIDTH 290 0
DWIDTH 9 0
BBX 6 11 2 3
BITMAP
4000
D000
7800
1E00
0780
01D0
02C0
0B40
2D00
B400
D000
ENDCHAR
STARTCHAR fraction
ENCODING 8260
SWIDTH 117 0
DWIDTH 4 0
BBX 16 20 -6 0
BITMAP
0000000A
0000001C
00000074
000000E0
00000280
00000B00
00001D00
00003800
0000A000
0002C000
00074000
000D0000
00280000
00B00000
01D00000
03400000
0A000000
2C000000
74000000
D0000000
ENDCHAR
STARTCHAR Euro
ENCODING 8364
SWIDTH 523 0
DWIDTH 17 0
BBX 14 20 1 0
BITMAP
006FF900
02E95B80
078002D0
074000E0
0B0000E0
0B000000
0B400000
BFFFE000
5B554000
0B000000
0B400000
BFFFE000
5B554000
0B000000
0B000090
0B0000E0
074001D0
038002D0
02E96B80
006FF900
ENDCHAR
STARTCHAR uni20B9
ENCODING 8377
SWIDTH 414 0
DWIDTH 13 0
BBX 12 20 1 0
BITMAP
BFFFFD
55BD54
001D00
000E00
000E00
BFFFFD
555E54
000E00
001D00
007C00
BFF400
B90000
2C0000
0E0000
078000
02D000
00B000
003800
001E00
000700
ENDCHAR
STARTCHAR trademark
ENCODING 8482
SWIDTH 591 0
DWIDTH 19 0
BBX 15 9 2 13
BITMAP
55504004
FFF2C02C
0602E07C
0602B0AC
0602999C
06028E5C
0602861C
0602801C
05014008
ENDCHAR
STARTCHAR uni2126
ENCODING 8486
SWIDTH 629 0
DWIDTH 20 0
BBX 18 21 1 -1
BITMAP
00BFFFE000
03E5557C00
0B40000E00
0A00000B00
0E00000B00
0E00000B00
0E00000B00
0E00000B00
0E00000B00
0E00000B00
0E00000B00
0E00000B00
0E00000B00
0E00000B00
0E00000B00
0E00000B00
0A00000B00
0700000E00
02D0006C00
BFFF0BFFF0
5555055550
ENDCHAR
STARTCHAR partialdiff
ENCODING 8706
SWIDTH 481 0
DWIDTH 15 0
BBX 12 21 2 -1
BITMAP
0FE400
056F40
0002D0
000074
000038
00001C
00001D
1BFF9D
7D55BD
B0002D
E0001D
E0001D
E0000D
E0000D
E0000D
E0000D
E0001D
B0002D
7901B8
1FFFE0
015500
ENDCHAR
STARTCHAR uni2206
ENCODING 8710
SWIDTH 594 0
DWIDTH 19 0
BBX 17 22 1 -1
BITMAP
0000400000
0002E00000
0003F00000
0007780000
000E2C0000
001D1D0000
002C0E0000
00380B0000
0074074000
00B0038000
00E002C000
01D001D000
03C000F000
0780007400
0B00003800
0E00002C00
1D00001D00
2C00000E00
3800000B00
7400000740
FFFFFFFFC0
5555555540
ENDCHAR
STARTCHAR minus
ENCODING 8722
SWIDTH 523 0
DWIDTH 17 0
BBX 13 2 2 9
BITMAP
BFFFFF40
55555500
ENDCHAR
STARTCHAR approxequal
ENCODING 8776
SWIDTH 523 0
DWIDTH 17 0
BBX 13 8 2 6
BITMAP
6FE94640
A56BFF40
00005000
00000000
00000000
6FE94640
A56BFF40
00005000
ENDCHAR
STARTCHAR notequal
ENCODING 8800
SWIDTH 523 0
DWIDTH 17 0
BBX 13 15 2 3
BITMAP
00004000
0000D000
00028000
00038000
BFFFFF40
555A5500
000D0000
001C0000
00280000
00380000
BFFFFF40
55A55500
00D00000
01C00000
01800000
ENDCHAR
STARTCHAR lessequal
ENCODING 8804
SWIDTH 523 0
DWIDTH 17 0
BBX 13 13 2 3
BITMAP
00000640
0005BE40
01BF9000
6FE40000
B8000000
6F900000
01BE5000
0006FE00
00001B40
00000000
00000000
BFFFFF40
55555500
ENDCHAR
STARTCHAR greaterequal
ENCODING 8805
SWIDTH 523 0
DWIDTH 17 0
BBX 13 13 2 3
BITMAP
A4000000
6F900000
01BE5000
0006FE00
00001F40
0001BE40
01BF9000
6FE40000
A5000000
00000000
00000000
BFFFFF40
55555500
ENDCHAR
STARTCHAR uni25CC
ENCODING 9676
SWIDTH 701 0
DWIDTH 22 0
BBX 19 19 2 1
BITMAP
0001E19000
01A2F2F000
02F191E000
01E0000780
0000000BC0
2D00000640
7E000000A0
28000000F8
00000000B4
7800000000
BC00000000
68000001E0
00000001F4
0B400000A0
0F80001E00
0659002F00
002F1E1900
001E2F0000
00001A0000
ENDCHAR
STARTCHAR commaaccent
ENCODING 63171
SWIDTH 0 0
DWIDTH 0 0
BBX 2 7 6 -8
BITMAP
B0
B0
B0
B0
A0
90
80
ENDCHAR
STARTCHAR .notdef
ENCODING -1
SWIDTH 600 0
DWIDTH 19 0
BBX 12 19 4 -1
BITMAP
FFFFFD
E5555D
D0001D
D0001D
D0001D
D0001D
D0001D
D0001D
D0001D
D0001D
D0001D
D0001D
D0001D
D0001D
D0001D
D0001D
D0001D
FFFFFD
555554
ENDCHAR
STARTCHAR .null
ENCODING -1
SWIDTH 0 0
DWIDTH 0 0
BBX 1 1 0 0
BITMAP
00
ENDCHAR
STARTCHAR nonmarkingreturn
ENCODING -1
SWIDTH 333 0
DWIDTH 11 0
BBX 1 1 0 0
BITMAP
00
ENDCHAR
STARTCHAR uni0915094D
ENCODING -1
SWIDTH 519 0
DWIDTH 17 0
BBX 22 20 -1 0
BITMAP
7FFFFFFFFFE0
155555E55550
000000D00000
000000D00000
000000D00000
006FD0DBFE40
00F540F956D0
02C000E000A0
038000D00000
034000D00000
034000D00000
034000D00000
034000D00000
038001D00000
02C002D00000
01E41BD00000
007FFDD00000
000550D00000
000000D00000
000000D00000
ENDCHAR
STARTCHAR uni0916094D
ENCODING -1
SWIDTH 468 0
DWIDTH 15 0
BBX 20 20 -1 0
BITMAP
7FFFFFFFFD
1556E55554
0001D00000
0001D00000
0001D00000
0001D02F40
0001D0F500
0001C1D000
0002C2C000
0007828000
0FFE028000
0B5002C000
038002C000
01E000F41E
00B4007FF4
002C000540
000E000000
0007400000
0002C00000
0000A00000
ENDCHAR
STARTCHAR uni0917094D
ENCODING -1
SWIDTH 264 0
DWIDTH 8 0
BBX 10 14 -1 6
BITMAP
7FFFF0
157D50
002800
002800
002800
002800
002800
002800
002800
003800
003800
01B400
1FD000
050000
ENDCHAR
STARTCHAR uni0918094D
ENCODING -1
SWIDTH 321 0
DWIDTH 10 0
BBX 16 18 -1 2
BITMAP
7FFFFFFD
15F95554
01D00000
02C00000
02C00000
02C00000
02C00000
00E40000
003FE000
00F55000
01D00000
02C00000
02C00000
02C00000
02C00008
00F40078
007FFFE0
00055500
ENDCHAR
STARTCHAR uni0919094D
ENCODING -1
SWIDTH 505 0
DWIDTH 16 0
BBX 18 27 -1 -7
BITMAP
7FFFFFFFE0
155556E550
000001D000
000001D000
000001D000
006FFFD000
00E5554000
01C0000000
02C0000000
01C0000B00
01E4000100
007FFF8000
000556E000
000000B000
0000007400
0140007400
0280007400
02C000B000
01E401E000
007FFF8000
0005540000
0000000000
0000E00000
0000740000
00002D0000
00000F0000
0000074000
ENDCHAR
STARTCHAR uni091A094D
ENCODING -1
SWIDTH 330 0
DWIDTH 11 0
BBX 16 17 -1 3
BITMAP
7FFFFFFD
15555554
00000000
00000000
00000000
00000000
1FFFFD00
056E5400
00740000
00B00000
00B00000
00B00000
00B00000
00740009
002D407C
000BFFE0
00005500
ENDCHAR
STARTCHAR uni091B094D
ENCODING -1
SWIDTH 581 0
DWIDTH 19 0
BBX 20 19 -1 1
BITMAP
7FFFFFFFFF
15F9555555
01D0000000
02C0000000
02C0000000
02C001FE00
02C0005B80
01D00002C0
00F40001D0
003FD001D0
00B94001D0
01D00001D0
02C00001D0
02C00001D0
02C00001D0
01D00002C0
00F4001B80
007FFFFE00
0001555000
ENDCHAR
STARTCHAR uni091C094D
ENCODING -1
SWIDTH 309 0
DWIDTH 10 0
BBX 15 18 -1 2
BITMAP
7FFFFFF4
15555550
00000000
00000000
00000000
00000000
00000000
02FFFFF4
0157D550
0000E000
0000B000
0000B000
0000B000
0000B000
0000E000
0006D000
0FFF4000
05540000
ENDCHAR
STARTCHAR uni091D094D
ENCODING -1
SWIDTH 432 0
DWIDTH 14 0
BBX 18 21 -1 -1
BITMAP
7FFFFFFFF0
15555B9550
0000074000
0000074000
0000074000
007FFF4000
01E5550000
02C0000000
02C0000000
01E4000000
00BFFFFFF0
00055B9550
000002C000
028001D000
028001D000
02C001C000
02E4078000
02AFFE0000
0285500000
0280000000
0280000000
ENDCHAR
STARTCHAR uni091E094D
ENCODING -1
SWIDTH 359 0
DWIDTH 11 0
BBX 16 18 -1 2
BITMAP
7FFFFFFE
15555555
00000000
00000000
00000000
03FF4000
0156E000
0000B000
00007400
00003400
00003FFE
00003955
00003400
00007400
0000B000
0005E000
0BFF8000
01540000
ENDCHAR
STARTCHAR uni091F094D
ENCODING -1
SWIDTH 485 0
DWIDTH 16 0
BBX 17 26 -1 -6
BITMAP
7FFFFFFFC0
155556D540
000001C000
000001C000
000001C000
000001C000
002FFFC000
00F9554000
02D0000000
0280000000
0380000000
0380000000
0380001800
0380002C00
0280002C00
02C0003800
00F401B400
007FFFD000
0001540000
0000000000
0000500000
0000740000
00002C0000
00001E0000
00000B4000
0000028000
ENDCHAR
STARTCHAR uni0920094D
ENCODING -1
SWIDTH 512 0
DWIDTH 16 0
BBX 18 26 -1 -6
BITMAP
7FFFFFFFE0
155555E550
000000E000
000000E000
000000D000
000006C000
002FFF8000
00F955F000
02D0003800
0280002C00
0380002C00
0380002C00
0380002C00
0380002C00
0380002C00
02C0003800
01F401B400
007FFFD000
0001550000
0000000000
0000500000
0000B00000
0000380000
00001D0000
00000B0000
0000024000
ENDCHAR
STARTCHAR uni0921094D
ENCODING -1
SWIDTH 475 0
DWIDTH 15 0
BBX 17 27 -1 -7
BITMAP
7FFFFFFF80
155556E540
000001D000
000001D000
000001D000
006FFFD000
00F5554000
01D0000000
02C0000000
02C0000000
01C0000000
00E4000000
007FFF8000
000156E000
000000B000
0000007400
0280007400
02C000B000
01E401E000
007FFF8000
0005540000
0000000000
0000B00000
0000380000
00001D0000
00000B0000
0000028000
ENDCHAR
STARTCHAR uni0922094D
ENCODING -1
SWIDTH 485 0
DWIDTH 16 0
BBX 17 26 -1 -6
BITMAP
7FFFFFFFC0
155556E540
000001D000
000001D000
000001D000
000001D000
002FFFD000
00F9554000
01D0000000
02C0000000
0280000000
02801FE000
0280397800
0280702C00
0280601C00
02C0002C00
00F4017800
006FFFE000
0001550000
0000000000
0000500000
0000B40000
0000380000
00001D0000
00000B4000
0000028000
ENDCHAR
STARTCHAR uni0923094D
ENCODING -1
SWIDTH 454 0
DWIDTH 15 0
BBX 16 15 -1 5
BITMAP
7FFFFFFF
16D556D5
01C002C0
01C002C0
01C002C0
01C002C0
01C002C0
01C002C0
01C002C0
01C002C0
01D00280
01D00380
00B41B40
002FFD00
00015000
ENDCHAR
STARTCHAR uni0924094D
ENCODING -1
SWIDTH 263 0
DWIDTH 8 0
BBX 13 21 -1 -1
BITMAP
7FFFFF80
15555540
00000000
00000000
00000000
00000000
00000000
006FFF80
01F55500
02C00000
02800000
03800000
03800000
03800000
03800000
03800000
03800000
02C00000
01E40000
007F8000
00050000
ENDCHAR
STARTCHAR uni0925094D
ENCODING -1
SWIDTH 359 0
DWIDTH 11 0
BBX 14 17 2 3
BITMAP
07F80000
2E6F0000
38074000
74038000
74038000
10038000
00074000
001F0000
FFFD0000
E5400000
D0000000
E0000000
E0000000
B00001D0
3D400780
0BFFFE00
00555000
ENDCHAR
STARTCHAR uni0926094D
ENCODING -1
SWIDTH 489 0
DWIDTH 16 0
BBX 17 25 -1 -5
BITMAP
7FFFFFFFC0
155555F540
000000A000
000000A000
000000A000
002FFFE000
00F9554000
01D0000000
02C0000000
0280000000
0280000000
0280000000
0280007400
02C0007400
02D0007400
00F401F400
006FFFB400
0001547400
0000007400
0000407400
0000E00000
0000740000
00002D0000
00000E0000
0000074000
ENDCHAR
STARTCHAR uni0927094D
ENCODING -1
SWIDTH 321 0
DWIDTH 10 0
BBX 16 18 -1 2
BITMAP
7FFF83FD
15F94154
01D00000
02C00000
02C00000
02C00000
02C00000
00E40000
003FE000
00F55000
01D00000
02C00000
02C00000
02C00000
02C00008
00F40078
007FFFE0
00055500
ENDCHAR
STARTCHAR uni0928094D
ENCODING -1
SWIDTH 233 0
DWIDTH 7 0
BBX 12 14 -1 6
BITMAP
7FFFFE
155555
000000
000000
000000
000000
000000
000000
02FFFE
079554
0B0000
0A0000
0B0000
070000
ENDCHAR
STARTCHAR uni092A094D
ENCODING -1
SWIDTH 269 0
DWIDTH 9 0
BBX 14 15 -1 5
BITMAP
7FFFFFE0
16D55550
01C00000
01C00000
01C00000
01C00000
01C00000
01C00000
01C00000
01C00000
01D00000
00E00090
00B906D0
002FFE40
00015000
ENDCHAR
STARTCHAR uni092B094D
ENCODING -1
SWIDTH 530 0
DWIDTH 17 0
BBX 23 20 -1 0
BITMAP
7FFFFFFFFFF4
16D555F55550
01C000A00000
01C000A00000
01C000A00000
01C000A7FF80
01C000BE56E0
01C000B40070
01C000B00000
01C000A00000
01D000E00000
00E001E00000
00B907E00000
002FFEA00000
000150A00000
000000A00000
000000A00000
000000A00000
000000A00000
000000A00000
ENDCHAR
STARTCHAR uni092C094D
ENCODING -1
SWIDTH 265 0
DWIDTH 8 0
BBX 14 18 -1 2
BITMAP
7FFFFFD0
15555540
00000000
00000000
00000000
002FF000
00F55000
02F00000
03AC0000
038B0000
0382C000
0380B000
03802CA0
038007A0
02C002D0
01E406C0
007FFE00
00055000
ENDCHAR
STARTCHAR uni092D094D
ENCODING -1
SWIDTH 261 0
DWIDTH 8 0
BBX 13 15 -1 5
BITMAP
79003F80
1B401540
02C00000
01C00000
01C00000
01C00000
01C00000
01C00000
01D00000
01FFFF80
01D55540
01C00000
01C00000
01C00000
00400000
ENDCHAR
STARTCHAR uni092E094D
ENCODING -1
SWIDTH 261 0
DWIDTH 8 0
BBX 13 15 -1 5
BITMAP
7FFFFF80
16D55540
01C00000
01C00000
01C00000
01C00000
01C00000
01C00000
01D00000
01FFFF80
01D55540
01C00000
01C00000
01C00000
00400000
ENDCHAR
STARTCHAR uni092F094D
ENCODING -1
SWIDTH 323 0
DWIDTH 10 0
BBX 16 17 -1 3
BITMAP
7FFFFFF4
155B9550
0001D000
0000D000
0000D000
0001D000
0007C000
02FF4000
02940000
02800000
02800000
02800000
02C00000
01D0001D
00B90078
002FFFE0
00015500
ENDCHAR
STARTCHAR uni0930094D
ENCODING -1
SWIDTH 337 0
DWIDTH 11 0
BBX 13 27 -1 -7
BITMAP
7FFFFF40
1556E500
0001D000
0001D000
0001D000
0001D000
0001D000
0001C000
0002C000
00078000
0FFE0000
0B500000
03800000
01D00000
00B40000
00380000
001E0000
000B4000
0002C000
0001E000
00000000
00140000
001D0000
000B4000
00038000
0001E000
00005000
ENDCHAR
STARTCHAR uni0932094D
ENCODING -1
SWIDTH 431 0
DWIDTH 14 0
BBX 19 19 -1 1
BITMAP
7FFFFFFFFC
1555555554
0000000000
0000000000
0000000000
0000000000
002FE47FD0
00F96DE5B8
01D00B8014
02C0074000
0280074000
0280074000
0280074000
0280010000
02C0000000
02D0000000
00F4000000
007FF00000
0001500000
ENDCHAR
STARTCHAR uni0933094D
ENCODING -1
SWIDTH 677 0
DWIDTH 22 0
BBX 23 19 -1 1
BITMAP
7FFFFFFFFFFC
155555555554
000000000000
000000000000
000000000000
000000000000
002FF42FE400
00F56DE56D00
02C00BC00B00
028007800740
038003400740
038003400740
038003400740
038003400740
028003800740
02C007800B00
01E45EE46E00
007FF87FF800
000540054000
ENDCHAR
STARTCHAR uni0935094D
ENCODING -1
SWIDTH 255 0
DWIDTH 8 0
BBX 14 18 -1 2
BITMAP
7FFFFFD0
15555540
00000000
00000000
00000000
002FF000
00F55000
02C00000
03800000
03800000
03800000
03800000
038000A0
038000A0
02C000D0
01E406C0
007FFE00
00055000
ENDCHAR
STARTCHAR uni0936094D
ENCODING -1
SWIDTH 378 0
DWIDTH 12 0
BBX 10 20 1 0
BITMAP
02FE40
0F9BC0
1D00E0
2C00E0
2C00A0
2C00A0
0000A0
0000E0
0001D0
0007C0
BFFF40
795000
2C0000
0E0000
074000
02D000
00F000
007800
001D00
000A00
ENDCHAR
STARTCHAR uni0937094D
ENCODING -1
SWIDTH 282 0
DWIDTH 9 0
BBX 14 15 -1 5
BITMAP
7FFFFFF0
16E55550
01F00000
01EC0000
01CA0000
01C28000
01C0A000
01C03800
01C01D00
01C00740
01D001E0
00E000B0
00B906D0
002FFE40
00015000
ENDCHAR
STARTCHAR uni0938094D
ENCODING -1
SWIDTH 338 0
DWIDTH 11 0
BBX 16 20 -1 0
BITMAP
7FFFFFFD
15579554
00038000
00038000
00038000
00038000
00038000
00034000
00074000
001E0000
0FFFFFFD
0B555554
03800000
01D00000
00B00000
00780000
002D0000
000E0000
00074000
00028000
ENDCHAR
STARTCHAR uni0939094D
ENCODING -1
SWIDTH 457 0
DWIDTH 15 0
BBX 19 22 -1 -2
BITMAP
7FFFFFFF80
155555E540
000000E000
000000E000
000000E000
006FFFD000
00F5554000
01D0000000
01C0000000
01D0000000
00E4000000
002FFFFFFC
00B9555554
01D0000000
02C0000000
02C0000000
02C0000000
02C0000000
01D0000000
00B5000000
002FFFE000
0001554000
ENDCHAR
STARTCHAR uni0915093C094D
ENCODING -1
SWIDTH 519 0
DWIDTH 17 0
BBX 22 22 -1 -2
BITMAP
7FFFFFFFFFE0
155555E55550
000000D00000
000000D00000
000000D00000
006FD0DBFE40
00F540F956D0
02C000F000A0
038000D00000
034000D00000
034000D00000
034000D00000
034000D00000
038001D00000
02C002D00000
01E41BD00000
007FFDD00000
000550D00000
000000D00000
000000D00000
007400000000
001000000000
ENDCHAR
STARTCHAR uni0916093C094D
ENCODING -1
SWIDTH 463 0
DWIDTH 15 0
BBX 20 22 -1 -2
BITMAP
7FFFFFFFFD
1556E55554
0001D00000
0001D00000
0001D00000
0001D02F40
0001D0F500
0001C1D000
0002C2C000
0007828000
0FFE028000
0B5002C000
038002C000
01D000F41E
00B4007FF4
003C000540
001E000000
000B400000
0002C00000
0000E00000
02C0000000
0140000000
ENDCHAR
STARTCHAR uni0917093C094D
ENCODING -1
SWIDTH 264 0
DWIDTH 8 0
BBX 10 21 -1 -1
BITMAP
7FFFF0
157D50
002800
002800
002800
002800
002800
002800
002800
003800
003800
01B400
1FD000
050000
000000
000000
000000
000000
000000
00B000
005000
ENDCHAR
STARTCHAR uni091C093C094D
ENCODING -1
SWIDTH 314 0
DWIDTH 10 0
BBX 15 23 -1 -3
BITMAP
7FFFFFF4
15555550
00000000
00000000
00000000
00000000
00000000
02FFFFF4
0157D550
0000E000
0000B000
0000B000
0000B000
0000B000
0000E000
0006D000
0FFF4000
05540000
00000000
00000000
00000000
00E00000
00400000
ENDCHAR
STARTCHAR uni0928093C094D
ENCODING -1
SWIDTH 241 0
DWIDTH 8 0
BBX 11 21 0 -1
BITMAP
FFFFFC
555554
000000
000000
000000
000000
000000
000000
07FFFC
1E5554
2C0000
2C0000
1D0000
090000
000000
000000
000000
000000
000000
00E000
005000
ENDCHAR
STARTCHAR uni092B093C094D
ENCODING -1
SWIDTH 530 0
DWIDTH 17 0
BBX 23 22 -1 -2
BITMAP
7FFFFFFFFFF4
16D555F55550
01C000A00000
01C000A00000
01C000A00000
01C000A7FF80
01C000BE56E0
01C000B40070
01C000B00000
01C000A00000
01D000E00000
00E001E00000
00B907E00000
002FFEA00000
000150A00000
000000A00000
000000A00000
000000A00000
000000A00000
000000A00000
002C00500000
000400000000
ENDCHAR
STARTCHAR uni092F093C094D
ENCODING -1
SWIDTH 325 0
DWIDTH 10 0
BBX 16 22 -1 -2
BITMAP
7FFFFFF4
155B9550
0001D000
0000D000
0000D000
0001D000
0007C000
02FF4000
02940000
02800000
02800000
02800000
02C00000
01D0001D
00B90078
002FFFE0
00015500
00000000
00000000
00000000
001D0000
00040000
ENDCHAR
STARTCHAR uni09080902
ENCODING -1
SWIDTH 478 0
DWIDTH 15 0
BBX 17 29 -1 -1
BITMAP
000002FD00
00001F9400
00002C0000
0000380000
0000383800
0000381000
0000380000
0000280000
7FFFFFFF80
155556E540
000001D000
000001D000
000001D000
006FFFD000
01E5554000
02C0000000
02C0000000
02C0000000
01E4000000
007FFF8000
000555E000
0000007000
0280007400
0280007400
02C0007000
02E401F000
02AFFF9000
0285540000
0280000000
ENDCHAR
STARTCHAR uni09300941
ENCODING -1
SWIDTH 533 0
DWIDTH 17 0
BBX 19 20 -1 0
BITMAP
7FFFFFFFF4
1556E55550
0001D00000
0001D00000
0001D00000
0001FFF400
0001D56D00
0001C00B00
0002C00B00
0007800700
0FFE000B00
0B50000B00
0380001E00
01E0007C00
00B402F000
002C078000
000E000000
0007400000
0002C00000
0000900000
ENDCHAR
STARTCHAR uni09300942
ENCODING -1
SWIDTH 645 0
DWIDTH 21 0
BBX 22 20 -1 0
BITMAP
7FFFFFFFFFF0
1556E5555550
0001D0000000
0001D0000000
0001D0000000
0001D06FE400
0001D0F57C00
0001C1D00D00
0002C1C00E00
000781C00E00
0FFE01C00E00
0B5000400D00
038000002D00
01E00000B800
00B40007E000
002C002E4000
000E00240000
000740000000
0002C0000000
000090000000
ENDCHAR
STARTCHAR uni09390941
ENCODING -1
SWIDTH 495 0
DWIDTH 16 0
BBX 18 28 -1 -8
BITMAP
7FFFFFFFD0
155555E540
000000E000
000000E000
000000E000
006FFFD000
00F5554000
01D0000000
01C0000000
01D0000000
00E4000000
002FFF8000
00B956E000
01D000B000
02C0007000
02C0007000
02C0001000
02C0000000
01D0000000
00B5000000
002FFFD000
000155B400
0000003800
0340002C00
02D0002800
00F4003800
002E56F000
0006FF8000
ENDCHAR
STARTCHAR uni09390942
ENCODING -1
SWIDTH 492 0
DWIDTH 16 0
BBX 17 28 -1 -8
BITMAP
7FFFFFFF80
155555E540
000000E000
000000E000
000000E000
002FFFD000
00F9554000
01D0000000
01C0000000
01C0000000
01D0000000
00B4000000
002FFF4000
00B956D000
01D000B000
02C0007000
02C0007000
02C0000000
01D0000000
00F5000000
003FFE0000
00795B8000
00E000E000
00E0007400
00D0003800
00E0001C00
00B9400D00
002FD00400
ENDCHAR
STARTCHAR uni09260943
ENCODING -1
SWIDTH 390 0
DWIDTH 12 0
BBX 14 19 -1 1
BITMAP
7FFFFFF0
15556D50
00002C00
00002C00
006FFC00
00F55000
01C00000
02C00000
01C00000
00E40000
007FF000
00F55000
01D00000
02C00000
02C00000
01C00000
00E40000
007FFF00
00055500
ENDCHAR
STARTCHAR uni09390943
ENCODING -1
SWIDTH 519 0
DWIDTH 17 0
BBX 18 25 -1 -5
BITMAP
7FFFFFFFF0
155555E550
000000D000
000000D000
000001D000
006FFFD000
01E5554000
02C0000000
02C0000000
02C0000000
01E4000000
007FFFF900
00B5B95E00
02D0B00700
0280A00700
0380A00000
0380B00000
0380740000
03802FFD00
0380015400
0380000000
02C0000000
00F4000000
006FFFE000
0001554000
ENDCHAR
STARTCHAR uni094D0930
ENCODING -1
SWIDTH 0 0
DWIDTH 0 0
BBX 10 6 -13 -6
BITMAP
01F000
03F800
0B5E00
1D0B40
3802C0
B000E0
ENDCHAR
STARTCHAR uni0930094D.1
ENCODING -1
SWIDTH 192 0
DWIDTH 6 0
BBX 12 10 -2 10
BITMAP
1FFF80
055540
000000
000000
000000
000000
800009
B4007C
2FFFE0
015500
ENDCHAR
STARTCHAR uni0930094D.2
ENCODING -1
SWIDTH 0 0
DWIDTH 0 0
BBX 6 9 -5 19
BITMAP
0BE0
2E50
7400
7000
7000
7000
7000
7000
7400
ENDCHAR
STARTCHAR uni0930094D0902
ENCODING -1
SWIDTH 0 0
DWIDTH 0 0
BBX 6 9 -5 19
BITMAP
0BE0
3E50
7400
7000
71D0
7040
7000
7000
7400
ENDCHAR
STARTCHAR uni093E0930094D
ENCODING -1
SWIDTH 231 0
DWIDTH 7 0
BBX 9 28 -1 0
BITMAP
001BC0
007940
00E000
00E000
00D000
00D000
00D000
00E000
7FFFC0
15E540
00D000
00D000
00D000
00D000
00D000
00D000
00D000
00D000
00D000
00D000
00D000
00D000
00D000
00D000
00D000
00D000
00D000
00D000
ENDCHAR
STARTCHAR uni093E0930094D0902
ENCODING -1
SWIDTH 231 0
DWIDTH 7 0
BBX 10 28 -1 0
BITMAP
001BC0
007940
00E000
00E000
00D1D0
00D040
00D000
00E000
7FFFC0
15E540
00D000
00D000
00D000
00D000
00D000
00D000
00D000
00D000
00D000
00D000
00D000
00D000
00D000
00D000
00D000
00D000
00D000
00D000
ENDCHAR
STARTCHAR uni0930094D.aMatraI
ENCODING -1
SWIDTH 0 0
DWIDTH 0 0
BBX 6 6 -2 20
BITMAP
1BE0
3D40
7400
B000
B000
B000
ENDCHAR
STARTCHAR uni0902.aMatraI
ENCODING -1
SWIDTH 0 0
DWIDTH 0 0
BBX 2 2 1 23
BITMAP
B0
50
ENDCHAR
STARTCHAR uni0930094D0902.aMatraI
ENCODING -1
SWIDTH 0 0
DWIDTH 0 0
BBX 6 6 -2 20
BITMAP
1BE0
3D40
7400
B1D0
B040
B000
ENDCHAR
STARTCHAR uni09400930094D
ENCODING -1
SWIDTH 231 0
DWIDTH 7 0
BBX 14 28 -5 0
BITMAP
0BF91BD0
2E5BB940
7401E000
7000E000
B000D000
6000D000
0000D000
0000E000
007FFFC0
0015E540
0000D000
0000D000
0000D000
0000D000
0000D000
0000D000
0000D000
0000D000
0000D000
0000D000
0000D000
0000D000
0000D000
0000D000
0000D000
0000D000
0000D000
0000D000
ENDCHAR
STARTCHAR uni09400902
ENCODING -1
SWIDTH 231 0
DWIDTH 7 0
BBX 13 28 -5 0
BITMAP
0BFE0000
2E5B8000
7401D000
B000D2C0
B000D140
6000D000
0000D000
0000E000
007FFFC0
0015E540
0000D000
0000D000
0000D000
0000D000
0000D000
0000D000
0000D000
0000D000
0000D000
0000D000
0000D000
0000D000
0000D000
0000D000
0000D000
0000D000
0000D000
0000D000
ENDCHAR
STARTCHAR uni09400930094D0902
ENCODING -1
SWIDTH 231 0
DWIDTH 7 0
BBX 14 28 -5 0
BITMAP
0BF91BD0
2E5BB940
7401E000
B000E000
B000D1D0
6000D040
0000D000
0000E000
007FFFC0
0015E540
0000D000
0000D000
0000D000
0000D000
0000D000
0000D000
0000D000
0000D000
0000D000
0000D000
0000D000
0000D000
0000D000
0000D000
0000D000
0000D000
0000D000
0000D000
ENDCHAR
STARTCHAR uni0940.aLong
ENCODING -1
SWIDTH 231 0
DWIDTH 7 0
BBX 21 28 -13 0
BITMAP
06FFFFFE0000
2E55555B8000
38000001D000
74000000D000
70000000D000
70000000D000
00000000D000
00000000E000
0000007FFFC0
00000015E540
00000000D000
00000000D000
00000000D000
00000000D000
00000000D000
00000000D000
00000000D000
00000000D000
00000000D000
00000000D000
00000000D000
00000000D000
00000000D000
00000000D000
00000000D000
00000000D000
00000000D000
00000000D000
ENDCHAR
STARTCHAR uni09400930094D.aLong
ENCODING -1
SWIDTH 231 0
DWIDTH 7 0
BBX 21 28 -13 0
BITMAP
06FFFFF91BC0
2E55555BB940
38000001E000
74000000E000
70000000D000
70000000D000
00000000D000
00000000E000
0000007FFFC0
00000015E540
00000000D000
00000000D000
00000000D000
00000000D000
00000000D000
00000000D000
00000000D000
00000000D000
00000000D000
00000000D000
00000000D000
00000000D000
00000000D000
00000000D000
00000000D000
00000000D000
00000000D000
00000000D000
ENDCHAR
STARTCHAR uni09400902.aLong
ENCODING -1
SWIDTH 231 0
DWIDTH 7 0
BBX 22 28 -13 0
BITMAP
06FFFFFE0000
2E55555B8000
78000001D000
74000000D1D0
70000000D040
60000000D000
00000000D000
00000000E000
0000007FFFC0
00000015E540
00000000D000
00000000D000
00000000D000
00000000D000
00000000D000
00000000D000
00000000D000
00000000D000
00000000D000
00000000D000
00000000D000
00000000D000
00000000D000
00000000D000
00000000D000
00000000D000
00000000D000
00000000D000
ENDCHAR
STARTCHAR uni09400930094D0902.aLong
ENCODING -1
SWIDTH 231 0
DWIDTH 7 0
BBX 22 28 -13 0
BITMAP
06FFFFF91BC0
2E55555BB940
78000001E000
74000000E000
70000000D1D0
60000000D040
00000000D000
00000000E000
0000007FFFC0
00000015E540
00000000D000
00000000D000
00000000D000
00000000D000
00000000D000
00000000D000
00000000D000
00000000D000
00000000D000
00000000D000
00000000D000
00000000D000
00000000D000
00000000D000
00000000D000
00000000D000
00000000D000
00000000D000
ENDCHAR
STARTCHAR uni09470930094D
ENCODING -1
SWIDTH 0 0
DWIDTH 0 0
BBX 11 9 -10 19
BITMAP
B002F8
780B94
2D0D00
0B1C00
039C00
01EC00
00BC00
002C00
000900
ENDCHAR
STARTCHAR uni09470902
ENCODING -1
SWIDTH 0 0
DWIDTH 0 0
BBX 10 10 -10 18
BITMAP
B00000
780000
2D0000
0F0000
0780E0
02D050
00F000
007800
001E00
000500
ENDCHAR
STARTCHAR uni09470901
ENCODING -1
SWIDTH 0 0
DWIDTH 0 0
BBX 17 10 -10 18
BITMAP
B0000B0000
7805050200
2D0A000740
0F0A000700
0787801E00
02D2FFF800
00F0154000
0078000000
001E000000
0005000000
ENDCHAR
STARTCHAR uni09470930094D0902
ENCODING -1
SWIDTH 0 0
DWIDTH 0 0
BBX 11 9 -10 19
BITMAP
B402F8
780B94
2E0D00
0B5C00
03DC74
01FC10
00BC00
002C00
000900
ENDCHAR
STARTCHAR uni09480930094D
ENCODING -1
SWIDTH 0 0
DWIDTH 0 0
BBX 12 9 -11 19
BITMAP
742C2E
2C2CE5
1E2D80
0B5E40
029E40
00DF00
007B00
002F00
000B40
ENDCHAR
STARTCHAR uni09480902
ENCODING -1
SWIDTH 0 0
DWIDTH 0 0
BBX 11 9 -10 19
BITMAP
E01C00
B41C00
3C1C00
1E1C00
0B5C38
029C14
00EC00
007C00
001D00
ENDCHAR
STARTCHAR uni09480901
ENCODING -1
SWIDTH 0 0
DWIDTH 0 0
BBX 19 9 -10 19
BITMAP
E01C003400
741C201014
2C1C700028
1E1C740038
075C3D01B4
029C1FFFD0
00EC015500
007C000000
001D000000
ENDCHAR
STARTCHAR uni09480930094D0902
ENCODING -1
SWIDTH 0 0
DWIDTH 0 0
BBX 12 9 -11 19
BITMAP
742C2E
2C2CE5
1E2D80
0B5E40
029E4D
00DF04
007B00
002F00
000B40
ENDCHAR
STARTCHAR uni094B0930094D
ENCODING -1
SWIDTH 231 0
DWIDTH 7 0
BBX 11 28 -3 0
BITMAP
7801BC
2D0794
0E0A00
074E00
02CD00
00ED00
007D00
001E00
07FFFC
015E54
000D00
000D00
000D00
000D00
000D00
000D00
000D00
000D00
000D00
000D00
000D00
000D00
000D00
000D00
000D00
000D00
000D00
000D00
ENDCHAR
STARTCHAR uni094B0902
ENCODING -1
SWIDTH 231 0
DWIDTH 7 0
BBX 11 28 -3 0
BITMAP
740000
2C0000
0E0000
0740E0
02C040
00E000
007400
001C00
07FFFC
015E54
000D00
000D00
000D00
000D00
000D00
000D00
000D00
000D00
000D00
000D00
000D00
000D00
000D00
000D00
000D00
000D00
000D00
000D00
ENDCHAR
STARTCHAR uni094B0930094D0902
ENCODING -1
SWIDTH 231 0
DWIDTH 7 0
BBX 12 28 -3 0
BITMAP
7801BC
2D0794
0F0A00
078E00
02DD1D
00FD04
007D00
001E00
07FFFC
015E54
000D00
000D00
000D00
000D00
000D00
000D00
000D00
000D00
000D00
000D00
000D00
000D00
000D00
000D00
000D00
000D00
000D00
000D00
ENDCHAR
STARTCHAR uni094C0930094D
ENCODING -1
SWIDTH 231 0
DWIDTH 7 0
BBX 12 28 -3 0
BITMAP
E034BD
7435D4
2C3740
0E3A00
076A00
02EE00
00AD00
003E00
07FFFC
015E54
000D00
000D00
000D00
000D00
000D00
000D00
000D00
000D00
000D00
000D00
000D00
000D00
000D00
000D00
000D00
000D00
000D00
000D00
ENDCHAR
STARTCHAR uni094C0902
ENCODING -1
SWIDTH 231 0
DWIDTH 7 0
BBX 11 28 -3 0
BITMAP
B40D00
380D00
1D0D00
0B0D2C
028D14
00D900
007900
001E00
07FFFC
015E54
000D00
000D00
000D00
000D00
000D00
000D00
000D00
000D00
000D00
000D00
000D00
000D00
000D00
000D00
000D00
000D00
000D00
000D00
ENDCHAR
STARTCHAR uni094C0930094D0902
ENCODING -1
SWIDTH 231 0
DWIDTH 7 0
BBX 12 28 -3 0
BITMAP
E034BD
7435D4
2C3740
0E3A00
076A1D
02EE04
00AD00
003E00
07FFFC
015E54
000D00
000D00
000D00
000D00
000D00
000D00
000D00
000D00
000D00
000D00
000D00
000D00
000D00
000D00
000D00
000D00
000D00
000D00
ENDCHAR
STARTCHAR uni0915094D0937
ENCODING -1
SWIDTH 656 0
DWIDTH 21 0
BBX 20 20 2 0
BITMAP
01BE4007FD
0796E00B54
0E00700B00
1D00340B00
1D00340B00
1D00340B00
0E00740B00
0751E00B00
1BFFFFFF00
7955555B00
A000000B00
E000000B00
E000340B00
E000740B00
E000740B00
B901F40B00
2FFFB40B00
0154740B00
0000740B00
0000340500
ENDCHAR
STARTCHAR uni0915094D0937094D
ENCODING -1
SWIDTH 429 0
DWIDTH 14 0
BBX 16 20 2 0
BITMAP
01BE4000
0796E000
0E007000
1D003400
1D003400
1D003400
0E007400
0751E000
1BFFFFFD
79555554
A0000000
E0000000
E0003400
E0007400
E0007400
B901F400
2FFFB400
01547400
00007400
00003400
ENDCHAR
STARTCHAR uni0915094D0937094D092E
ENCODING -1
SWIDTH 933 0
DWIDTH 30 0
BBX 29 20 2 0
BITMAP
01BE403FFFFFFF40
0796E01B9556D500
0E0070074002C000
1D0034074002C000
1D0034074002C000
1D0034074002C000
0E0074074002C000
0751E0074002C000
1BFFFFFF4002C000
74000007FFFFC000
A00000075556C000
E00000074002C000
E00034074002C000
E00074074002C000
E00074000002C000
B901F4000002C000
2FFFB4000002C000
015474000002C000
000074000002C000
0000340000014000
ENDCHAR
STARTCHAR uni0915094D0937094D092E094D
ENCODING -1
SWIDTH 717 0
DWIDTH 23 0
BBX 25 20 2 0
BITMAP
01BE403FFFFF40
0796E01B955500
0E007007400000
1D003407400000
1D003407400000
1D003407400000
0E007407400000
0751E007400000
1BFFFFFF400000
74000007FFFF80
A0000007555500
E0000007400000
E0003407400000
E0007407400000
E0007400000000
B901F400000000
2FFFB400000000
01547400000000
00007400000000
00003400000000
ENDCHAR
STARTCHAR uni0915094D0937094D092E094D092F
ENCODING -1
SWIDTH 1283 0
DWIDTH 41 0
BBX 40 20 2 0
BITMAP
01BE403FFFFFFFFFFFFD
0796E01B95555B955B54
0E007007400001C00700
1D003407400000D00700
1D003407400000D00700
1D003407400000D00700
0E007407400001D00700
0751E007400007800700
1BFFFFFF4002F9000700
74000007FFFF80000700
A0000007555780000700
E0000007400280000700
E00034074002C0000B00
E00074074001D0000F00
E00074000000B5017F00
B901F40000002FFFE700
2FFFB400000001550700
01547400000000000700
00007400000000000700
00003400000000000600
ENDCHAR
STARTCHAR uni0915094D0937094D092F
ENCODING -1
SWIDTH 989 0
DWIDTH 32 0
BBX 30 20 2 0
BITMAP
01BE403FFFFFFFF0
0796E0156D557D50
0E0070000A002800
1D0034000B002800
1D00340007002800
1D00340007002800
0E0074000B002800
0751E0006E002800
1BFFFFFFF8002800
7955555E40002800
A000001D00002800
E000001D00003800
E000340D00003800
E000740F00007800
E00074079006F800
B901F401FFFF6800
2FFFB40005542800
0154740000002800
0000740000002800
0000340000001400
ENDCHAR
STARTCHAR uni0915094D0937094D0935
ENCODING -1
SWIDTH 936 0
DWIDTH 30 0
BBX 29 20 2 0
BITMAP
01BE403FFFFFFF40
0796E0155556D500
0E0070000002C000
1D0034000002C000
1D0034000002C000
1D0034007FC2C000
0E007402E542C000
0751E0078002C000
1BFFFFFF4002C000
7955555B0002C000
A00000070002C000
E00000070002C000
E00034070002C000
E00074070002C000
E00074074003C000
B901F402D41BC000
2FFFB400BFFAC000
015474000542C000
000074000002C000
0000340000018000
ENDCHAR
STARTCHAR uni091C094D091E
ENCODING -1
SWIDTH 629 0
DWIDTH 20 0
BBX 22 22 -1 -2
BITMAP
7FFFFFFFFFE0
15555555B540
000000007000
000000007000
00000000B000
006FFFFFF000
01E55555B000
02C000007000
02C000007000
02C000007000
01E400007000
007FFF407000
000556D07000
000000A07000
028000B07000
02C000B07000
02C000A07000
02E406D07000
02EFFF807000
028154007000
028000000000
028000000000
ENDCHAR
STARTCHAR uni091C094D091E094D
ENCODING -1
SWIDTH 398 0
DWIDTH 13 0
BBX 17 22 -1 -2
BITMAP
7FFFFFFFC0
1555555540
0000000000
0000000000
0000000000
006FFFFFC0
01E5555540
02C0000000
02C0000000
02C0000000
01E4000000
007FFF4000
000556D000
000000A000
028000B000
02C000B000
02C000A000
02E406D000
02EFFF8000
0281540000
0280000000
0280000000
ENDCHAR
STARTCHAR uni091C094D091E094D092F
ENCODING -1
SWIDTH 975 0
DWIDTH 31 0
BBX 33 22 -1 -2
BITMAP
7FFFFFFFFFFFFFFF80
1555555556E556E540
00000000007401D000
00000000003801D000
00000000003801D000
006FFFFF403801D000
01E55556D03801D000
02C00000E1B401D000
02C00000BFD001D000
02C00000A50001D000
01E40000A00001D000
007FFF40A00001D000
000556D0B00001D000
000000A0740003D000
028000B02E401FD000
02C000B00BFFF9D000
02C000A0005541D000
02E406D0000001D000
02EFFF80000001D000
02815400000001D000
028000000000000000
028000000000000000
ENDCHAR
STARTCHAR uni0915094D0928
ENCODING -1
SWIDTH 1003 0
DWIDTH 32 0
BBX 34 20 -1 0
BITMAP
7FFFFFFFFFFFFFFFE0
155555E5555555B540
000000D00000007000
000000D00000007000
000000D00000007000
006FD0DBFE40007000
00F540F956D0007000
02C000E000A0007000
038000D000BFFFF000
034000D001E555B000
034000D002C0007000
034000D002C0007000
034000D001C0007000
038001D000D0007000
02C002D00000007000
01E41BD00000007000
007FFDD00000007000
000550D00000007000
000000D00000007000
000000D00000007000
ENDCHAR
STARTCHAR uni0916094D0928
ENCODING -1
SWIDTH 958 0
DWIDTH 31 0
BBX 32 20 -1 0
BITMAP
7FFFFFFFFFFFFFFF
1556E555555557D5
0001D00000000280
0001D00000000280
0001D00000000280
0001D02FE4000280
0001D0F56D000280
0001C1D00E000280
0002C2C007000380
0007828007FFFF80
0FFE02C00B555780
0B5002C00E000280
038000F40E000280
01E0007FFE000280
00B400055B000280
002C000002000280
000E000000000280
0007400000000280
0002C00000000280
0000A00000000280
ENDCHAR
STARTCHAR uni0917094D0928
ENCODING -1
SWIDTH 736 0
DWIDTH 24 0
BBX 25 20 -1 0
BITMAP
7FFFFFFFFFFFC0
157D555555E540
0028000000E000
0028000000E000
0028000000E000
0028000000E000
0028000000E000
0028000000E000
002800BFFFE000
003802D555E000
0038038000E000
01B4034000E000
1FD0038000E000
0500028000E000
0000000000E000
0000000000E000
0000000000E000
0000000000E000
0000000000E000
0000000000A000
ENDCHAR
STARTCHAR uni0918094D0928
ENCODING -1
SWIDTH 814 0
DWIDTH 26 0
BBX 28 20 -1 0
BITMAP
7FFFFFFFFFFFFD
15F95555555B54
01D00000000700
02C00000000700
02C00000000700
02C00000000700
00E40000000700
003FE000000B00
00F55007FFFF00
01D0001E555B00
02C0002C000700
02C0002C000700
02C0002C000700
00F401BD000700
007FFFDE000700
00015504000700
00000000000700
00000000000700
00000000000700
00000000000700
ENDCHAR
STARTCHAR uni091A094D0928
ENCODING -1
SWIDTH 829 0
DWIDTH 27 0
BBX 28 20 -1 0
BITMAP
7FFFFFFFFFFFFF
15555555555795
00000000000380
00000000000380
00000000000380
00000000000380
1FFFFD00000380
056E5400000380
00740002FFFF80
00B0000B555780
00B0000E000380
00B0000D000380
0074001D000380
003D407E000380
000BFFEB000380
00005501000380
00000000000380
00000000000380
00000000000380
00000000000240
ENDCHAR
STARTCHAR uni091B094D0928
ENCODING -1
SWIDTH 977 0
DWIDTH 31 0
BBX 33 20 -1 0
BITMAP
7FFFFFFFFFFFFFFF80
15F95555555556E540
01D00000000001D000
02C00000000001D000
02C00000000001D000
02C001FE000001D000
02C0005B800001D000
01D00002C00001D000
00B40001D1FFFFD000
003FD001D39555D000
00B94001D74001D000
01D00001D70001D000
02C00001D74001D000
02C00001D24001D000
02C00001D00001D000
01D00002C00001D000
00F4001B800001D000
007FFFFE000001D000
00015550000001D000
00000000000000D000
ENDCHAR
STARTCHAR uni091C094D0928
ENCODING -1
SWIDTH 831 0
DWIDTH 27 0
BBX 28 20 -1 0
BITMAP
7FFFFFFFFFFFFF
15555555555795
00000000000380
00000000000380
00000000000380
00000000000380
00000000000380
00000000000380
02FFFFFFFFFF80
0157D55F555780
0000E00E000380
0000B00D000380
0000B00E000380
0000B005000380
0000B000000380
0000E000000380
0006D000000380
0FFF4000000380
05540000000380
00000000000280
ENDCHAR
STARTCHAR uni091D094D0928
ENCODING -1
SWIDTH 935 0
DWIDTH 30 0
BBX 32 21 -1 -1
BITMAP
7FFFFFFFFFFFFFFD
15555B9555555B54
0000074000000B00
0000074000000B00
0000074000000B00
007FFF4000000B00
01E5550000000B00
02C0000000000B00
02C000000BFFFF00
01E400002E555B00
00BFFFFFFC000B00
00055B9568000B00
000002C02C000B00
028001D008000B00
028001D000000B00
02C001C000000B00
02E4078000000B00
02AFFE0000000B00
0285500000000B00
0280000000000600
0280000000000000
ENDCHAR
STARTCHAR uni091F094D0928
ENCODING -1
SWIDTH 494 0
DWIDTH 16 0
BBX 18 28 -1 -8
BITMAP
7FFFFFFFD0
155556E540
000001D000
000001D000
000001D000
000001D000
000001D000
002FFFD000
00F9554000
02D0000000
0280000000
0380001800
0380001C00
0280001C00
02C0002C00
00F401B400
007FFFE000
000155D000
000000D000
000000D000
000001D000
00BFFFD000
01E555D000
02C000D000
02C000D000
01C000D000
004000D000
000000D000
ENDCHAR
STARTCHAR uni0920094D0928
ENCODING -1
SWIDTH 516 0
DWIDTH 17 0
BBX 18 28 -1 -8
BITMAP
7FFFFFFFF0
155555E550
000000E000
000000E000
000000E000
000006D000
002FFF8000
00F955F000
02D0003800
0280002C00
0380001C00
0380001C00
0380001C00
0280002C00
02C0003800
00F401B400
006FFFE000
000155D000
000000D000
000000D000
000001D000
00BFFFD000
01E555D000
02C000D000
02C000D000
01C000D000
004000D000
000000D000
ENDCHAR
STARTCHAR uni0921094D0928
ENCODING -1
SWIDTH 481 0
DWIDTH 15 0
BBX 17 28 -1 -8
BITMAP
7FFFFFFF80
155555E540
000000D000
000000D000
000001D000
006FFFD000
00F5554000
01C0000000
02C0000000
02C0000000
01E4000000
007FFF8000
000555F000
0000007400
0280007400
02C0007400
01E401F000
00BFFFD000
000555D000
000000D000
000001D000
007FFFD000
01E555D000
02C000D000
02C000D000
01C000D000
004000D000
000000D000
ENDCHAR
STARTCHAR uni0924094D0928
ENCODING -1
SWIDTH 756 0
DWIDTH 24 0
BBX 26 21 -1 -1
BITMAP
7FFFFFFFFFFFE0
1555555555B950
00000000007400
00000000007400
00000000007400
00000000007400
00000000007400
006FFF80007400
01E000FFFFF400
02C000E555B400
028001C0007400
038001C0007400
038001D0007400
03800090007400
03800000007400
03800000007400
03800000007400
02C00000007400
01E40000007400
007F8000007400
00050000001000
ENDCHAR
STARTCHAR uni0925094D0928
ENCODING -1
SWIDTH 855 0
DWIDTH 27 0
BBX 26 20 2 0
BITMAP
07F80BFFFFFFE0
2E6F0555557950
38074000003400
74038000003400
74038000003400
10038000003400
00074000003400
001F0000007400
FFFD007FFFF400
E54000F5557400
D00001D0003400
E00001D0003400
B00001D0003400
7D001BE0003400
1BFFFD60003400
00555000003400
00000000003400
00000000003400
00000000003400
00000000003400
ENDCHAR
STARTCHAR uni0926094D0928
ENCODING -1
SWIDTH 955 0
DWIDTH 31 0
BBX 32 27 -1 -7
BITMAP
7FFFFFFFFFFFFFFF
155555F555555795
000000A000000380
000000A000000380
000000A000000380
002FFFE000000380
00F9554000000380
01D0000000000380
02C0000002FFFF80
028000000B555780
028000000E000380
028000000D000380
028000740E000380
02C000740A000380
02D0007400000380
00F401F400000380
006FFFB400000380
0001547400000380
0000007400000380
0000007400000380
0000000000000000
0000001000000000
0000003800000000
0000001D00000000
0000000B00000000
0000000380000000
00000001D0000000
ENDCHAR
STARTCHAR uni0927094D0928
ENCODING -1
SWIDTH 814 0
DWIDTH 26 0
BBX 28 20 -1 0
BITMAP
7FFFC07FFFFFFD
15F94015555B54
01D00000000700
02C00000000700
02C00000000700
02C00000000700
00E40000000700
003FE000000B00
00F55007FFFF00
01D0001E555B00
02C0002C000700
02C0002C000700
02C0002C000700
00F401BD000700
007FFF99000700
00015400000700
00000000000700
00000000000700
00000000000700
00000000000700
ENDCHAR
STARTCHAR uni0928094D0928
ENCODING -1
SWIDTH 738 0
DWIDTH 24 0
BBX 25 20 -1 0
BITMAP
7FFFFFFFFFFFC0
1555555555E540
0000000000E000
0000000000E000
0000000000E000
0000000000E000
0000000000E000
0000000000E000
01FFFFFFFFE000
079557D555E000
0B00038000E000
0B00034000E000
0740038000E000
0240018000E000
0000000000E000
0000000000E000
0000000000E000
0000000000E000
0000000000E000
0000000000A000
ENDCHAR
STARTCHAR uni092A094D0928
ENCODING -1
SWIDTH 782 0
DWIDTH 25 0
BBX 27 20 -1 0
BITMAP
7FFFFFFFFFFFF4
16D55555556D50
01C00000001C00
01C00000001C00
01C00000001C00
01C00000001C00
01C00000001C00
01C00000002C00
01C0001FFFFC00
01D00079556C00
00E000B0001C00
00B906F0001C00
002FFEB0001C00
00015024001C00
00000000001C00
00000000001C00
00000000001C00
00000000001C00
00000000001C00
00000000001C00
ENDCHAR
STARTCHAR uni092B094D0928
ENCODING -1
SWIDTH 1013 0
DWIDTH 32 0
BBX 34 20 -1 0
BITMAP
7FFFFFFFFFFFFFFFF0
16D555F55555557950
01C000A00000003800
01C000A00000003800
01C000A00000003800
01C000A7FE40003800
01C000BE56D0003800
01C000B400B0003800
01C000B0007FFFF800
01C000A000F5557800
01D000E001D0003800
00E001E001D0003800
00B907E000D0003800
002FFEA000A0003800
000150A00000003800
000000A00000003800
000000A00000003800
000000A00000003800
000000A00000003800
000000A00000003400
ENDCHAR
STARTCHAR uni092C094D0928
ENCODING -1
SWIDTH 810 0
DWIDTH 26 0
BBX 28 20 -1 0
BITMAP
7FFFFFFFFFFFFD
15555555555B54
00000000000B00
00000000000B00
00000000000B00
002FF000000B00
00F55000000B00
02F40000000B00
039D000BFFFF00
0387401E555B00
0381D02C000B00
03807428000B00
03801D2C000B00
03800758000B00
02C002C0000B00
01E40780000B00
007FFE00000B00
00055000000B00
00000000000B00
00000000000600
ENDCHAR
STARTCHAR uni092D094D0928
ENCODING -1
SWIDTH 757 0
DWIDTH 24 0
BBX 26 20 -1 0
BITMAP
79003FFFFFFFE0
1B40155555B950
02C00000007400
01C00000007400
01C00000007400
01C00000007400
01C00000007400
01C00000007400
01D0007FFFF400
01FFFFE5557400
01D556C0007400
01C001C0007400
01C000D0007400
01C00050007400
00000000007400
00000000007400
00000000007400
00000000007400
00000000007400
00000000007400
ENDCHAR
STARTCHAR uni092E094D0928
ENCODING -1
SWIDTH 757 0
DWIDTH 24 0
BBX 26 20 -1 0
BITMAP
7FFFFFFFFFFFE0
16D5555555B950
01C00000007400
01C00000007400
01C00000007400
01C00000007400
01C00000007400
01C00000007400
01D0007FFFF400
01FFFFE5557400
01D556C0007400
01C001C0007400
01C000D0007400
01C00050007400
00000000007400
00000000007400
00000000007400
00000000007400
00000000007400
00000000007400
ENDCHAR
STARTCHAR uni092F094D0928
ENCODING -1
SWIDTH 829 0
DWIDTH 27 0
BBX 28 20 -1 0
BITMAP
7FFFFFFFFFFFFF
155B9555555795
0001D000000380
0000D000000380
0000D000000380
0001D000000380
0007C000000380
02FF4000000380
02940002FFFF80
0280000B555780
0280000E000380
02C0000D000380
01D0001D000380
00B901BE000380
002FFFD7000380
00015500000380
00000000000380
00000000000380
00000000000380
00000000000240
ENDCHAR
STARTCHAR uni0935094D0928
ENCODING -1
SWIDTH 798 0
DWIDTH 26 0
BBX 27 20 -1 0
BITMAP
7FFFFFFFFFFFFC
15555555555E54
00000000000E00
00000000000E00
00000000000E00
002FF000000E00
00F55000000E00
02C00000000E00
0380000BFFFE00
0380002D555E00
03800034000E00
03800034000E00
03800038000E00
03800028000E00
02C001D0000E00
01E40780000E00
007FFE00000E00
00055000000E00
00000000000E00
00000000000900
ENDCHAR
STARTCHAR uni0936094D0928
ENCODING -1
SWIDTH 845 0
DWIDTH 27 0
BBX 27 20 1 0
BITMAP
02FE40BFFFFFF4
0F9BC055556D50
1D00E000001C00
2C00E000001C00
2C00A000001C00
2C00A000001C00
0000A000001C00
0000E000001C00
0001D01FFFFC00
0007C079556C00
BFFF40B0001C00
795000B0001C00
2C000070001C00
0E000024001C00
07400000001C00
02D00000001C00
00F00000001C00
00780000001C00
001D0000001C00
000A0000001C00
ENDCHAR
STARTCHAR uni0938094D0928
ENCODING -1
SWIDTH 831 0
DWIDTH 27 0
BBX 28 20 -1 0
BITMAP
7FFFFFFFFFFFFF
15579555555795
00038000000380
00038000000380
00038000000380
00038000000380
00038000000380
00034000000380
00074002FFFF80
001E000B555780
0FFFFFFE000380
0B55555D000380
0380000E000380
01D0000A000380
00B00000000380
00780000000380
002D0000000380
000E0000000380
00074000000380
00028000000280
ENDCHAR
STARTCHAR uni0939094D0928
ENCODING -1
SWIDTH 500 0
DWIDTH 16 0
BBX 18 24 -1 -4
BITMAP
7FFFFFFFD0
155555B940
0000007400
0000007400
0000007400
006FFFF400
00F5555000
01D0000000
01C0000000
01D0000000
00E4000000
002FFFFD00
00B955BD00
01E002ED00
02C01F4D00
02C0380D00
02C0740D00
02C0740D00
02C0380D00
02C0180000
01D0000000
00B5000000
002FFFE000
0001554000
ENDCHAR
STARTCHAR uni0915094D0930
ENCODING -1
SWIDTH 725 0
DWIDTH 23 0
BBX 25 22 -1 -2
BITMAP
7FFFFFFFFFFF80
155555E5555540
000000D0000000
000000D0000000
000000D0000000
002FD0DBFE4000
00F540F957D000
02C000F000F000
038000D0007000
034000D0007400
034000D0007400
034000D0007400
034000D0007400
038001D0007400
02C002D000B000
01E41BD006D000
007FFED1FF4000
0005B4D0540000
0002D0D0000000
000B40D0000000
002C0040000000
00100000000000
ENDCHAR
STARTCHAR uni0916094D0930
ENCODING -1
SWIDTH 698 0
DWIDTH 22 0
BBX 24 22 -1 -2
BITMAP
7FFFFFFFFFFE
1556E5555795
0001D0000340
0001D0000340
0001D0000340
0001D02F8340
0001D0B90340
0001C1D00340
0002C2C00340
000782800340
0FFE02800340
0B5002C00740
038002D00B40
01D000F45F40
00B4007FFB40
003C0005E340
001E0002C340
0007400B0340
0002C01D0340
0000E0780340
000000E00000
000000400000
ENDCHAR
STARTCHAR uni0917094D0930
ENCODING -1
SWIDTH 494 0
DWIDTH 16 0
BBX 18 20 -1 0
BITMAP
7FFFFFFFD0
157D55B540
002800B000
002800B000
002800B000
002800B000
002800B000
002800B000
002800B000
003800B000
003800B000
01B402F000
1FD007F000
05001EB000
000078B000
0001E0B000
000780B000
000E00B000
003800B000
00A000A000
ENDCHAR
STARTCHAR uni0918094D0930
ENCODING -1
SWIDTH 559 0
DWIDTH 18 0
BBX 20 22 -1 -2
BITMAP
7FFFFFFFFD
15F9555B54
01D0000B00
02C0000B00
02C0000B00
02C0000B00
02C0000B00
00E4000B00
003FE00B00
00B5500B00
01D0000B00
02C0000B00
02C0000B00
02C0000B00
02D0000F00
00F4007F00
006FFFEB00
00015B4B00
00002D0B00
0001E00600
000B400000
0005000000
ENDCHAR
STARTCHAR uni0919094D0930
ENCODING -1
SWIDTH 505 0
DWIDTH 16 0
BBX 18 25 -1 -5
BITMAP
7FFFFFFFE0
155556E550
000001D000
000001D000
000001D000
006FFFD000
00E5554000
01C0000000
02C0000000
01C0000B00
01E4000100
007FFF8000
000556E000
000000B000
0000007400
0000007400
0280007400
02C000B000
01E401E000
00BFFF8000
0007F80000
000F2D0000
002D0B0000
0074038000
00E001D000
ENDCHAR
STARTCHAR uni091A094D0930
ENCODING -1
SWIDTH 563 0
DWIDTH 18 0
BBX 20 21 -1 -1
BITMAP
7FFFFFFFFD
1555555B54
0000000700
0000000700
0000000700
0000000700
1FFFFD0700
056E540700
0074000700
00B0000700
00B0000700
00B0000700
00B0000B00
0074000F00
003D406F00
000BFFFB00
00005B8700
00001E0700
0000B80700
0002D00700
000A400000
ENDCHAR
STARTCHAR uni091B094D0930
ENCODING -1
SWIDTH 581 0
DWIDTH 19 0
BBX 20 24 -1 -4
BITMAP
7FFFFFFFFF
15F9555795
01D0000340
02C0000340
02C0000340
02C0000740
02C001FF00
01D0005B80
00F40002C0
003FD001D0
00B94001D0
01D00001D0
02C00001D0
02C00001D0
02C00001D0
01D00002C0
00F4001B40
007FFFFE00
0001BB9000
0001E3C000
0003C1E000
000B40B400
001E002C00
0004000400
ENDCHAR
STARTCHAR uni091C094D0930
ENCODING -1
SWIDTH 547 0
DWIDTH 18 0
BBX 19 21 -1 -1
BITMAP
7FFFFFFFFC
1555555E54
0000000E00
0000000E00
0000000E00
0000000E00
0000000E00
02FFFFFE00
0157D55E00
0000E00E00
0000A00E00
0000B00E00
0000B00E00
0000B00E00
0000E02E00
0006D0BE00
0FFF42DE00
05540B4E00
00002D0E00
0000B40E00
0001D00000
ENDCHAR
STARTCHAR uni091D094D0930
ENCODING -1
SWIDTH 684 0
DWIDTH 22 0
BBX 24 21 -1 -1
BITMAP
7FFFFFFFFFFD
15555B955B54
000007400B00
000007400B00
000007400B00
007FFF400B00
01E555000B00
02C000000B00
02C000000B00
01E400000B00
00BFFFFFFF00
00055B955B00
000002C00B00
028001D00B00
028001D02F00
02C001C0BF00
02E40781EB00
02AFFE078B00
0285501E0B00
0280003C0B00
028000F00000
ENDCHAR
STARTCHAR uni091E094D0930
ENCODING -1
SWIDTH 598 0
DWIDTH 19 0
BBX 21 21 -1 -1
BITMAP
7FFFFFFFFF80
15555556E540
00000001D000
00000001D000
00000001D000
03FF4001D000
0156E001D000
0000B001D000
00007401D000
00003401D000
00003FFFD000
00003956D000
00003401D000
00007403D000
0000B00FD000
0005E03ED000
0BFF80F5D000
015403D1D000
00000B41D000
00002D01C000
000010000000
ENDCHAR
STARTCHAR uni091F094D0930
ENCODING -1
SWIDTH 485 0
DWIDTH 16 0
BBX 17 23 -1 -3
BITMAP
7FFFFFFFC0
155556D540
000001C000
000001C000
000001C000
000001C000
002FFFC000
00F9554000
02D0000000
0280000000
0380000000
0380000000
0380002C00
0380002C00
0280002C00
02C0003800
00F401B400
007FFFD000
0006ED0000
00074F0000
000E078000
002C01D000
007400B000
ENDCHAR
STARTCHAR uni0920094D0930
ENCODING -1
SWIDTH 512 0
DWIDTH 16 0
BBX 18 24 -1 -4
BITMAP
7FFFFFFFE0
155555E550
000000E000
000000E000
000000D000
000006C000
002FFF8000
00F955F000
02D0003800
0280002C00
0380002C00
0380002C00
0380002C00
0380002C00
0380002C00
02C0003800
01F401B400
007FFFD000
0006ED0000
00078F0000
000F078000
002D02D000
007800F000
0050001000
ENDCHAR
STARTCHAR uni0921094D0930
ENCODING -1
SWIDTH 475 0
DWIDTH 15 0
BBX 17 25 -1 -5
BITMAP
7FFFFFFF80
155556E540
000001D000
000001D000
000001D000
006FFFD000
00E5554000
01C0000000
02C0000000
01C0000000
01E4000000
007FFF8000
000556E000
000000B000
0000007400
0000007400
0280007400
02C000B000
01E401E000
00BFFF8000
0007BC0000
000B1E0000
001D0B4000
007802C000
00B000E000
ENDCHAR
STARTCHAR uni0922094D0930
ENCODING -1
SWIDTH 485 0
DWIDTH 16 0
BBX 17 24 -1 -4
BITMAP
7FFFFFFFC0
155556E540
000001D000
000001D000
000001D000
000001D000
002FFFD000
00F9554000
01D0000000
02C0000000
0280000000
02801FE000
0280397800
0280702C00
0280601C00
02C0002C00
00F4017800
007FFFE000
0002ED0000
00078F0000
000F078000
002D02D000
007800F000
0050001000
ENDCHAR
STARTCHAR uni0923094D0930
ENCODING -1
SWIDTH 681 0
DWIDTH 22 0
BBX 24 20 -1 0
BITMAP
7FFFFFFFFFFD
16D556D55B54
01C002C00B00
01C002C00B00
01C002C00B00
01C002C00B00
01C002C00B00
01C002C00B00
01C002C00B00
01C002C00B00
01D002800B00
01D003802F00
00B41B407F00
002FFD01DB00
000150078B00
0000001E0B00
000000380B00
000000F00B00
000002C00B00
000006400A00
ENDCHAR
STARTCHAR uni0924094D0930
ENCODING -1
SWIDTH 493 0
DWIDTH 16 0
BBX 18 20 -1 0
BITMAP
7FFFFFFFD0
155555F540
000000A000
000000A000
000000A000
000000A000
006FFDA000
01F55BE000
02C001E000
038000E000
038000A000
038000A000
014000E000
000007E000
00002EA000
0000B8A000
0007D0A000
001E00A000
00B800A000
01D000A000
ENDCHAR
STARTCHAR uni0925094D0930
ENCODING -1
SWIDTH 593 0
DWIDTH 19 0
BBX 18 22 2 -2
BITMAP
07F8007FD0
2E6F00B540
380740B000
740380B000
740380B000
100380B000
000740B000
001F00B000
FFFD00B000
E54000B000
D00000B000
E00000B000
E00000B000
B00001F000
3D4017F000
1BFFFEB000
0055B8B000
0002D0B000
001F40B000
007D007000
01E0000000
0140000000
ENDCHAR
STARTCHAR uni0926094D0930
ENCODING -1
SWIDTH 489 0
DWIDTH 16 0
BBX 17 21 -1 -1
BITMAP
7FFFFFFFC0
155555F540
000000A000
000000A000
000000A000
002FFFE000
00F9554000
01D0000000
02C0000000
0280000000
0280000000
0280000000
0280007400
02C0007400
02D0007400
00F401F400
006FFFB400
00016D7400
0000B47400
0002D07400
0007400000
ENDCHAR
STARTCHAR uni0927094D0930
ENCODING -1
SWIDTH 560 0
DWIDTH 18 0
BBX 20 21 -1 -1
BITMAP
7FFF42FFFD
15F9015B54
01D0000B00
02C0000B00
02C0000B00
02C0000B00
01C0000B00
00E4000B00
003FF00B00
00B5500B00
01D0000B00
02C0000B00
02C0000B00
02C0000B00
01D0000F00
00F4007F00
006FFFEB00
00015B8B00
00002D0B00
0001E00600
0007800000
ENDCHAR
STARTCHAR uni0928094D0930
ENCODING -1
SWIDTH 473 0
DWIDTH 15 0
BBX 17 20 -1 0
BITMAP
7FFFFFFF80
155556E540
000001D000
000001D000
000001D000
000001D000
000001D000
000001D000
01FFFFD000
079556D000
070002D000
0B000BD000
07401ED000
024079D000
0001E1D000
000381D000
000F01D000
002C01D000
00B401D000
01D001C000
ENDCHAR
STARTCHAR uni092A094D0930
ENCODING -1
SWIDTH 503 0
DWIDTH 16 0
BBX 18 21 -1 -1
BITMAP
7FFFFFFFE0
16D555B950
01C0007400
01C0007400
01C0007400
01C0007400
01C0007400
01C0007400
01C0007400
01C0007400
01D0007400
00E000B400
00B906F400
002FFFB400
00016D7400
0000747400
0001D07400
0007807400
001E007400
0078007400
00A0001000
ENDCHAR
STARTCHAR uni092B094D0930
ENCODING -1
SWIDTH 741 0
DWIDTH 24 0
BBX 25 21 -1 -1
BITMAP
7FFFFFFFFFFFC0
16D555F5555540
01C000B0000000
01C000B0000000
01C000B0000000
01C000B7FF8000
01C000BE56E000
01C000B4007400
01C000B0003800
01C000B0002800
01D000B0002800
00E001F0002800
00B907F0002800
002FFEB0003800
000178B0007400
0000A0B001F000
0002C0B0BF8000
000B00B0540000
002C00B0000000
00B400A0000000
00400000000000
ENDCHAR
STARTCHAR uni092C094D0930
ENCODING -1
SWIDTH 491 0
DWIDTH 16 0
BBX 17 22 -1 -2
BITMAP
7FFFFFFFC0
155555F540
000000A000
000000A000
000000A000
002FF0A000
00F950A000
02F000A000
03AC00A000
038B00A000
0382C0A000
0380B4A000
03802DA000
038007E000
02C002E000
01E407E000
007FFEA000
000578A000
0001E0A000
000740A000
002D000000
0014000000
ENDCHAR
STARTCHAR uni092D094D0930
ENCODING -1
SWIDTH 491 0
DWIDTH 16 0
BBX 17 20 -1 0
BITMAP
79003FFFC0
1B4015F540
02C000A000
01C000A000
01C000A000
01C000A000
01C000A000
01C000A000
01D000A000
01FFFFE000
01D555E000
01C002E000
01C00BE000
01C01DA000
000074A000
0001E0A000
000780A000
000E00A000
002800A000
00A000A000
ENDCHAR
STARTCHAR uni092E094D0930
ENCODING -1
SWIDTH 490 0
DWIDTH 16 0
BBX 17 20 -1 0
BITMAP
7FFFFFFFC0
16D555F540
01C000A000
01C000A000
01C000A000
01C000A000
01C000A000
01C000A000
01D000E000
01FFFFE000
01D555E000
01C002E000
01C00BE000
01C02DA000
0000B4A000
0001D0A000
000780A000
001E00A000
007800A000
00A000A000
ENDCHAR
STARTCHAR uni092F094D0930
ENCODING -1
SWIDTH 564 0
DWIDTH 18 0
BBX 20 21 -1 -1
BITMAP
7FFFFFFFFD
155B955B54
0001D00700
0000D00700
0000D00700
0001D00700
0007C00700
02FF400700
0294000700
0280000700
0280000700
0280000700
02C0000B00
01D0000F00
00B9017F00
002FFFE700
00015B8700
00002D0700
0001F40700
0007C00600
000E000000
ENDCHAR
STARTCHAR uni0935094D0930
ENCODING -1
SWIDTH 484 0
DWIDTH 15 0
BBX 17 21 -1 -1
BITMAP
7FFFFFFFC0
155555E540
000000E000
000000E000
000000E000
002FE0E000
00F540E000
02C000E000
038000E000
038000E000
038000E000
038000E000
038000E000
038000E000
02C001E000
01E417E000
007FFDE000
0005B4E000
0002D0E000
001E00D000
0028000000
ENDCHAR
STARTCHAR uni0936094D0930
ENCODING -1
SWIDTH 558 0
DWIDTH 18 0
BBX 17 20 1 0
BITMAP
06FE007FC0
1F5BC0B540
2C00E0B000
3800E0B000
2800A0B000
2C00E0B000
1D01D0B000
0B4780B000
02EE00B000
01FD00B000
0B9B90B000
7D01F9F000
E0002FF000
00007DB000
0002E0B000
001F40B000
00B800B000
009000B000
000000B000
000000A000
ENDCHAR
STARTCHAR uni0938094D0930
ENCODING -1
SWIDTH 604 0
DWIDTH 19 0
BBX 21 20 -1 0
BITMAP
7FFFFFFFFF80
15579555E540
00038000D000
00038000D000
00038000D000
00038000D000
00038000D000
00034000D000
00074000D000
001E0001D000
0FFFFFFFD000
0B55555FD000
0380002DD000
01D000B4D000
00B002D0D000
00780740D000
002D0900D000
000E0000D000
00074000D000
00028000D000
ENDCHAR
STARTCHAR uni0939094D0930
ENCODING -1
SWIDTH 505 0
DWIDTH 16 0
BBX 18 23 -1 -3
BITMAP
7FFFFFFFE0
155555B550
000000B000
000000B000
000000B000
007FFFF000
01E5554000
02C0000000
0280000000
02C0000000
01E4000000
007FFFFC00
00F556FC00
02C0079C00
03800F1C00
03802C1C00
0380B41C00
0381D01C00
0380000400
02C0000000
01E4000000
007FFFE000
0001554000
ENDCHAR
STARTCHAR uni0915093C094D0930
ENCODING -1
SWIDTH 725 0
DWIDTH 23 0
BBX 25 24 -1 -4
BITMAP
7FFFFFFFFFFF80
155555E5555540
000000D0000000
000000D0000000
000000D0000000
002FD0DBFE4000
00F540FD57D000
02C000F000F000
038000D0007000
034000D0007400
034000D0007400
034000D0007400
034000D0007400
038001D0007400
02C002D000B000
01E41BD006D000
007FFED1FF4000
0005B4D0540000
0001D0D0000000
000B40D0000000
002D0040000000
00640000000000
0001D000000000
00004000000000
ENDCHAR
STARTCHAR uni0916093C094D0930
ENCODING -1
SWIDTH 698 0
DWIDTH 22 0
BBX 24 24 -1 -4
BITMAP
7FFFFFFFFFFE
1556E5555795
0001D0000340
0001D0000340
0001D0000340
0001D02F8340
0001D0B90340
0001C1D00340
0002C2C00340
000782800340
0FFE02800340
0B5002C00740
038002D00B40
01D000F45F40
00B4007FFB40
00380005E340
001E0002C340
000B400B4340
0003C01D0340
0001E0380340
000000B00100
000001900000
000000074000
000000010000
ENDCHAR
STARTCHAR uni0917093C094D0930
ENCODING -1
SWIDTH 494 0
DWIDTH 16 0
BBX 18 24 -1 -4
BITMAP
7FFFFFFFD0
157D55B540
002800B000
002800B000
002800B000
002800B000
002800B000
002800B000
002800B000
003800B000
003800B000
01B401F000
1FD007F000
05001EB000
000038B000
0000E0B000
0002C0B000
000B40B000
001D00B000
007400B000
0050005000
0000000000
0001D00000
0000400000
ENDCHAR
STARTCHAR uni091C093C094D0930
ENCODING -1
SWIDTH 547 0
DWIDTH 18 0
BBX 19 22 -1 -2
BITMAP
7FFFFFFFFC
1555555E54
0000000E00
0000000E00
0000000E00
0000000E00
0000000E00
02FFFFFE00
0157D55E00
0000E00E00
0000B00E00
0000B00E00
0000B00E00
0000B00E00
0000E02E00
0006D0BE00
0FFF42DE00
05540B4E00
00002D0E00
0000B40E00
0E01900000
0400000000
ENDCHAR
STARTCHAR uni0921093C094D0930
ENCODING -1
SWIDTH 475 0
DWIDTH 15 0
BBX 17 25 -1 -5
BITMAP
7FFFFFFF80
155556E540
000001D000
000001D000
000001D000
006FFFD000
00E5554000
01C0000000
02C0000000
01C0000000
01E4000000
007FFF8000
000556E000
000000B000
0000007400
0000007400
0280007400
02C000B000
01E401E000
00BFFF8000
0007BC0000
2C0B1E0000
141D0B4000
007802C000
00F000E000
ENDCHAR
STARTCHAR uni0922093C094D0930
ENCODING -1
SWIDTH 485 0
DWIDTH 16 0
BBX 17 24 -1 -4
BITMAP
7FFFFFFFC0
155556E540
000001D000
000001D000
000001D000
000001D000
002FFFD000
00F9554000
01D0000000
02C0000000
0280000000
02801FE000
0280397800
0280702C00
0280601C00
02C0002C00
00F4017800
007FFFE000
0002FD0000
3C078F0000
140F078000
002D02D000
007800F000
0050001000
ENDCHAR
STARTCHAR uni0928093C094D0930
ENCODING -1
SWIDTH 473 0
DWIDTH 15 0
BBX 17 24 -1 -4
BITMAP
7FFFFFFF80
155556E540
000001D000
000001D000
000001D000
000001D000
000001D000
000001D000
01FFFFD000
079556D000
070002D000
0B0007D000
07001FD000
034039D000
0000F1D000
0002C1D000
000B41D000
001D01D000
007801D000
01E001D000
0140004000
0000000000
000B000000
0001000000
ENDCHAR
STARTCHAR uni092B093C094D0930
ENCODING -1
SWIDTH 741 0
DWIDTH 24 0
BBX 25 24 -1 -4
BITMAP
7FFFFFFFFFFFC0
16D555F5555540
01C000B0000000
01C000B0000000
01C000B0000000
01C000B7FF8000
01C000BE56E000
01C000B4007400
01C000B0003800
01C000B0002800
01D000B0002800
00E001F0002800
00B907F0002800
002FFEB0003800
00017CB0007400
0000B0B001F000
0002D0B0BF8000
000B40B0540000
001D00B0000000
007800B0000000
00E00050000000
00000000000000
0001D000000000
00004000000000
ENDCHAR
STARTCHAR uni092F093C094D0930
ENCODING -1
SWIDTH 564 0
DWIDTH 18 0
BBX 20 24 -1 -4
BITMAP
7FFFFFFFFD
155B955B54
0001D00700
0000D00700
0000D00700
0001D00700
0007C00700
02FF400700
0294000700
0280000700
0280000700
0280000700
02C0000B00
01D0000F00
00B9017F00
002FFFE700
00015B8700
00002E0700
0000B80700
0002E00700
000B800100
0019000000
00001D0000
0000040000
ENDCHAR
STARTCHAR uni0915094D0930094D
ENCODING -1
SWIDTH 518 0
DWIDTH 17 0
BBX 22 22 -1 -2
BITMAP
7FFFFFFFFFE0
155555E55550
000000D00000
000000D00000
000000D00000
002FD0DBFE40
00F540F956D0
02C000F000A0
038000D00000
034000D00000
034000D00000
034000D00000
034000D00000
038001D00000
02C002D00000
01E41BD00000
007FFED00000
0005B4D00000
0002D0D00000
000B40D00000
002C00400000
001000000000
ENDCHAR
STARTCHAR uni0916094D0930094D
ENCODING -1
SWIDTH 469 0
DWIDTH 15 0
BBX 20 22 -1 -2
BITMAP
7FFFFFFFFD
1556E55554
0001D00000
0001D00000
0001D00000
0001D02F80
0001D0B900
0001C1D000
0002C2C000
0007828000
0FFE028000
0B5002C000
038002D00A
01D000F46D
00B4007FF8
003C0005E0
001E0002C0
0007400B40
0002C01D00
0000E07800
000000E000
0000004000
ENDCHAR
STARTCHAR uni0917094D0930094D
ENCODING -1
SWIDTH 264 0
DWIDTH 8 0
BBX 14 20 -1 0
BITMAP
7FFFF000
157D5000
00280000
00280000
00280000
00280000
00280000
00280000
00280000
00380000
00380090
01B402D0
1FD00740
05001D00
00007400
0001E000
00078000
000E0000
00380000
00A00000
ENDCHAR
STARTCHAR uni0918094D0930094D
ENCODING -1
SWIDTH 319 0
DWIDTH 10 0
BBX 16 22 -1 -2
BITMAP
7FFFFFF8
15F95554
01D00000
02C00000
02C00000
02C00000
02C00000
00E40000
003FE000
00B55000
01D00000
02C00000
02C00000
02C00000
02D0000D
00F40178
006FFFE0
00015B40
00002D00
0001E000
000B4000
00050000
ENDCHAR
STARTCHAR uni091A094D0930094D
ENCODING -1
SWIDTH 331 0
DWIDTH 11 0
BBX 16 21 -1 -1
BITMAP
7FFFFFF4
15555550
00000000
00000000
00000000
00000000
1FFFFD00
056E5400
00740000
00B00000
00B00000
00B00000
00B00000
00740009
003D407C
000BFFF0
00005BC0
00001E00
0000B800
0002D000
000A4000
ENDCHAR
STARTCHAR uni091C094D0930094D
ENCODING -1
SWIDTH 312 0
DWIDTH 10 0
BBX 15 21 -1 -1
BITMAP
7FFFFFF4
15555550
00000000
00000000
00000000
00000000
00000000
02FFFFF4
0157D550
0000E000
0000B000
0000B000
0000B000
0000B004
0000E02C
0006D0B4
0FFF42D0
05540B40
00002D00
0000B400
0001D000
ENDCHAR
STARTCHAR uni091D094D0930094D
ENCODING -1
SWIDTH 441 0
DWIDTH 14 0
BBX 19 21 -1 -1
BITMAP
7FFFFFFFF4
15555B9550
0000074000
0000074000
0000074000
007FFF4000
01E5550000
02C0000000
02C0000000
01E4000000
00BFFFFFFC
00055B956C
000002C01C
028001D01C
028001D028
02C001C0B4
02E40781D0
02AFFE0780
0285501E00
0280003800
028000F000
ENDCHAR
STARTCHAR uni091E094D0930094D
ENCODING -1
SWIDTH 374 0
DWIDTH 12 0
BBX 17 21 -1 -1
BITMAP
7FFFFFFF00
1555555500
0000000000
0000000000
0000000000
03FF400000
0156E00000
0000B00000
0000740000
0000340000
00003FFFC0
00003956C0
00003401C0
0000740280
0000B00740
0005E01D00
0BFF807400
015401D000
0000078000
00001E0000
0000140000
ENDCHAR
STARTCHAR uni091F094D0930094D
ENCODING -1
SWIDTH 485 0
DWIDTH 16 0
BBX 17 29 -1 -9
BITMAP
7FFFFFFFC0
155556D540
000001C000
000001C000
000001C000
000001C000
002FFFC000
00F9554000
02D0000000
0280000000
0380000000
0380000000
0380002C00
0380002C00
0280002C00
02C0003800
00F401B400
007FFFD000
0006ED0000
00074F0000
000E078000
002C01D000
007400B000
0000700000
0000380000
00001D0000
00000B4000
0000038000
0000004000
ENDCHAR
STARTCHAR uni0920094D0930094D
ENCODING -1
SWIDTH 512 0
DWIDTH 16 0
BBX 18 29 -1 -9
BITMAP
7FFFFFFFE0
155555E550
000000E000
000000E000
000000D000
000006C000
002FFF8000
00F955F000
02D0003800
0280002C00
0380002C00
0380002C00
0380002C00
0380002C00
0380002C00
02C0003800
01F401B400
007FFFD000
0006ED0000
00078F0000
000E078000
002C01D000
007400B000
0000740000
00002C0000
00001E0000
00000B4000
000003C000
0000004000
ENDCHAR
STARTCHAR uni0921094D0930094D
ENCODING -1
SWIDTH 475 0
DWIDTH 15 0
BBX 17 30 -1 -10
BITMAP
7FFFFFFF80
155556E540
000001D000
000001D000
000001D000
006FFFD000
00E5554000
01C0000000
02C0000000
01C0000000
01E4000000
007FFF8000
000556E000
000000B000
0000007400
0000007400
0280007400
02C000B000
01E401E000
00BFFF9000
0007FC0000
000B5D0000
001D0B4000
007802C000
00A000E000
0000A00000
0000380000
00001D0000
00000B0000
0000028000
ENDCHAR
STARTCHAR uni0922094D0930094D
ENCODING -1
SWIDTH 485 0
DWIDTH 16 0
BBX 17 29 -1 -9
BITMAP
7FFFFFFFC0
155556E540
000001D000
000001D000
000001D000
000001D000
002FFFD000
00F9554000
01D0000000
02C0000000
0280000000
02801FE000
0280397800
0280702C00
0280601C00
02C0002C00
00F4017800
006FFFE000
0002EE0000
00078B0000
000F078000
002D01D000
007800B000
0010201000
0000380000
00001D0000
00000B0000
0000038000
000001C000
ENDCHAR
STARTCHAR uni0923094D0930094D
ENCODING -1
SWIDTH 457 0
DWIDTH 15 0
BBX 20 20 -1 0
BITMAP
7FFFFFFF00
16D556D500
01C002C000
01C002C000
01C002C000
01C002C000
01C002C000
01C002C000
01C002C000
01C002C000
01D0028009
01D003802D
00B41B4074
002FFD01D0
0001500780
0000001E00
0000003800
000000E000
000002C000
0000064000
ENDCHAR
STARTCHAR uni0924094D0930094D
ENCODING -1
SWIDTH 268 0
DWIDTH 9 0
BBX 15 20 -1 0
BITMAP
7FFFFFF4
15555550
00000000
00000000
00000000
00000000
006FFE00
01F55B80
02C001D0
038000D0
038000A0
038000A0
014000D0
000007C0
00002E00
0000B400
0007D000
001E0000
00B80000
01D00000
ENDCHAR
STARTCHAR uni0925094D0930094D
ENCODING -1
SWIDTH 358 0
DWIDTH 11 0
BBX 13 22 2 -2
BITMAP
07F80000
2E6F0000
38074000
74038000
74038000
10038000
00074000
001F0000
FFFD0000
E5400000
D0000000
E0000000
E0000000
B00001C0
3D401B80
1BFFFE00
0055B800
0002D000
001F4000
007D0000
01E00000
01400000
ENDCHAR
STARTCHAR uni0926094D0930094D
ENCODING -1
SWIDTH 489 0
DWIDTH 16 0
BBX 17 27 -1 -7
BITMAP
7FFFFFFFC0
155555F540
000000A000
000000A000
000000A000
002FFFE000
00F9554000
01D0000000
02C0000000
0280000000
0280000000
0280000000
0280007400
02C0007400
02D0007400
00F401F400
006FFFB400
00016D7400
0000B47400
0002D07400
0007400000
0000090000
0000074000
000002C000
000001E000
000000B400
0000001000
ENDCHAR
STARTCHAR uni0927094D0930094D
ENCODING -1
SWIDTH 322 0
DWIDTH 10 0
BBX 16 21 -1 -1
BITMAP
7FFF43F4
15F90150
01D00000
02C00000
02C00000
02C00000
02C00000
00E40000
003FE000
00B55000
01D00000
02C00000
02C00000
02C00000
02D00009
00F40078
006FFFE0
00015B80
00002D00
0001E000
00078000
ENDCHAR
STARTCHAR uni0928094D0930094D
ENCODING -1
SWIDTH 247 0
DWIDTH 8 0
BBX 13 20 -1 0
BITMAP
7FFFFFC0
15555540
00000000
00000000
00000000
00000000
00000000
00000000
01FFFFC0
079555C0
070001C0
0B000380
07400E00
02403C00
0000B000
0002C000
000B4000
002D0000
00B40000
01D00000
ENDCHAR
STARTCHAR uni092A094D0930094D
ENCODING -1
SWIDTH 270 0
DWIDTH 9 0
BBX 14 21 -1 -1
BITMAP
7FFFFE00
16D55500
01C00000
01C00000
01C00000
01C00000
01C00000
01C00000
01C00000
01C00000
01D00000
00E000A0
00B906D0
002FFF40
00016D00
00007400
0001E000
00078000
001E0000
00780000
00A00000
ENDCHAR
STARTCHAR uni092B094D0930094D
ENCODING -1
SWIDTH 523 0
DWIDTH 17 0
BBX 22 21 -1 -1
BITMAP
BFFFFFFFFFE0
57D555E55550
028000D00000
028000D00000
028000D00000
028000DBFE40
028000FD56D0
028000F000A0
028000E00000
028000D00000
02C001D00000
02D002D00000
00F41BD00000
007FFDD00000
0005B4D00000
0001D0D00000
000780D00000
001E00D00000
007800D00000
01E000D00000
014000000000
ENDCHAR
STARTCHAR uni092C094D0930094D
ENCODING -1
SWIDTH 267 0
DWIDTH 9 0
BBX 14 22 -1 -2
BITMAP
7FFFFFD0
15555540
00000000
00000000
00000000
002FF000
00F95000
02F00000
03AC0000
038B0000
0382C000
0380B000
03802C10
038007A0
02C002D0
01E40780
007FFE00
00057800
0001E000
00078000
002D0000
00140000
ENDCHAR
STARTCHAR uni092D094D0930094D
ENCODING -1
SWIDTH 257 0
DWIDTH 8 0
BBX 14 21 -1 -1
BITMAP
79003FD0
1B401540
02C00000
01C00000
01C00000
01C00000
01C00000
01C00000
01D00000
01FFFFD0
01D555C0
01C00380
01C00B00
01C02D00
00407400
0001E000
00038000
000B0000
002D0000
00740000
00500000
ENDCHAR
STARTCHAR uni092E094D0930094D
ENCODING -1
SWIDTH 261 0
DWIDTH 8 0
BBX 14 21 -1 -1
BITMAP
7FFFFFD0
16D55540
01C00000
01C00000
01C00000
01C00000
01C00000
01C00000
01D00000
01FFFFD0
01D556C0
01C00380
01C00B00
01C02D00
00407400
0001E000
00038000
000F0000
002D0000
00B40000
00500000
ENDCHAR
STARTCHAR uni092F094D0930094D
ENCODING -1
SWIDTH 323 0
DWIDTH 10 0
BBX 16 21 -1 -1
BITMAP
7FFFFFD0
155B9540
0001D000
0000D000
0000D000
0001D000
0007C000
02FF4000
02940000
02800000
02800000
02800000
02C00000
01D0001D
00B901B8
002FFFE0
00015B80
00002D00
0001F400
0007C000
000E0000
ENDCHAR
STARTCHAR uni0935094D0930094D
ENCODING -1
SWIDTH 255 0
DWIDTH 8 0
BBX 13 21 -1 -1
BITMAP
7FFFFD00
15555400
00000000
00000000
00000000
002FE000
00F54000
02C00000
03800000
03800000
03800000
03800000
03800000
03800000
02C00180
01E41B80
007FFD00
0005B400
0002D000
000B0000
00280000
ENDCHAR
STARTCHAR uni0938094D0930094D
ENCODING -1
SWIDTH 347 0
DWIDTH 11 0
BBX 16 20 -1 0
BITMAP
7FFFFFF8
15579554
00038000
00038000
00038000
00038000
00038000
00034000
00074000
001E0000
0FFFFFFF
0B55555E
03800038
01D000B0
00B002C0
00780B40
002D2D00
000E0000
00074000
00028000
ENDCHAR
STARTCHAR uni0915093C094D0930094D
ENCODING -1
SWIDTH 518 0
DWIDTH 17 0
BBX 22 24 -1 -4
BITMAP
7FFFFFFFFFE0
155555E55550
000000D00000
000000D00000
000000D00000
002FD0DBFE40
00F540FD56D0
02C000F000A0
038000D00000
034000D00000
034000D00000
034000D00000
034000D00000
038001D00000
02C002D00000
01E41BD00000
007FFED00000
0005B4D00000
0001D0D00000
000740D00000
002D00400000
006400000000
0001D0000000
000040000000
ENDCHAR
STARTCHAR uni0916093C094D0930094D
ENCODING -1
SWIDTH 466 0
DWIDTH 15 0
BBX 20 24 -1 -4
BITMAP
7FFFFFFFFD
1556E55554
0001D00000
0001D00000
0001D00000
0001D02F80
0001D0B900
0001C1D000
0002C2C000
0007828000
0FFE028000
0B5002C000
038002D00A
01D000F46D
00B0007FF8
00380005E0
001D0002C0
000B000740
0003801E00
0001D03C00
000050B400
0000019000
0000000380
0000000140
ENDCHAR
STARTCHAR uni0917093C094D0930094D
ENCODING -1
SWIDTH 264 0
DWIDTH 8 0
BBX 14 24 -1 -4
BITMAP
7FFFF000
157D5000
00280000
00280000
00280000
00280000
00280000
00280000
00280000
00380000
00380090
01B401D0
1FD00740
05001E00
00003800
0000F000
0002C000
000B4000
001D0000
00780000
00500000
00000000
0000E000
00004000
ENDCHAR
STARTCHAR uni091C093C094D0930094D
ENCODING -1
SWIDTH 320 0
DWIDTH 10 0
BBX 15 23 -1 -3
BITMAP
7FFFFFF4
15555550
00000000
00000000
00000000
00000000
00000000
02FFFFF4
0157D550
0000E000
0000B000
0000B000
0000B000
0000B004
0000E02C
0006D0B4
0FFF42D0
05540B40
00002D00
0000B400
0001D000
0E000000
04000000
ENDCHAR
STARTCHAR uni0928093C094D0930094D
ENCODING -1
SWIDTH 247 0
DWIDTH 8 0
BBX 13 23 -1 -3
BITMAP
7FFFFFC0
15555540
00000000
00000000
00000000
00000000
00000000
00000000
01FFFFC0
079555C0
070001C0
0B000380
07400F00
02402C00
0000B000
0002D000
000B4000
002D0000
00B40000
01D00000
00000000
00038000
00010000
ENDCHAR
STARTCHAR uni092B093C094D0930094D
ENCODING -1
SWIDTH 523 0
DWIDTH 17 0
BBX 22 24 -1 -4
BITMAP
BFFFFFFFFFE0
57D555E55550
028000D00000
028000D00000
028000D00000
028000DBFE40
028000FD56D0
028000F000A0
028000E00000
028000D00000
02C001D00000
02D002D00000
00F41BD00000
007FFDD00000
000578D00000
0000E0D00000
000380D00000
000B00D00000
002D00D00000
00B400D00000
01D000900000
000000000000
000380000000
000100000000
ENDCHAR
STARTCHAR uni092F093C094D0930094D
ENCODING -1
SWIDTH 323 0
DWIDTH 10 0
BBX 16 24 -1 -4
BITMAP
7FFFFFD0
155B9540
0001D000
0000D000
0000D000
0001D000
0007C000
02FF4000
02940000
02800000
02800000
02800000
02C00000
01D0001D
00B901B8
002FFFE0
00015B80
00002E00
0000B800
0002E000
000B8000
00090000
00001D00
00000400
ENDCHAR
STARTCHAR uni0915094D0915
ENCODING -1
SWIDTH 1255 0
DWIDTH 40 0
BBX 42 20 -1 0
BITMAP
7FFFFFFFFFFFFFFFFFFFE0
155555E5555555B9555550
000000D000000074000000
000000D000000074000000
000000D000000074000000
006FD0DBFE5BF476FF9000
00F540F956FD507E55F400
02C000E000F00078003C00
038000D000E00074001C00
034000D000D00074001D00
034000D000D00074001D00
034000D000D00074001D00
034000D000D00074001D00
038001D000E00074001C00
02C002D000B000B4002C00
01E41BD0007906F401B400
007FFDD0001FFF747FD000
000550D000015474150000
000000D000000074000000
000000D000000034000000
ENDCHAR
STARTCHAR uni0915094D0916
ENCODING -1
SWIDTH 1256 0
DWIDTH 40 0
BBX 42 20 -1 0
BITMAP
7FFFFFFFFFFFFFFFFFFFE0
155555E555556D5555B950
000000D000001C00007400
000000D000001C00007400
000000D000001C00007400
006FD0DBFD001C02F47400
00F540F95B801C0F507400
02C000E002C01C2C007400
038000D000D02C28007400
034000D000D1B838007400
034000D000FFE038007400
034000D000B50028007400
034000D00038002C00B400
038001D0001D001E46F400
02C002D0000B4007FE7400
01E41AD00003C000547400
007FF9D00001E000007400
000540D000007400007400
000000D000002C00007400
000000D000000A00007400
ENDCHAR
STARTCHAR uni0915094D091A
ENCODING -1
SWIDTH 1086 0
DWIDTH 35 0
BBX 37 20 -1 0
BITMAP
7FFFFFFFFFFFFFFFFF40
155555E555555557D500
000000D0000000028000
000000D0000000028000
000000D0000000028000
006FD0EBFD0000028000
00E000F40BFFFF028000
02C000E0015F55028000
038000D0001D00028000
034000D0002800028000
034000D0003800028000
034000D0003800028000
034000D0002800038000
038001D0002C00078000
02C002D0000F401F8000
01E41BD00007FFF68000
007FFDD0000015428000
000550D0000000028000
000000D0000000028000
000000D0000000028000
ENDCHAR
STARTCHAR uni0915094D091C
ENCODING -1
SWIDTH 1071 0
DWIDTH 34 0
BBX 36 20 -1 0
BITMAP
7FFFFFFFFFFFFFFFFE
155555E55555555B95
000000D00000000740
000000D00000000740
000000D00000000740
006FD0D00000000740
00E000DBFC3FFFFF40
02C000FD5416E55740
038000F00000740740
034000D00000380740
034000D00000380740
034000D00000380740
034000D00000380740
038001D00000380740
02C002D00000740740
01E41BD00001F00740
007FFDD007FFD00740
000550D00155000740
000000D00000000740
000000D00000000340
ENDCHAR
STARTCHAR uni0915094D091F
ENCODING -1
SWIDTH 984 0
DWIDTH 31 0
BBX 33 20 -1 0
BITMAP
7FFFFFFFFFFFFFFFC0
155555E5555556D540
000000D0000001C000
000000D0000001C000
000000D0000001C000
006FD0DBFE4002C000
01F540F956EFFFC000
02C000E000F9554000
038000D002D0000000
034000D00280000000
034000D00380000000
034000D00380000000
034000D00380001400
038001D00380002C00
02C002D00380002C00
00E41BD002C0003800
002BF9D001F401B400
000000D0007FFFD000
000000D00001550000
000000D00000000000
ENDCHAR
STARTCHAR uni0915094D0923
ENCODING -1
SWIDTH 1183 0
DWIDTH 38 0
BBX 40 20 -1 0
BITMAP
7FFFFFFFFFFFFFFFFFFD
155555E556E556D55B54
000000D001D002C00B00
000000D001D002C00B00
000000D001D002C00B00
006FD0D001D002C00B00
00F540DBFFD002C00B00
02C000F955D002C00B00
038000E001D002C00B00
034000D001D002C00B00
034000D001D002C00B00
034000D000E003800B00
034000D000B41B400B00
038001D0002FFD000B00
02C002D0000150000B00
01E41BD0000000000B00
007FFDD0000000000B00
000550D0000000000B00
000000D0000000000B00
000000D0000000000600
ENDCHAR
STARTCHAR uni0915094D0924
ENCODING -1
SWIDTH 761 0
DWIDTH 24 0
BBX 26 20 -1 0
BITMAP
7FFFFFFFFFFFE0
15555579555550
00000038000000
00000038000000
00000038000000
00000038000000
03FFFFF9FF9000
016E557F55B400
0038003D002C00
00740038001D00
00700038001D00
00700038001D00
00700038001D00
00700038001D00
00740038001D00
00380038002C00
002E403801B800
000BF4382FE000
00005038150000
00000028000000
ENDCHAR
STARTCHAR uni0915094D0925
ENCODING -1
SWIDTH 1118 0
DWIDTH 36 0
BBX 38 20 -1 0
BITMAP
7FFFFFFFF00BF800BFD0
155555E5502E6E00B540
000000D000740740A000
000000D000700740A000
000000D000700740A000
006FD0D000100740A000
00F540D000001E00A000
02C000DBFFFFF800A000
038000FD55E54000A000
034000F001D00000A000
034000D001D00000A000
034000D001D00000A000
034000D000D00000E000
038001D000B00001E000
02C002D00079001BE000
01E41BD0001FFFFDA000
007FFDD000005550A000
000550D000000000A000
000000D000000000A000
000000D000000000A000
ENDCHAR
STARTCHAR uni0915094D0926
ENCODING -1
SWIDTH 1009 0
DWIDTH 32 0
BBX 34 20 -1 0
BITMAP
7FFFFFFFFFFFFFFFE0
155555E55555557950
000000D00000003400
000000D00000003400
000000D00000007400
006FD0DBFE4BFFF400
00F540F956FD555000
02C000E000B0000000
038000D000E0000000
034000D001D0000000
034000D001D0000000
034000D001D0000000
034000D001D0002C00
038001D000D0002C00
02C002D000E0002C00
01E41BD0007901BC00
007FF9D0001FFFEC00
000550D00001552C00
000000D00000002C00
000000D00000002C00
ENDCHAR
STARTCHAR uni0915094D092A
ENCODING -1
SWIDTH 1007 0
DWIDTH 32 0
BBX 34 20 -1 0
BITMAP
7FFFFFFFFFFFFFFFE0
155555E556E555B950
000000D001D0007400
000000D001D0007400
000000D001D0007400
006FD0D001D0007400
00F540DBFFD0007400
02C000F955D0007400
038000E001D0007400
034000D001D0007400
034000D001D0007400
034000D000E000B400
034000D000B906F400
038001D0002FFF7400
02C002D00001547400
01E41BD00000007400
007FFDD00000007400
000550D00000007400
000000D00000007400
000000D00000007400
ENDCHAR
STARTCHAR uni0915094D092B
ENCODING -1
SWIDTH 1242 0
DWIDTH 40 0
BBX 41 20 -1 0
BITMAP
7FFFFFFFFFFFFFFFFFFFC0
155555E556E555B5555540
000000D001D000B0000000
000000D001D000B0000000
000000D001D000B0000000
006FD0D001D000B7FF8000
00F540DBFFD000BE56E000
02C000F955D000B4007400
038000E001D000B0003800
034000D001D000B0002800
034000D001D000B0002800
034000D000E000F0002800
034000D000B907F0002800
038001D0002FFEB0003800
02C002D0000150B0007400
01E41BD0000000B001F000
007FFDD0000000B0BF9000
000550D0000000B0540000
000000D0000000B0000000
000000D0000000A0000000
ENDCHAR
STARTCHAR uni0915094D092E
ENCODING -1
SWIDTH 994 0
DWIDTH 32 0
BBX 34 20 -1 0
BITMAP
7FFFFFFFFFFFFFFFD0
155555E556E555B540
000000D001D000B000
000000D001D000B000
000000D001D000B000
006FD0D001D000B000
00F540DBFFD000B000
02C000F956D000B000
038000E001D000B000
034000D001FFFFF000
034000D001D555B000
034000D001D000B000
034000D001D000B000
038001D001D000B000
02C002D0018000B000
01E41BD0000000B000
007FFDD0000000B000
000550D0000000B000
000000D0000000B000
000000D0000000A000
ENDCHAR
STARTCHAR uni0915094D092F
ENCODING -1
SWIDTH 1076 0
DWIDTH 34 0
BBX 36 20 -1 0
BITMAP
7FFFFFFFFFFFFFFFFF
155555E55557D55795
000000D00000E00340
000000D00000A00340
000000D00000B00340
006FD0D00000A00340
00F540D00006D00340
02C000DBFFFF800340
038000F956D4000340
034000F001C0000340
034000D001C0000340
034000D001C0000340
034000D001D0000740
038001D000E0000B40
02C002D00079006F40
01E41BD0001FFFE740
007FFDD00001550340
000550D00000000340
000000D00000000340
000000D00000000340
ENDCHAR
STARTCHAR uni0915094D0932
ENCODING -1
SWIDTH 1178 0
DWIDTH 38 0
BBX 39 20 -1 0
BITMAP
7FFFFFFFFFFFFFFFFFFC
155555E5555555555F54
000000D0000000000A00
000000D0000000000A00
000000D0000000000A00
006FD0DBFE4000000A00
01F540F956EFE46FDA00
02C000E000F96DE57E00
038000D001D00B801E00
034000D002C007400E00
034000D002C007400A00
034000D002C007400A00
034000D002C007400A00
038001D002C002400A00
02C002D002C000000A00
00E41BD001D000000A00
002BF9D000F400000A00
000000D0006FF0000A00
000000D0000150000A00
000000D0000000000A00
ENDCHAR
STARTCHAR uni0915094D0935
ENCODING -1
SWIDTH 1013 0
DWIDTH 32 0
BBX 34 20 -1 0
BITMAP
7FFFFFFFFFFFFFFFE0
155555E55555557950
000000D00000003400
000000D00000003400
000000D00000003400
006FD0DBFE5BF83400
00F540F956FD503400
02C000E000F0003400
038000D000E0003400
034000D000E0003400
034000D000E0003400
034000D000E0003400
034000D000E0003400
038001D000E0003400
02C002D000B0007400
01E41BD0007906F400
007FFDD0001FFF7400
000550D00001543400
000000D00000003400
000000D00000003400
ENDCHAR
STARTCHAR uni0915094D0936
ENCODING -1
SWIDTH 1194 0
DWIDTH 38 0
BBX 40 20 -1 0
BITMAP
7FFFFFFFFD01BF4003FE
155555E5540796E00795
000000D0000E00B00740
000000D0000E00740740
000000D0000D00740740
006FD0DBFE0000740740
00F540FD57C000740740
02C000F000E000740740
038000D000A000B00740
034000D000B006E00740
034000D0007FFF800740
034000D0007954000740
034000D0002D00000740
038001D0000B00000740
02C002D0000380000740
01E41BD00001D0000740
007FFDD00000B4000740
000550D000002C000740
000000D000000E000740
000000D0000007400740
ENDCHAR
STARTCHAR uni0915094D0938
ENCODING -1
SWIDTH 1143 0
DWIDTH 37 0
BBX 38 20 -1 0
BITMAP
7FFFFFFFFFFFFFFFFFF0
155555E555557D557950
000000D0000038003800
000000D0000038003800
000000D0000038003800
006FD0DBFE0038003800
00F540F95B8038003800
02C000E001D038003800
038000D000E074003800
034000D000A1F0003800
034000D000BFFFFFF800
034000D000B955557800
034000D0003C00003800
038001D0001D00003800
02C002D0000B00003800
01E41BD0000380003800
007FFDD00001D0003800
000550D00000B0003800
000000D0000078003800
000000D000001C002800
ENDCHAR
STARTCHAR uni0916094D0916
ENCODING -1
SWIDTH 1223 0
DWIDTH 39 0
BBX 41 20 -1 0
BITMAP
7FFFFFFFFFFFFFFFFFFF80
1556E5555555B55556E540
0001D0000000700001D000
0001D0000000700001D000
0001D0000000700001D000
0001D02F4000701BD1D000
0001D0F50000703D41D000
0001C1D00000B0B001D000
0002C2C00000B0E001D000
000782800006D0E001D000
0FFE028003FF80E001D000
0B5002C002D400E001D000
038002C002E000B002D000
01E000F41B7400791BD000
00B4007FF92C001FF9D000
002C0005400A000141D000
000E00000007800001D000
000740000001D00001D000
0002C0000000B00001D000
0000A0000000240001C000
ENDCHAR
STARTCHAR uni0916094D0924
ENCODING -1
SWIDTH 984 0
DWIDTH 31 0
BBX 33 21 -1 -1
BITMAP
7FFFFFFFFFFFFFFFC0
1556E555555555E540
0001D000000000E000
0001D000000000E000
0001D000000000E000
0001D02F400000E000
0001D0F5000000E000
0001C1D0007FFFE000
0002C2C002E555E000
00078280038000E000
0FFE0280074000E000
0B5002C0074000E000
038002C0074000E000
01D000F4074000E000
00B4007FFF4000E000
00380005574000E000
001E0000034000E000
000B4000038000E000
0003C00001E400E000
0001E000007F40E000
000050000005004000
ENDCHAR
STARTCHAR uni0916094D092E
ENCODING -1
SWIDTH 965 0
DWIDTH 31 0
BBX 33 20 -1 0
BITMAP
7FFFFFFFFFFFFFFF40
1556E5555B9556D500
0001D000074002C000
0001D000074002C000
0001D000074002C000
0001D02F474002C000
0001D0F5074002C000
0001C1D0074002C000
0002C2C0074002C000
0007828007FFFFC000
0FFE0280075556C000
0B5002C0074002C000
038002C0070002C000
01E000F41F0002C000
00B4007FF80002C000
002C0001400002C000
000E0000000002C000
00074000000002C000
0002C000000002C000
0000A0000000018000
ENDCHAR
STARTCHAR uni0916094D092F
ENCODING -1
SWIDTH 1047 0
DWIDTH 34 0
BBX 35 20 -1 0
BITMAP
7FFFFFFFFFFFFFFFFC
1556E555555B555E54
0001D0000003800E00
0001D0000002C00E00
0001D0000002C00E00
0001D02F4002C00E00
0001D0F5001B800E00
0001C1D007FE000E00
0002C2C00750000E00
000782800740000E00
0FFE02800740000E00
0B5002C00740000E00
038002C00740000E00
01E000F46FC0002E00
00B4007FF5E401BE00
002C0005407FFFDE00
000E00000001550E00
000740000000000E00
0002C0000000000E00
0000A0000000000900
ENDCHAR
STARTCHAR uni0916094D0935
ENCODING -1
SWIDTH 975 0
DWIDTH 31 0
BBX 33 20 -1 0
BITMAP
7FFFFFFFFFFFFFFF80
1556E555555556E540
0001D000000001D000
0001D000000001D000
0001D000000001D000
0001D02F406FD1D000
0001D0F501E541D000
0001C1D003C001D000
0002C2C0074001D000
00078280074001D000
0FFE0280074001D000
0B500280074001D000
038002C0074001D000
01E002D0074001D000
00B400F42F8002D000
002C007FF5E41BD000
000E0005407FFDD000
00074000000551D000
0002C000000001D000
0000A000000001D000
ENDCHAR
STARTCHAR uni0916094D0936
ENCODING -1
SWIDTH 1123 0
DWIDTH 36 0
BBX 38 20 -1 0
BITMAP
7FFFFFFFD02FE4007FD0
1556E55540B96D00B540
0001D00001D00E00B000
0001D00001D00B00B000
0001D00001D00B00B000
0001D02F40800B00B000
0001D0F500000B00B000
0001C1D000000B00B000
0002C2C000000E00B000
0007828000006D00B000
0FFE02801FFFF400B000
0B5002C01E554000B000
038002C00B400000B000
01E000F41FC00000B000
00B4007FF4E00000B000
002C000540740000B000
000E0000002C0000B000
00074000000E0000B000
0002C00000074000B000
0000A000000280006000
ENDCHAR
STARTCHAR uni0917094D0917
ENCODING -1
SWIDTH 744 0
DWIDTH 24 0
BBX 26 20 -1 0
BITMAP
7FFFFFFFFFFFD0
157D557D55B540
0028002800B000
0028002800B000
0028002800B000
0028002800B000
0028002800B000
0028002800B000
0028002800B000
0038003800B000
0038003800B000
01B401B400B000
1FD01FD000B000
0500050000B000
0000000000B000
0000000000B000
0000000000B000
0000000000B000
0000000000B000
0000000000A000
ENDCHAR
STARTCHAR uni0917094D0918
ENCODING -1
SWIDTH 823 0
DWIDTH 26 0
BBX 28 20 -1 0
BITMAP
7FFFFFFFFFFFFE
157D55B9555795
002800E0000340
002801D0000340
002801D0000340
002801D0000340
002800E0000340
002800B4000340
0028002FF40340
00380079500340
003800E0000340
01B401D0000340
1FD001D0000340
050001D0000740
000000E0000B40
000000B9006F40
0000002FFFF740
00000001554340
00000000000340
00000000000340
ENDCHAR
STARTCHAR uni0917094D091C
ENCODING -1
SWIDTH 801 0
DWIDTH 26 0
BBX 27 20 -1 0
BITMAP
7FFFFFFFFFFFFC
157D5555555E54
00280000000E00
00280000000E00
00280000000E00
00280000000E00
00280000000E00
002802FFFFFE00
00280056D55E00
00380000E00E00
00380000B00E00
01B40000B00E00
1FD00000B00E00
05000000B00E00
00000000B00E00
00000006E00E00
00000FFF800E00
00000554000E00
00000000000E00
00000000000A00
ENDCHAR
STARTCHAR uni0917094D0923
ENCODING -1
SWIDTH 945 0
DWIDTH 30 0
BBX 32 20 -1 0
BITMAP
7FFFFFFFFFFFFFFE
157D55E556E55B95
002800E001D00740
002800E001D00740
002800E001D00740
002800E001D00740
002800E001D00740
002800E001D00740
002800E001D00740
003800E001D00740
003800E001D00740
01B400B002C00740
1FD0007917800740
0500001FFE000740
0000000150000740
0000000000000740
0000000000000740
0000000000000740
0000000000000740
0000000000000740
ENDCHAR
STARTCHAR uni0917094D0926
ENCODING -1
SWIDTH 748 0
DWIDTH 24 0
BBX 26 20 -1 0
BITMAP
7FFFFFFFFFFFD0
157D555555B540
00280000007000
00280000007000
0028000000B000
0028001FFFF000
002800B9555000
002800E0000000
002801C0000000
003802C0000000
003802C0000000
01B402C0000000
1FD002C0003400
050001C0003800
000001D0007800
000000B501B800
0000002FFFB800
00000001543800
00000000003800
00000000003400
ENDCHAR
STARTCHAR uni0917094D0927
ENCODING -1
SWIDTH 823 0
DWIDTH 26 0
BBX 28 20 -1 0
BITMAP
7FFFFFFFC1FFFE
157D55B9405795
002800E0000340
002801D0000340
002801D0000340
002801D0000340
002800E0000340
002800B4000340
0028002FF40340
00380079500340
003800E0000340
01B401D0000340
1FD001D0000340
050001D0000740
000000E0000B40
000000B9006F40
0000002FFFF740
00000001554340
00000000000340
00000000000340
ENDCHAR
STARTCHAR uni0917094D092C
ENCODING -1
SWIDTH 755 0
DWIDTH 24 0
BBX 26 20 -1 0
BITMAP
7FFFFFFFFFFFE0
157D555555B950
00280000007400
00280000007400
00280000007400
0028001FF47400
002800B9507400
002800F4007400
002801DD007400
003801C7407400
003802C1D07400
01B402C0747400
1FD001C00E7400
050001C003B400
000001D000F400
000000B506F400
0000002FFE7400
00000001507400
00000000007400
00000000007400
ENDCHAR
STARTCHAR uni0917094D092D
ENCODING -1
SWIDTH 755 0
DWIDTH 24 0
BBX 26 20 -1 0
BITMAP
7FFFFE002FFFE0
157D5BC015B950
002801D0007400
002800E0007400
002800E0007400
002800E0007400
002800E0007400
002800E0007400
002800E0007400
003800FFFFF400
003800E555B400
01B400E0007400
1FD000E0007400
050000E0007400
00000090007400
00000000007400
00000000007400
00000000007400
00000000007400
00000000007000
ENDCHAR
STARTCHAR uni0917094D092E
ENCODING -1
SWIDTH 754 0
DWIDTH 24 0
BBX 26 20 -1 0
BITMAP
7FFFFFFFFFFFE0
157D55E555B950
002800E0007400
002800E0007400
002800E0007400
002800E0007400
002800E0007400
002800E0007400
002800E0007400
003800FFFFF400
003800E555B400
01B400E0007400
1FD000E0007400
050000E0007400
00000090007400
00000000007400
00000000007400
00000000007400
00000000007400
00000000007000
ENDCHAR
STARTCHAR uni0917094D092F
ENCODING -1
SWIDTH 828 0
DWIDTH 27 0
BBX 28 20 -1 0
BITMAP
7FFFFFFFFFFFFF
157D5556D55795
00280000E00380
00280000B00380
00280000B00380
00280000A00380
00280006D00380
002801FF800380
002801D4000380
003801C0000380
003801C0000380
01B401D0000380
1FD001D0000780
050000E0000B80
00000079006F80
0000001FFFF780
00000000554380
00000000000380
00000000000380
00000000000240
ENDCHAR
STARTCHAR uni0917094D0932
ENCODING -1
SWIDTH 924 0
DWIDTH 30 0
BBX 31 20 -1 0
BITMAP
7FFFFFFFFFFFFFFC
157D555555555E54
0028000000000E00
0028000000000E00
0028000000000E00
0028000000000E00
0028002FE47FDE00
002800F56DE5BE00
002802D00B801E00
003802C007400E00
0038028007400E00
01B4028007400E00
1FD0028007400E00
0500028006000E00
0000028000000E00
000002C000000E00
000001E400000E00
0000007FE0000E00
0000000150000E00
0000000000000A00
ENDCHAR
STARTCHAR uni0917094D0935
ENCODING -1
SWIDTH 747 0
DWIDTH 24 0
BBX 26 20 -1 0
BITMAP
7FFFFFFFFFFFD0
157D555555B540
0028000000B000
0028000000B000
0028000000B000
0028001FF0B000
002800B950B000
002801E000B000
002801D000B000
003802C000B000
003802C000B000
01B402C000B000
1FD002C000B000
050001C000B000
000001D000F000
000000B506F000
0000002FFEB000
0000000150B000
0000000000B000
00000000006000
ENDCHAR
STARTCHAR uni0917094D0938
ENCODING -1
SWIDTH 839 0
DWIDTH 27 0
BBX 29 20 -1 0
BITMAP
7FFFFFFFFFFFFF40
157D5556D556D500
00280002C002C000
00280002C002C000
00280002C002C000
00280002C002C000
00280002C002C000
00280002C002C000
002800038002C000
0038001B4002C000
003807FFFFFFC000
01B407955556C000
1FD002C00002C000
050000E00002C000
000000740002C000
0000002C0002C000
0000000E0002C000
0000000B4002C000
000000038002C000
00000001D0028000
ENDCHAR
STARTCHAR uni0918094D092E
ENCODING -1
SWIDTH 818 0
DWIDTH 26 0
BBX 28 20 -1 0
BITMAP
7FFFFFFFFFFFFE
15F9555E555B95
01D0000E000740
02C0000E000740
02C0000E000740
02C0000E000740
01C0000E000740
00E4000E000740
003FE00E000740
00F5500FFFFF40
02D0000E555B40
02C0000E000740
02C0000E000740
02C0000E000740
02C0001D000740
00F4007C000740
007FFFE0000740
00015500000740
00000000000740
00000000000740
ENDCHAR
STARTCHAR uni0918094D092F
ENCODING -1
SWIDTH 867 0
DWIDTH 28 0
BBX 29 20 -1 0
BITMAP
7FFFFFFFFFFFFFC0
15F95555B955F540
01D000002C00A000
02C000001C00A000
02C000001C00A000
02C000002C00A000
01C000007800A000
00A4003FE000A000
007FE0390000A000
01F550340000A000
02D000340000A000
02C000340000A000
02C000380000E000
02C0002C0001E000
01C0001F501BE000
00F4007FFFFDA000
007FFFE01550A000
000155000000A000
000000000000A000
000000000000A000
ENDCHAR
STARTCHAR uni091A094D091A
ENCODING -1
SWIDTH 868 0
DWIDTH 28 0
BBX 30 20 -1 0
BITMAP
7FFFFFFFFFFFFFD0
155555555555F540
000000000000A000
000000000000A000
000000000000A000
000000000000A000
1FFFF0BFFFC0A000
056E5017D540A000
007400074000A000
00B0000A0000A000
00B0000E0000A000
00B0000E0000A000
00B0000A0000E000
0074000F0001E000
002D406FD007E000
000BFFE1FFFEA000
000055000550A000
000000000000A000
000000000000A000
000000000000A000
ENDCHAR
STARTCHAR uni091A094D091B
ENCODING -1
SWIDTH 922 0
DWIDTH 30 0
BBX 31 19 -1 1
BITMAP
7FFFFFFFFFFFFFFC
15555557E5556E54
0000000740001D00
0000000B00001D00
0000000B00001D00
0000000B00001D00
1FFFFD0B0007FC00
056E540700016E00
0074000390000B00
00B00000FF400700
00B00003D5000740
00B0000740000740
00B0000B00000740
0074000B00000740
002D406F00000700
000BFFEB00000B00
0000550390006D00
00000001FFFFF400
0000000005554000
ENDCHAR
STARTCHAR uni091A094D092E
ENCODING -1
SWIDTH 830 0
DWIDTH 27 0
BBX 28 20 -1 0
BITMAP
7FFFFFFFFFFFFF
1555555B555795
0000000B000380
0000000B000380
0000000B000380
0000000B000380
1FFFFD0B000380
056E540B000380
0074000B000380
00B0000BFFFF80
00B0000B555780
00B0000B000380
00B0000B000380
0074000E000380
002D406D000380
000BFFF4000380
00005540000380
00000000000380
00000000000380
00000000000240
ENDCHAR
STARTCHAR uni091A094D092F
ENCODING -1
SWIDTH 904 0
DWIDTH 29 0
BBX 31 20 -1 0
BITMAP
7FFFFFFFFFFFFFF4
155555556E556D50
0000000007002C00
0000000007402C00
0000000007402C00
0000000007402C00
1FFFFD001F002C00
056E540FFD002C00
0074000E40002C00
00B0000E00002C00
00B0000E00002C00
00B0000E00002C00
00B0000A00002C00
0074000F40007C00
002D407FD405FC00
000BFFE0BFFFAC00
0000550005542C00
0000000000002C00
0000000000002C00
0000000000001800
ENDCHAR
ENDFONT
